<mxfile host="app.diagrams.net" modified="2022-04-03T20:20:22.981Z" agent="5.0 (Windows NT 10.0; Win64; x64) AppleWebKit/537.36 (KHTML, like Gecko) Chrome/99.0.4844.84 Safari/537.36" etag="efgZz3VPprMpX99CLl1Y" version="17.3.0" type="github" pages="7">
  <diagram id="CxsjN5ru1xx1PsRfdbc9" name="Overall System CD">
    <mxGraphModel dx="2272" dy="762" grid="1" gridSize="10" guides="1" tooltips="1" connect="1" arrows="1" fold="1" page="1" pageScale="1" pageWidth="850" pageHeight="1100" math="0" shadow="0">
      <root>
        <mxCell id="_Ia43Y_EwEUsek4e2qzT-0" />
        <mxCell id="_Ia43Y_EwEUsek4e2qzT-1" parent="_Ia43Y_EwEUsek4e2qzT-0" />
        <mxCell id="5PvebL44zEmvtmBZ9y52-0" value="&lt;p style=&quot;margin: 0px ; margin-top: 6px ; text-align: center&quot;&gt;&lt;b&gt;&amp;lt;&amp;lt;subsystem&amp;gt;&amp;gt;&lt;br&gt;Review&lt;/b&gt;&lt;/p&gt;&lt;hr&gt;&lt;p style=&quot;margin: 0px ; margin-left: 8px&quot;&gt;&lt;br&gt;&lt;br&gt;&lt;/p&gt;" style="align=left;overflow=fill;html=1;dropTarget=0;" parent="_Ia43Y_EwEUsek4e2qzT-1" vertex="1">
          <mxGeometry x="110" y="150" width="300" height="240" as="geometry" />
        </mxCell>
        <mxCell id="5PvebL44zEmvtmBZ9y52-1" value="" style="shape=component;jettyWidth=8;jettyHeight=4;html=0;" parent="5PvebL44zEmvtmBZ9y52-0" vertex="1">
          <mxGeometry x="1" width="20" height="20" relative="1" as="geometry">
            <mxPoint x="-24" y="4" as="offset" />
          </mxGeometry>
        </mxCell>
        <mxCell id="oPjlppZlMVV5ywwdtR1t-7" style="edgeStyle=orthogonalEdgeStyle;rounded=0;orthogonalLoop=1;jettySize=auto;html=1;exitX=1;exitY=0.75;exitDx=0;exitDy=0;entryX=1;entryY=0.5;entryDx=0;entryDy=0;entryPerimeter=0;" parent="_Ia43Y_EwEUsek4e2qzT-1" source="C8QKbj-8ehM-xV4Xi8_m-0" target="oPjlppZlMVV5ywwdtR1t-2" edge="1">
          <mxGeometry relative="1" as="geometry" />
        </mxCell>
        <mxCell id="oPjlppZlMVV5ywwdtR1t-8" value="&lt;span style=&quot;color: rgba(0 , 0 , 0 , 0) ; font-family: monospace ; font-size: 0px ; background-color: rgb(248 , 249 , 250)&quot;&gt;%3CmxGraphModel%3E%3Croot%3E%3CmxCell%20id%3D%220%22%2F%3E%3CmxCell%20id%3D%221%22%20parent%3D%220%22%2F%3E%3CmxCell%20id%3D%222%22%20value%3D%22CheckAndCreateReview%22%20style%3D%22edgeLabel%3Bhtml%3D1%3Balign%3Dcenter%3BverticalAlign%3Dmiddle%3Bresizable%3D0%3Bpoints%3D%5B%5D%3B%22%20vertex%3D%221%22%20connectable%3D%220%22%20parent%3D%221%22%3E%3CmxGeometry%20x%3D%22290%22%20y%3D%22306%22%20as%3D%22geometry%22%2F%3E%3C%2FmxCell%3E%3C%2Froot%3E%3C%2FmxGraphModel%3EC&lt;/span&gt;" style="edgeLabel;html=1;align=center;verticalAlign=middle;resizable=0;points=[];" parent="oPjlppZlMVV5ywwdtR1t-7" vertex="1" connectable="0">
          <mxGeometry x="-0.1136" y="1" relative="1" as="geometry">
            <mxPoint as="offset" />
          </mxGeometry>
        </mxCell>
        <mxCell id="oPjlppZlMVV5ywwdtR1t-9" value="&lt;font style=&quot;font-size: 10px&quot;&gt;CheckAnd&lt;br&gt;CreateReview&lt;/font&gt;" style="edgeLabel;html=1;align=center;verticalAlign=middle;resizable=0;points=[];" parent="oPjlppZlMVV5ywwdtR1t-7" vertex="1" connectable="0">
          <mxGeometry x="-0.3455" relative="1" as="geometry">
            <mxPoint x="23" y="1" as="offset" />
          </mxGeometry>
        </mxCell>
        <mxCell id="C8QKbj-8ehM-xV4Xi8_m-0" value="«component»&lt;br&gt;&lt;b&gt;Reviews&lt;/b&gt;" style="html=1;dropTarget=0;" parent="_Ia43Y_EwEUsek4e2qzT-1" vertex="1">
          <mxGeometry x="140" y="200" width="150" height="70" as="geometry" />
        </mxCell>
        <mxCell id="C8QKbj-8ehM-xV4Xi8_m-1" value="" style="shape=module;jettyWidth=8;jettyHeight=4;" parent="C8QKbj-8ehM-xV4Xi8_m-0" vertex="1">
          <mxGeometry x="1" width="20" height="20" relative="1" as="geometry">
            <mxPoint x="-27" y="7" as="offset" />
          </mxGeometry>
        </mxCell>
        <mxCell id="5PvebL44zEmvtmBZ9y52-8" value="" style="ellipse;whiteSpace=wrap;html=1;align=center;aspect=fixed;resizable=0;points=[];outlineConnect=0;sketch=0;" parent="_Ia43Y_EwEUsek4e2qzT-1" vertex="1">
          <mxGeometry x="565" y="215" width="10" height="10" as="geometry" />
        </mxCell>
        <mxCell id="5PvebL44zEmvtmBZ9y52-10" value="ListReviews()" style="rounded=0;orthogonalLoop=1;jettySize=auto;html=1;endArrow=none;endFill=0;sketch=0;sourcePerimeterSpacing=0;exitX=1;exitY=0.5;exitDx=0;exitDy=0;" parent="_Ia43Y_EwEUsek4e2qzT-1" source="C8QKbj-8ehM-xV4Xi8_m-0" target="5PvebL44zEmvtmBZ9y52-8" edge="1">
          <mxGeometry relative="1" as="geometry">
            <mxPoint x="350" y="270" as="sourcePoint" />
            <mxPoint x="530" y="270" as="targetPoint" />
          </mxGeometry>
        </mxCell>
        <mxCell id="5PvebL44zEmvtmBZ9y52-11" value="Review DB" style="shape=datastore;whiteSpace=wrap;html=1;" parent="_Ia43Y_EwEUsek4e2qzT-1" vertex="1">
          <mxGeometry x="-40" y="225" width="60" height="60" as="geometry" />
        </mxCell>
        <mxCell id="5PvebL44zEmvtmBZ9y52-12" value="" style="rounded=0;orthogonalLoop=1;jettySize=auto;html=1;endArrow=none;endFill=0;sketch=0;sourcePerimeterSpacing=0;targetPerimeterSpacing=0;exitX=1;exitY=0.7;exitDx=0;exitDy=0;" parent="_Ia43Y_EwEUsek4e2qzT-1" source="5PvebL44zEmvtmBZ9y52-11" target="5PvebL44zEmvtmBZ9y52-14" edge="1">
          <mxGeometry relative="1" as="geometry">
            <mxPoint x="250" y="105" as="sourcePoint" />
          </mxGeometry>
        </mxCell>
        <mxCell id="5PvebL44zEmvtmBZ9y52-13" value="" style="rounded=0;orthogonalLoop=1;jettySize=auto;html=1;endArrow=halfCircle;endFill=0;entryX=0.5;entryY=0.5;endSize=6;strokeWidth=1;sketch=0;" parent="_Ia43Y_EwEUsek4e2qzT-1" source="C8QKbj-8ehM-xV4Xi8_m-0" target="5PvebL44zEmvtmBZ9y52-14" edge="1">
          <mxGeometry relative="1" as="geometry">
            <mxPoint x="290" y="105" as="sourcePoint" />
          </mxGeometry>
        </mxCell>
        <mxCell id="5PvebL44zEmvtmBZ9y52-14" value="" style="ellipse;whiteSpace=wrap;html=1;align=center;aspect=fixed;resizable=0;points=[];outlineConnect=0;sketch=0;" parent="_Ia43Y_EwEUsek4e2qzT-1" vertex="1">
          <mxGeometry x="70" y="255" width="10" height="10" as="geometry" />
        </mxCell>
        <mxCell id="5PvebL44zEmvtmBZ9y52-15" value="&lt;p style=&quot;margin: 0px ; margin-top: 6px ; text-align: center&quot;&gt;&lt;b&gt;&amp;lt;&amp;lt;subsystem&amp;gt;&amp;gt;&lt;br&gt;Registration&lt;/b&gt;&lt;/p&gt;&lt;hr&gt;&lt;p style=&quot;margin: 0px ; margin-left: 8px&quot;&gt;&lt;br&gt;&lt;br&gt;&lt;/p&gt;" style="align=left;overflow=fill;html=1;dropTarget=0;" parent="_Ia43Y_EwEUsek4e2qzT-1" vertex="1">
          <mxGeometry x="630" y="200" width="300" height="240" as="geometry" />
        </mxCell>
        <mxCell id="5PvebL44zEmvtmBZ9y52-16" value="" style="shape=component;jettyWidth=8;jettyHeight=4;html=0;" parent="5PvebL44zEmvtmBZ9y52-15" vertex="1">
          <mxGeometry x="1" width="20" height="20" relative="1" as="geometry">
            <mxPoint x="-24" y="4" as="offset" />
          </mxGeometry>
        </mxCell>
        <mxCell id="5PvebL44zEmvtmBZ9y52-17" value="«component»&lt;br&gt;&lt;b&gt;Registration&lt;/b&gt;" style="html=1;dropTarget=0;" parent="_Ia43Y_EwEUsek4e2qzT-1" vertex="1">
          <mxGeometry x="770" y="250" width="140" height="70" as="geometry" />
        </mxCell>
        <mxCell id="5PvebL44zEmvtmBZ9y52-18" value="" style="shape=module;jettyWidth=8;jettyHeight=4;" parent="5PvebL44zEmvtmBZ9y52-17" vertex="1">
          <mxGeometry x="1" width="20" height="20" relative="1" as="geometry">
            <mxPoint x="-27" y="7" as="offset" />
          </mxGeometry>
        </mxCell>
        <mxCell id="5PvebL44zEmvtmBZ9y52-22" value="" style="rounded=0;orthogonalLoop=1;jettySize=auto;html=1;endArrow=halfCircle;endFill=0;endSize=6;strokeWidth=1;sketch=0;exitX=0;exitY=0;exitDx=0;exitDy=0;" parent="_Ia43Y_EwEUsek4e2qzT-1" source="CKhQrw0Nt1Avkd2GXAus-0" target="5PvebL44zEmvtmBZ9y52-8" edge="1">
          <mxGeometry relative="1" as="geometry">
            <mxPoint x="590" y="269.5" as="sourcePoint" />
            <mxPoint x="570" y="269.5" as="targetPoint" />
            <Array as="points">
              <mxPoint x="590" y="270" />
            </Array>
          </mxGeometry>
        </mxCell>
        <mxCell id="5PvebL44zEmvtmBZ9y52-27" value="Registration DB" style="shape=datastore;whiteSpace=wrap;html=1;" parent="_Ia43Y_EwEUsek4e2qzT-1" vertex="1">
          <mxGeometry x="590" y="50" width="80" height="80" as="geometry" />
        </mxCell>
        <mxCell id="5PvebL44zEmvtmBZ9y52-28" value="" style="rounded=0;orthogonalLoop=1;jettySize=auto;html=1;endArrow=none;endFill=0;sketch=0;sourcePerimeterSpacing=0;targetPerimeterSpacing=0;exitX=0.85;exitY=0.95;exitDx=0;exitDy=0;exitPerimeter=0;" parent="_Ia43Y_EwEUsek4e2qzT-1" source="5PvebL44zEmvtmBZ9y52-27" target="5PvebL44zEmvtmBZ9y52-30" edge="1">
          <mxGeometry relative="1" as="geometry">
            <mxPoint x="610" y="165" as="sourcePoint" />
          </mxGeometry>
        </mxCell>
        <mxCell id="5PvebL44zEmvtmBZ9y52-29" value="" style="rounded=0;orthogonalLoop=1;jettySize=auto;html=1;endArrow=halfCircle;endFill=0;entryX=0.5;entryY=0.5;endSize=6;strokeWidth=1;sketch=0;exitX=0;exitY=0;exitDx=0;exitDy=0;" parent="_Ia43Y_EwEUsek4e2qzT-1" source="5PvebL44zEmvtmBZ9y52-17" target="5PvebL44zEmvtmBZ9y52-30" edge="1">
          <mxGeometry relative="1" as="geometry">
            <mxPoint x="650" y="165" as="sourcePoint" />
          </mxGeometry>
        </mxCell>
        <mxCell id="5PvebL44zEmvtmBZ9y52-30" value="" style="ellipse;whiteSpace=wrap;html=1;align=center;aspect=fixed;resizable=0;points=[];outlineConnect=0;sketch=0;" parent="_Ia43Y_EwEUsek4e2qzT-1" vertex="1">
          <mxGeometry x="650" y="150" width="10" height="10" as="geometry" />
        </mxCell>
        <mxCell id="jR22t1IqPBmbhWTZ7qFY-0" value="&lt;p style=&quot;margin: 0px ; margin-top: 6px ; text-align: center&quot;&gt;&lt;b&gt;&amp;lt;&amp;lt;subsystem&amp;gt;&amp;gt;&lt;br&gt;User Management&lt;/b&gt;&lt;/p&gt;&lt;hr&gt;&lt;p style=&quot;margin: 0px ; margin-left: 8px&quot;&gt;&lt;br&gt;&lt;br&gt;&lt;/p&gt;" style="align=left;overflow=fill;html=1;dropTarget=0;" parent="_Ia43Y_EwEUsek4e2qzT-1" vertex="1">
          <mxGeometry x="1060" y="450" width="450" height="230" as="geometry" />
        </mxCell>
        <mxCell id="jR22t1IqPBmbhWTZ7qFY-1" value="" style="shape=component;jettyWidth=8;jettyHeight=4;html=0;" parent="jR22t1IqPBmbhWTZ7qFY-0" vertex="1">
          <mxGeometry x="1" width="20" height="20" relative="1" as="geometry">
            <mxPoint x="-24" y="4" as="offset" />
          </mxGeometry>
        </mxCell>
        <mxCell id="k_75-tTC1g7WSbtZUR9y-0" style="edgeStyle=orthogonalEdgeStyle;rounded=0;orthogonalLoop=1;jettySize=auto;html=1;endArrow=halfCircle;endFill=0;" parent="_Ia43Y_EwEUsek4e2qzT-1" source="jR22t1IqPBmbhWTZ7qFY-4" target="5PvebL44zEmvtmBZ9y52-33" edge="1">
          <mxGeometry relative="1" as="geometry">
            <Array as="points">
              <mxPoint x="1090" y="570" />
              <mxPoint x="1090" y="370" />
            </Array>
          </mxGeometry>
        </mxCell>
        <mxCell id="jR22t1IqPBmbhWTZ7qFY-4" value="«component»&lt;br&gt;&lt;b&gt;User&lt;/b&gt;" style="html=1;dropTarget=0;" parent="_Ia43Y_EwEUsek4e2qzT-1" vertex="1">
          <mxGeometry x="1182.5" y="520" width="205" height="120" as="geometry" />
        </mxCell>
        <mxCell id="jR22t1IqPBmbhWTZ7qFY-5" value="" style="shape=module;jettyWidth=8;jettyHeight=4;" parent="jR22t1IqPBmbhWTZ7qFY-4" vertex="1">
          <mxGeometry x="1" width="20" height="20" relative="1" as="geometry">
            <mxPoint x="-27" y="7" as="offset" />
          </mxGeometry>
        </mxCell>
        <mxCell id="jR22t1IqPBmbhWTZ7qFY-10" value="User Management DB" style="shape=datastore;whiteSpace=wrap;html=1;" parent="_Ia43Y_EwEUsek4e2qzT-1" vertex="1">
          <mxGeometry x="1150" y="750" width="80" height="80" as="geometry" />
        </mxCell>
        <mxCell id="jR22t1IqPBmbhWTZ7qFY-17" value="&lt;p style=&quot;margin: 0px ; margin-top: 6px ; text-align: center&quot;&gt;&lt;b&gt;&amp;lt;&amp;lt;subsystem&amp;gt;&amp;gt;&lt;br&gt;Class Management&lt;/b&gt;&lt;/p&gt;&lt;hr&gt;&lt;p style=&quot;margin: 0px ; margin-left: 8px&quot;&gt;&lt;br&gt;&lt;br&gt;&lt;/p&gt;" style="align=left;overflow=fill;html=1;dropTarget=0;" parent="_Ia43Y_EwEUsek4e2qzT-1" vertex="1">
          <mxGeometry x="505" y="650" width="435" height="290" as="geometry" />
        </mxCell>
        <mxCell id="jR22t1IqPBmbhWTZ7qFY-18" value="" style="shape=component;jettyWidth=8;jettyHeight=4;html=0;" parent="jR22t1IqPBmbhWTZ7qFY-17" vertex="1">
          <mxGeometry x="1" width="20" height="20" relative="1" as="geometry">
            <mxPoint x="-24" y="4" as="offset" />
          </mxGeometry>
        </mxCell>
        <mxCell id="jR22t1IqPBmbhWTZ7qFY-19" value="«component»&lt;br&gt;&lt;b&gt;Classes&lt;/b&gt;" style="html=1;dropTarget=0;" parent="_Ia43Y_EwEUsek4e2qzT-1" vertex="1">
          <mxGeometry x="610" y="710" width="180" height="90" as="geometry" />
        </mxCell>
        <mxCell id="jR22t1IqPBmbhWTZ7qFY-20" value="" style="shape=module;jettyWidth=8;jettyHeight=4;" parent="jR22t1IqPBmbhWTZ7qFY-19" vertex="1">
          <mxGeometry x="1" width="20" height="20" relative="1" as="geometry">
            <mxPoint x="-27" y="7" as="offset" />
          </mxGeometry>
        </mxCell>
        <mxCell id="jR22t1IqPBmbhWTZ7qFY-24" value="GetUser()" style="rounded=0;orthogonalLoop=1;jettySize=auto;html=1;endArrow=none;endFill=0;sketch=0;sourcePerimeterSpacing=0;targetPerimeterSpacing=0;exitX=0;exitY=1;exitDx=0;exitDy=0;" parent="_Ia43Y_EwEUsek4e2qzT-1" source="jR22t1IqPBmbhWTZ7qFY-4" target="jR22t1IqPBmbhWTZ7qFY-26" edge="1">
          <mxGeometry relative="1" as="geometry">
            <mxPoint x="930" y="795" as="sourcePoint" />
          </mxGeometry>
        </mxCell>
        <mxCell id="jR22t1IqPBmbhWTZ7qFY-26" value="" style="ellipse;whiteSpace=wrap;html=1;align=center;aspect=fixed;resizable=0;points=[];outlineConnect=0;sketch=0;" parent="_Ia43Y_EwEUsek4e2qzT-1" vertex="1">
          <mxGeometry x="1040" y="790" width="10" height="10" as="geometry" />
        </mxCell>
        <mxCell id="jR22t1IqPBmbhWTZ7qFY-28" value="" style="rounded=0;orthogonalLoop=1;jettySize=auto;html=1;endArrow=none;endFill=0;sketch=0;sourcePerimeterSpacing=0;targetPerimeterSpacing=0;exitX=0.5;exitY=0;exitDx=0;exitDy=0;" parent="_Ia43Y_EwEUsek4e2qzT-1" source="jR22t1IqPBmbhWTZ7qFY-10" target="jR22t1IqPBmbhWTZ7qFY-30" edge="1">
          <mxGeometry relative="1" as="geometry">
            <mxPoint x="1350" y="755" as="sourcePoint" />
          </mxGeometry>
        </mxCell>
        <mxCell id="jR22t1IqPBmbhWTZ7qFY-29" value="" style="rounded=0;orthogonalLoop=1;jettySize=auto;html=1;endArrow=halfCircle;endFill=0;entryX=0.5;entryY=0.5;endSize=6;strokeWidth=1;sketch=0;exitX=0.5;exitY=1;exitDx=0;exitDy=0;" parent="_Ia43Y_EwEUsek4e2qzT-1" source="jR22t1IqPBmbhWTZ7qFY-0" target="jR22t1IqPBmbhWTZ7qFY-30" edge="1">
          <mxGeometry relative="1" as="geometry">
            <mxPoint x="1390" y="755" as="sourcePoint" />
          </mxGeometry>
        </mxCell>
        <mxCell id="jR22t1IqPBmbhWTZ7qFY-30" value="" style="ellipse;whiteSpace=wrap;html=1;align=center;aspect=fixed;resizable=0;points=[];outlineConnect=0;sketch=0;" parent="_Ia43Y_EwEUsek4e2qzT-1" vertex="1">
          <mxGeometry x="1190" y="710" width="10" height="10" as="geometry" />
        </mxCell>
        <mxCell id="jR22t1IqPBmbhWTZ7qFY-35" value="" style="rounded=0;orthogonalLoop=1;jettySize=auto;html=1;endArrow=halfCircle;endFill=0;endSize=6;strokeWidth=1;sketch=0;exitX=1;exitY=0.75;exitDx=0;exitDy=0;" parent="_Ia43Y_EwEUsek4e2qzT-1" source="zGb_He7ZYxWKpCxa2eFC-1" target="jR22t1IqPBmbhWTZ7qFY-26" edge="1">
          <mxGeometry relative="1" as="geometry">
            <mxPoint x="820" y="784.5" as="sourcePoint" />
            <mxPoint x="800" y="784.5" as="targetPoint" />
          </mxGeometry>
        </mxCell>
        <mxCell id="jR22t1IqPBmbhWTZ7qFY-37" value="Classes DB" style="shape=datastore;whiteSpace=wrap;html=1;" parent="_Ia43Y_EwEUsek4e2qzT-1" vertex="1">
          <mxGeometry x="615" y="950" width="80" height="80" as="geometry" />
        </mxCell>
        <mxCell id="jR22t1IqPBmbhWTZ7qFY-38" value="" style="rounded=0;orthogonalLoop=1;jettySize=auto;html=1;endArrow=none;endFill=0;sketch=0;sourcePerimeterSpacing=0;targetPerimeterSpacing=0;exitX=0.5;exitY=0;exitDx=0;exitDy=0;" parent="_Ia43Y_EwEUsek4e2qzT-1" source="jR22t1IqPBmbhWTZ7qFY-37" target="jR22t1IqPBmbhWTZ7qFY-40" edge="1">
          <mxGeometry relative="1" as="geometry">
            <mxPoint x="650" y="925" as="sourcePoint" />
          </mxGeometry>
        </mxCell>
        <mxCell id="jR22t1IqPBmbhWTZ7qFY-39" value="" style="rounded=0;orthogonalLoop=1;jettySize=auto;html=1;endArrow=halfCircle;endFill=0;entryX=0.5;entryY=0.5;endSize=6;strokeWidth=1;sketch=0;exitX=0.5;exitY=1;exitDx=0;exitDy=0;" parent="_Ia43Y_EwEUsek4e2qzT-1" source="jR22t1IqPBmbhWTZ7qFY-19" target="jR22t1IqPBmbhWTZ7qFY-40" edge="1">
          <mxGeometry relative="1" as="geometry">
            <mxPoint x="690" y="925" as="sourcePoint" />
          </mxGeometry>
        </mxCell>
        <mxCell id="jR22t1IqPBmbhWTZ7qFY-40" value="" style="ellipse;whiteSpace=wrap;html=1;align=center;aspect=fixed;resizable=0;points=[];outlineConnect=0;sketch=0;" parent="_Ia43Y_EwEUsek4e2qzT-1" vertex="1">
          <mxGeometry x="665" y="920" width="10" height="10" as="geometry" />
        </mxCell>
        <mxCell id="jR22t1IqPBmbhWTZ7qFY-41" value="GetClasses()" style="rounded=0;orthogonalLoop=1;jettySize=auto;html=1;endArrow=none;endFill=0;sketch=0;sourcePerimeterSpacing=0;targetPerimeterSpacing=0;exitX=0;exitY=0;exitDx=0;exitDy=0;" parent="_Ia43Y_EwEUsek4e2qzT-1" source="jR22t1IqPBmbhWTZ7qFY-19" target="jR22t1IqPBmbhWTZ7qFY-43" edge="1">
          <mxGeometry relative="1" as="geometry">
            <mxPoint x="350" y="615" as="sourcePoint" />
          </mxGeometry>
        </mxCell>
        <mxCell id="jR22t1IqPBmbhWTZ7qFY-43" value="" style="ellipse;whiteSpace=wrap;html=1;align=center;aspect=fixed;resizable=0;points=[];outlineConnect=0;sketch=0;" parent="_Ia43Y_EwEUsek4e2qzT-1" vertex="1">
          <mxGeometry x="470" y="480" width="10" height="10" as="geometry" />
        </mxCell>
        <mxCell id="9J2J1UUIlkIpL8MPGctu-0" value="GetNumberOfClasses()" style="rounded=0;orthogonalLoop=1;jettySize=auto;html=1;endArrow=none;endFill=0;sketch=0;sourcePerimeterSpacing=0;targetPerimeterSpacing=0;exitX=0;exitY=0.25;exitDx=0;exitDy=0;" parent="_Ia43Y_EwEUsek4e2qzT-1" source="jR22t1IqPBmbhWTZ7qFY-19" target="9J2J1UUIlkIpL8MPGctu-2" edge="1">
          <mxGeometry relative="1" as="geometry">
            <mxPoint x="255" y="715" as="sourcePoint" />
          </mxGeometry>
        </mxCell>
        <mxCell id="9J2J1UUIlkIpL8MPGctu-2" value="" style="ellipse;whiteSpace=wrap;html=1;align=center;aspect=fixed;resizable=0;points=[];outlineConnect=0;sketch=0;" parent="_Ia43Y_EwEUsek4e2qzT-1" vertex="1">
          <mxGeometry x="420" y="710" width="10" height="10" as="geometry" />
        </mxCell>
        <mxCell id="9J2J1UUIlkIpL8MPGctu-7" value="" style="rounded=0;orthogonalLoop=1;jettySize=auto;html=1;endArrow=halfCircle;endFill=0;endSize=6;strokeWidth=1;sketch=0;exitX=0.75;exitY=1;exitDx=0;exitDy=0;" parent="_Ia43Y_EwEUsek4e2qzT-1" source="oPjlppZlMVV5ywwdtR1t-0" target="jR22t1IqPBmbhWTZ7qFY-43" edge="1">
          <mxGeometry relative="1" as="geometry">
            <mxPoint x="160" y="525" as="sourcePoint" />
            <mxPoint x="140" y="525" as="targetPoint" />
          </mxGeometry>
        </mxCell>
        <mxCell id="WfMN8Ezgc-iVj-zEi4DN-0" value="&lt;p style=&quot;margin: 0px ; margin-top: 6px ; text-align: center&quot;&gt;&lt;b&gt;&amp;lt;&amp;lt;subsystem&amp;gt;&amp;gt;&lt;br&gt;Location&lt;/b&gt;&lt;/p&gt;&lt;hr&gt;&lt;p style=&quot;margin: 0px ; margin-left: 8px&quot;&gt;&lt;br&gt;&lt;br&gt;&lt;/p&gt;" style="align=left;overflow=fill;html=1;dropTarget=0;" parent="_Ia43Y_EwEUsek4e2qzT-1" vertex="1">
          <mxGeometry x="60" y="610" width="300" height="240" as="geometry" />
        </mxCell>
        <mxCell id="WfMN8Ezgc-iVj-zEi4DN-1" value="" style="shape=component;jettyWidth=8;jettyHeight=4;html=0;" parent="WfMN8Ezgc-iVj-zEi4DN-0" vertex="1">
          <mxGeometry x="1" width="20" height="20" relative="1" as="geometry">
            <mxPoint x="-24" y="4" as="offset" />
          </mxGeometry>
        </mxCell>
        <mxCell id="WfMN8Ezgc-iVj-zEi4DN-2" value="«component»&lt;br&gt;&lt;b&gt;Locations&lt;/b&gt;" style="html=1;dropTarget=0;" parent="_Ia43Y_EwEUsek4e2qzT-1" vertex="1">
          <mxGeometry x="120" y="685" width="180" height="90" as="geometry" />
        </mxCell>
        <mxCell id="WfMN8Ezgc-iVj-zEi4DN-3" value="" style="shape=module;jettyWidth=8;jettyHeight=4;" parent="WfMN8Ezgc-iVj-zEi4DN-2" vertex="1">
          <mxGeometry x="1" width="20" height="20" relative="1" as="geometry">
            <mxPoint x="-27" y="7" as="offset" />
          </mxGeometry>
        </mxCell>
        <mxCell id="WfMN8Ezgc-iVj-zEi4DN-5" value="" style="rounded=0;orthogonalLoop=1;jettySize=auto;html=1;endArrow=halfCircle;endFill=0;endSize=6;strokeWidth=1;sketch=0;exitX=1;exitY=0;exitDx=0;exitDy=0;" parent="_Ia43Y_EwEUsek4e2qzT-1" source="WfMN8Ezgc-iVj-zEi4DN-2" target="9J2J1UUIlkIpL8MPGctu-2" edge="1">
          <mxGeometry relative="1" as="geometry">
            <mxPoint x="230" y="820" as="sourcePoint" />
            <mxPoint x="210" y="820" as="targetPoint" />
          </mxGeometry>
        </mxCell>
        <mxCell id="WfMN8Ezgc-iVj-zEi4DN-7" value="GetLocations()" style="rounded=0;orthogonalLoop=1;jettySize=auto;html=1;endArrow=none;endFill=0;sketch=0;sourcePerimeterSpacing=0;targetPerimeterSpacing=0;exitX=1;exitY=0.25;exitDx=0;exitDy=0;" parent="_Ia43Y_EwEUsek4e2qzT-1" source="WfMN8Ezgc-iVj-zEi4DN-2" target="WfMN8Ezgc-iVj-zEi4DN-9" edge="1">
          <mxGeometry relative="1" as="geometry">
            <mxPoint x="215" y="805" as="sourcePoint" />
          </mxGeometry>
        </mxCell>
        <mxCell id="WfMN8Ezgc-iVj-zEi4DN-8" value="" style="rounded=0;orthogonalLoop=1;jettySize=auto;html=1;endArrow=halfCircle;endFill=0;entryX=0.5;entryY=0.5;endSize=6;strokeWidth=1;sketch=0;exitX=0.25;exitY=0;exitDx=0;exitDy=0;" parent="_Ia43Y_EwEUsek4e2qzT-1" source="zGb_He7ZYxWKpCxa2eFC-0" target="WfMN8Ezgc-iVj-zEi4DN-9" edge="1">
          <mxGeometry relative="1" as="geometry">
            <mxPoint x="255" y="805" as="sourcePoint" />
          </mxGeometry>
        </mxCell>
        <mxCell id="WfMN8Ezgc-iVj-zEi4DN-9" value="" style="ellipse;whiteSpace=wrap;html=1;align=center;aspect=fixed;resizable=0;points=[];outlineConnect=0;sketch=0;" parent="_Ia43Y_EwEUsek4e2qzT-1" vertex="1">
          <mxGeometry x="420" y="780" width="10" height="10" as="geometry" />
        </mxCell>
        <mxCell id="WfMN8Ezgc-iVj-zEi4DN-10" value="" style="rounded=0;orthogonalLoop=1;jettySize=auto;html=1;endArrow=none;endFill=0;sketch=0;sourcePerimeterSpacing=0;targetPerimeterSpacing=0;exitX=0.5;exitY=0;exitDx=0;exitDy=0;" parent="_Ia43Y_EwEUsek4e2qzT-1" source="WfMN8Ezgc-iVj-zEi4DN-13" target="WfMN8Ezgc-iVj-zEi4DN-12" edge="1">
          <mxGeometry relative="1" as="geometry">
            <mxPoint x="170" y="895" as="sourcePoint" />
          </mxGeometry>
        </mxCell>
        <mxCell id="WfMN8Ezgc-iVj-zEi4DN-11" value="" style="rounded=0;orthogonalLoop=1;jettySize=auto;html=1;endArrow=halfCircle;endFill=0;entryX=0.5;entryY=0.5;endSize=6;strokeWidth=1;sketch=0;exitX=0.5;exitY=1;exitDx=0;exitDy=0;" parent="_Ia43Y_EwEUsek4e2qzT-1" source="WfMN8Ezgc-iVj-zEi4DN-2" target="WfMN8Ezgc-iVj-zEi4DN-12" edge="1">
          <mxGeometry relative="1" as="geometry">
            <mxPoint x="210" y="895" as="sourcePoint" />
          </mxGeometry>
        </mxCell>
        <mxCell id="WfMN8Ezgc-iVj-zEi4DN-12" value="" style="ellipse;whiteSpace=wrap;html=1;align=center;aspect=fixed;resizable=0;points=[];outlineConnect=0;sketch=0;" parent="_Ia43Y_EwEUsek4e2qzT-1" vertex="1">
          <mxGeometry x="185" y="890" width="10" height="10" as="geometry" />
        </mxCell>
        <mxCell id="WfMN8Ezgc-iVj-zEi4DN-13" value="Locations DB" style="shape=datastore;whiteSpace=wrap;html=1;" parent="_Ia43Y_EwEUsek4e2qzT-1" vertex="1">
          <mxGeometry x="150" y="940" width="80" height="80" as="geometry" />
        </mxCell>
        <mxCell id="t95QadrtdTNZ0yflhRed-0" value="" style="rounded=0;orthogonalLoop=1;jettySize=auto;html=1;endArrow=halfCircle;endFill=0;endSize=6;strokeWidth=1;sketch=0;exitX=0;exitY=1;exitDx=0;exitDy=0;" parent="_Ia43Y_EwEUsek4e2qzT-1" source="CKhQrw0Nt1Avkd2GXAus-0" target="jR22t1IqPBmbhWTZ7qFY-43" edge="1">
          <mxGeometry relative="1" as="geometry">
            <mxPoint x="700" y="520" as="sourcePoint" />
            <mxPoint x="665" y="400" as="targetPoint" />
          </mxGeometry>
        </mxCell>
        <mxCell id="5PvebL44zEmvtmBZ9y52-33" value="" style="ellipse;whiteSpace=wrap;html=1;align=center;aspect=fixed;resizable=0;points=[];outlineConnect=0;sketch=0;" parent="_Ia43Y_EwEUsek4e2qzT-1" vertex="1">
          <mxGeometry x="1030" y="365" width="10" height="10" as="geometry" />
        </mxCell>
        <mxCell id="L8bKEuKu05m7_M0BAdys-3" value="GetRegistrations()" style="rounded=0;orthogonalLoop=1;jettySize=auto;html=1;endArrow=none;endFill=0;sketch=0;sourcePerimeterSpacing=0;exitX=0.75;exitY=1;exitDx=0;exitDy=0;" parent="_Ia43Y_EwEUsek4e2qzT-1" source="5PvebL44zEmvtmBZ9y52-17" target="5PvebL44zEmvtmBZ9y52-33" edge="1">
          <mxGeometry relative="1" as="geometry">
            <mxPoint x="825" y="365" as="sourcePoint" />
            <mxPoint x="830" y="560" as="targetPoint" />
          </mxGeometry>
        </mxCell>
        <mxCell id="CKhQrw0Nt1Avkd2GXAus-0" value="«component»&lt;br&gt;&lt;b&gt;ListService&lt;/b&gt;" style="html=1;dropTarget=0;" parent="_Ia43Y_EwEUsek4e2qzT-1" vertex="1">
          <mxGeometry x="650" y="360" width="140" height="70" as="geometry" />
        </mxCell>
        <mxCell id="CKhQrw0Nt1Avkd2GXAus-1" value="" style="shape=module;jettyWidth=8;jettyHeight=4;" parent="CKhQrw0Nt1Avkd2GXAus-0" vertex="1">
          <mxGeometry x="1" width="20" height="20" relative="1" as="geometry">
            <mxPoint x="-27" y="7" as="offset" />
          </mxGeometry>
        </mxCell>
        <mxCell id="NKI-bM4Io5D5xL4mlawx-2" value="" style="rounded=0;orthogonalLoop=1;jettySize=auto;html=1;endArrow=none;endFill=0;sketch=0;sourcePerimeterSpacing=0;targetPerimeterSpacing=0;exitX=0.25;exitY=0;exitDx=0;exitDy=0;" parent="_Ia43Y_EwEUsek4e2qzT-1" source="CKhQrw0Nt1Avkd2GXAus-0" target="NKI-bM4Io5D5xL4mlawx-4" edge="1">
          <mxGeometry relative="1" as="geometry">
            <mxPoint x="730" y="345" as="sourcePoint" />
          </mxGeometry>
        </mxCell>
        <mxCell id="NKI-bM4Io5D5xL4mlawx-3" value="" style="rounded=0;orthogonalLoop=1;jettySize=auto;html=1;endArrow=halfCircle;endFill=0;entryX=0.5;entryY=0.5;endSize=6;strokeWidth=1;sketch=0;exitX=0.25;exitY=1;exitDx=0;exitDy=0;" parent="_Ia43Y_EwEUsek4e2qzT-1" source="5PvebL44zEmvtmBZ9y52-17" target="NKI-bM4Io5D5xL4mlawx-4" edge="1">
          <mxGeometry relative="1" as="geometry">
            <mxPoint x="770" y="345" as="sourcePoint" />
          </mxGeometry>
        </mxCell>
        <mxCell id="NKI-bM4Io5D5xL4mlawx-6" value="getList()" style="edgeLabel;html=1;align=center;verticalAlign=middle;resizable=0;points=[];" parent="NKI-bM4Io5D5xL4mlawx-3" vertex="1" connectable="0">
          <mxGeometry x="0.4247" y="-2" relative="1" as="geometry">
            <mxPoint x="15" as="offset" />
          </mxGeometry>
        </mxCell>
        <mxCell id="NKI-bM4Io5D5xL4mlawx-4" value="" style="ellipse;whiteSpace=wrap;html=1;align=center;aspect=fixed;resizable=0;points=[];outlineConnect=0;sketch=0;" parent="_Ia43Y_EwEUsek4e2qzT-1" vertex="1">
          <mxGeometry x="745" y="340" width="10" height="10" as="geometry" />
        </mxCell>
        <mxCell id="NKI-bM4Io5D5xL4mlawx-9" value="&lt;p style=&quot;margin: 0px ; margin-top: 6px ; text-align: center&quot;&gt;&lt;b&gt;&amp;lt;&amp;lt;subsystem&amp;gt;&amp;gt;&lt;br&gt;Logging&lt;/b&gt;&lt;/p&gt;&lt;hr&gt;&lt;p style=&quot;margin: 0px ; margin-left: 8px&quot;&gt;&lt;br&gt;&lt;br&gt;&lt;/p&gt;" style="align=left;overflow=fill;html=1;dropTarget=0;" parent="_Ia43Y_EwEUsek4e2qzT-1" vertex="1">
          <mxGeometry x="1170" y="140" width="300" height="240" as="geometry" />
        </mxCell>
        <mxCell id="NKI-bM4Io5D5xL4mlawx-10" value="" style="shape=component;jettyWidth=8;jettyHeight=4;html=0;" parent="NKI-bM4Io5D5xL4mlawx-9" vertex="1">
          <mxGeometry x="1" width="20" height="20" relative="1" as="geometry">
            <mxPoint x="-24" y="4" as="offset" />
          </mxGeometry>
        </mxCell>
        <mxCell id="NKI-bM4Io5D5xL4mlawx-11" value="«component»&lt;br&gt;&lt;b&gt;Logger&lt;/b&gt;" style="html=1;dropTarget=0;" parent="_Ia43Y_EwEUsek4e2qzT-1" vertex="1">
          <mxGeometry x="1220" y="210" width="205" height="120" as="geometry" />
        </mxCell>
        <mxCell id="NKI-bM4Io5D5xL4mlawx-12" value="" style="shape=module;jettyWidth=8;jettyHeight=4;" parent="NKI-bM4Io5D5xL4mlawx-11" vertex="1">
          <mxGeometry x="1" width="20" height="20" relative="1" as="geometry">
            <mxPoint x="-27" y="7" as="offset" />
          </mxGeometry>
        </mxCell>
        <mxCell id="NKI-bM4Io5D5xL4mlawx-13" value="" style="endArrow=none;html=1;rounded=0;strokeWidth=5;" parent="_Ia43Y_EwEUsek4e2qzT-1" edge="1">
          <mxGeometry width="50" height="50" relative="1" as="geometry">
            <mxPoint x="200" y="520" as="sourcePoint" />
            <mxPoint x="960" y="520" as="targetPoint" />
          </mxGeometry>
        </mxCell>
        <mxCell id="NKI-bM4Io5D5xL4mlawx-15" value="" style="endArrow=none;html=1;rounded=0;strokeWidth=5;entryX=0.25;entryY=1;entryDx=0;entryDy=0;exitX=0.111;exitY=-0.022;exitDx=0;exitDy=0;exitPerimeter=0;" parent="_Ia43Y_EwEUsek4e2qzT-1" source="WfMN8Ezgc-iVj-zEi4DN-2" target="C8QKbj-8ehM-xV4Xi8_m-0" edge="1">
          <mxGeometry width="50" height="50" relative="1" as="geometry">
            <mxPoint x="180" y="480" as="sourcePoint" />
            <mxPoint x="230" y="430" as="targetPoint" />
            <Array as="points">
              <mxPoint x="90" y="520" />
              <mxPoint x="199" y="520" />
            </Array>
          </mxGeometry>
        </mxCell>
        <mxCell id="NKI-bM4Io5D5xL4mlawx-17" value="" style="endArrow=none;html=1;rounded=0;strokeWidth=5;exitX=1;exitY=0;exitDx=0;exitDy=0;entryX=0.5;entryY=1;entryDx=0;entryDy=0;" parent="_Ia43Y_EwEUsek4e2qzT-1" source="jR22t1IqPBmbhWTZ7qFY-19" target="5PvebL44zEmvtmBZ9y52-17" edge="1">
          <mxGeometry width="50" height="50" relative="1" as="geometry">
            <mxPoint x="730" y="490" as="sourcePoint" />
            <mxPoint x="780" y="440" as="targetPoint" />
          </mxGeometry>
        </mxCell>
        <mxCell id="NKI-bM4Io5D5xL4mlawx-18" value="" style="endArrow=none;html=1;rounded=0;strokeWidth=5;" parent="_Ia43Y_EwEUsek4e2qzT-1" edge="1">
          <mxGeometry width="50" height="50" relative="1" as="geometry">
            <mxPoint x="960" y="520" as="sourcePoint" />
            <mxPoint x="1070" y="320" as="targetPoint" />
            <Array as="points">
              <mxPoint x="960" y="420" />
              <mxPoint x="1030" y="320" />
            </Array>
          </mxGeometry>
        </mxCell>
        <mxCell id="NKI-bM4Io5D5xL4mlawx-20" value="" style="rounded=0;orthogonalLoop=1;jettySize=auto;html=1;endArrow=none;endFill=0;sketch=0;sourcePerimeterSpacing=0;exitX=1;exitY=0.5;exitDx=0;exitDy=0;" parent="_Ia43Y_EwEUsek4e2qzT-1" edge="1">
          <mxGeometry relative="1" as="geometry">
            <mxPoint x="1170" y="320" as="sourcePoint" />
            <mxPoint x="1090" y="320" as="targetPoint" />
          </mxGeometry>
        </mxCell>
        <mxCell id="NKI-bM4Io5D5xL4mlawx-22" value="log()" style="edgeLabel;html=1;align=center;verticalAlign=middle;resizable=0;points=[];" parent="NKI-bM4Io5D5xL4mlawx-20" vertex="1" connectable="0">
          <mxGeometry x="0.275" y="-1" relative="1" as="geometry">
            <mxPoint as="offset" />
          </mxGeometry>
        </mxCell>
        <mxCell id="NKI-bM4Io5D5xL4mlawx-21" value="" style="ellipse;whiteSpace=wrap;html=1;align=center;aspect=fixed;resizable=0;points=[];outlineConnect=0;sketch=0;" parent="_Ia43Y_EwEUsek4e2qzT-1" vertex="1">
          <mxGeometry x="1080" y="315" width="10" height="10" as="geometry" />
        </mxCell>
        <mxCell id="NKI-bM4Io5D5xL4mlawx-23" value="" style="endArrow=none;html=1;rounded=0;strokeWidth=5;exitX=0.178;exitY=-0.008;exitDx=0;exitDy=0;exitPerimeter=0;" parent="_Ia43Y_EwEUsek4e2qzT-1" source="jR22t1IqPBmbhWTZ7qFY-4" edge="1">
          <mxGeometry width="50" height="50" relative="1" as="geometry">
            <mxPoint x="1112.5" y="400" as="sourcePoint" />
            <mxPoint x="1090" y="330" as="targetPoint" />
          </mxGeometry>
        </mxCell>
        <mxCell id="oPjlppZlMVV5ywwdtR1t-0" value="«component»&lt;br&gt;&lt;b&gt;CreateReviewService&lt;/b&gt;" style="html=1;dropTarget=0;" parent="_Ia43Y_EwEUsek4e2qzT-1" vertex="1">
          <mxGeometry x="240" y="305" width="140" height="70" as="geometry" />
        </mxCell>
        <mxCell id="oPjlppZlMVV5ywwdtR1t-1" value="" style="shape=module;jettyWidth=8;jettyHeight=4;" parent="oPjlppZlMVV5ywwdtR1t-0" vertex="1">
          <mxGeometry x="1" width="20" height="20" relative="1" as="geometry">
            <mxPoint x="-27" y="7" as="offset" />
          </mxGeometry>
        </mxCell>
        <mxCell id="oPjlppZlMVV5ywwdtR1t-4" style="edgeStyle=orthogonalEdgeStyle;rounded=0;orthogonalLoop=1;jettySize=auto;html=1;exitX=0;exitY=0.5;exitDx=0;exitDy=0;exitPerimeter=0;" parent="_Ia43Y_EwEUsek4e2qzT-1" source="oPjlppZlMVV5ywwdtR1t-2" edge="1">
          <mxGeometry relative="1" as="geometry">
            <mxPoint x="350" y="310" as="targetPoint" />
          </mxGeometry>
        </mxCell>
        <mxCell id="oPjlppZlMVV5ywwdtR1t-2" value="" style="shape=providedRequiredInterface;html=1;verticalLabelPosition=bottom;sketch=0;direction=west;rotation=90;" parent="_Ia43Y_EwEUsek4e2qzT-1" vertex="1">
          <mxGeometry x="340" y="275" width="20" height="20" as="geometry" />
        </mxCell>
        <mxCell id="zGb_He7ZYxWKpCxa2eFC-0" value="&lt;p style=&quot;margin: 0px ; margin-top: 6px ; text-align: center&quot;&gt;&amp;lt;&amp;lt;component&amp;gt;&amp;gt;&lt;br&gt;&lt;b&gt;ClassListService&lt;/b&gt;&lt;/p&gt;" style="align=left;overflow=fill;html=1;dropTarget=0;" parent="_Ia43Y_EwEUsek4e2qzT-1" vertex="1">
          <mxGeometry x="710" y="870" width="150" height="50" as="geometry" />
        </mxCell>
        <mxCell id="zGb_He7ZYxWKpCxa2eFC-1" value="" style="shape=component;jettyWidth=8;jettyHeight=4;html=0;" parent="zGb_He7ZYxWKpCxa2eFC-0" vertex="1">
          <mxGeometry x="1" width="20" height="20" relative="1" as="geometry">
            <mxPoint x="-24" y="4" as="offset" />
          </mxGeometry>
        </mxCell>
        <mxCell id="Mv2Wvg2jguppRp0uRuXI-0" value="PrepareClassList" style="rounded=0;orthogonalLoop=1;jettySize=auto;html=1;endArrow=none;endFill=0;sketch=0;sourcePerimeterSpacing=0;targetPerimeterSpacing=0;exitX=0.5;exitY=0;exitDx=0;exitDy=0;" parent="_Ia43Y_EwEUsek4e2qzT-1" source="zGb_He7ZYxWKpCxa2eFC-0" target="Mv2Wvg2jguppRp0uRuXI-2" edge="1">
          <mxGeometry relative="1" as="geometry">
            <mxPoint x="790" y="825" as="sourcePoint" />
          </mxGeometry>
        </mxCell>
        <mxCell id="Mv2Wvg2jguppRp0uRuXI-1" value="" style="rounded=0;orthogonalLoop=1;jettySize=auto;html=1;endArrow=halfCircle;endFill=0;entryX=0.5;entryY=0.5;endSize=6;strokeWidth=1;sketch=0;exitX=0.25;exitY=1;exitDx=0;exitDy=0;" parent="_Ia43Y_EwEUsek4e2qzT-1" source="jR22t1IqPBmbhWTZ7qFY-19" target="Mv2Wvg2jguppRp0uRuXI-2" edge="1">
          <mxGeometry relative="1" as="geometry">
            <mxPoint x="830" y="825" as="sourcePoint" />
          </mxGeometry>
        </mxCell>
        <mxCell id="Mv2Wvg2jguppRp0uRuXI-2" value="" style="ellipse;whiteSpace=wrap;html=1;align=center;aspect=fixed;resizable=0;points=[];outlineConnect=0;sketch=0;" parent="_Ia43Y_EwEUsek4e2qzT-1" vertex="1">
          <mxGeometry x="735" y="820" width="10" height="10" as="geometry" />
        </mxCell>
      </root>
    </mxGraphModel>
  </diagram>
  <diagram id="5w_fq8FkrzsSW-14dwAu" name="Domain_Model">
    <mxGraphModel dx="1422" dy="762" grid="1" gridSize="10" guides="1" tooltips="1" connect="1" arrows="1" fold="1" page="1" pageScale="1" pageWidth="850" pageHeight="1100" math="0" shadow="0">
      <root>
        <mxCell id="Gkl310AEtmsw00P1UTgz-0" />
        <mxCell id="Gkl310AEtmsw00P1UTgz-1" parent="Gkl310AEtmsw00P1UTgz-0" />
        <mxCell id="Gkl310AEtmsw00P1UTgz-2" value="Registration" style="ellipse;whiteSpace=wrap;html=1;labelPosition=center;verticalLabelPosition=top;align=center;verticalAlign=bottom;" parent="Gkl310AEtmsw00P1UTgz-1" vertex="1">
          <mxGeometry x="478" y="210" width="465" height="360" as="geometry" />
        </mxCell>
        <mxCell id="Gkl310AEtmsw00P1UTgz-3" value="User Management" style="ellipse;whiteSpace=wrap;html=1;labelPosition=center;verticalLabelPosition=top;align=center;verticalAlign=bottom;" parent="Gkl310AEtmsw00P1UTgz-1" vertex="1">
          <mxGeometry x="47.5" y="410" width="465" height="360" as="geometry" />
        </mxCell>
        <mxCell id="Gkl310AEtmsw00P1UTgz-4" value="Class Management" style="ellipse;whiteSpace=wrap;html=1;labelPosition=center;verticalLabelPosition=top;align=center;verticalAlign=bottom;" parent="Gkl310AEtmsw00P1UTgz-1" vertex="1">
          <mxGeometry x="478" y="650" width="465" height="360" as="geometry" />
        </mxCell>
        <mxCell id="Gkl310AEtmsw00P1UTgz-5" value="Reviews" style="ellipse;whiteSpace=wrap;html=1;labelPosition=center;verticalLabelPosition=top;align=center;verticalAlign=bottom;" parent="Gkl310AEtmsw00P1UTgz-1" vertex="1">
          <mxGeometry x="943" y="410" width="465" height="360" as="geometry" />
        </mxCell>
        <mxCell id="Gkl310AEtmsw00P1UTgz-6" value="Location" style="ellipse;whiteSpace=wrap;html=1;labelPosition=center;verticalLabelPosition=top;align=center;verticalAlign=bottom;" parent="Gkl310AEtmsw00P1UTgz-1" vertex="1">
          <mxGeometry x="478" y="1080" width="465" height="360" as="geometry" />
        </mxCell>
        <mxCell id="Gkl310AEtmsw00P1UTgz-25" style="edgeStyle=none;rounded=0;orthogonalLoop=1;jettySize=auto;html=1;entryX=0.5;entryY=0;entryDx=0;entryDy=0;endArrow=none;endFill=0;" parent="Gkl310AEtmsw00P1UTgz-1" source="Gkl310AEtmsw00P1UTgz-8" target="Gkl310AEtmsw00P1UTgz-11" edge="1">
          <mxGeometry relative="1" as="geometry" />
        </mxCell>
        <mxCell id="Gkl310AEtmsw00P1UTgz-54" style="edgeStyle=none;rounded=0;orthogonalLoop=1;jettySize=auto;html=1;endArrow=none;endFill=0;elbow=vertical;" parent="Gkl310AEtmsw00P1UTgz-1" source="Gkl310AEtmsw00P1UTgz-8" target="Gkl310AEtmsw00P1UTgz-15" edge="1">
          <mxGeometry relative="1" as="geometry" />
        </mxCell>
        <mxCell id="Gkl310AEtmsw00P1UTgz-55" style="edgeStyle=none;rounded=0;orthogonalLoop=1;jettySize=auto;html=1;endArrow=none;endFill=0;elbow=vertical;" parent="Gkl310AEtmsw00P1UTgz-1" source="Gkl310AEtmsw00P1UTgz-8" target="Gkl310AEtmsw00P1UTgz-2" edge="1">
          <mxGeometry relative="1" as="geometry" />
        </mxCell>
        <mxCell id="Gkl310AEtmsw00P1UTgz-8" value="Registration&lt;br&gt;(Aggregate)" style="rounded=1;whiteSpace=wrap;html=1;" parent="Gkl310AEtmsw00P1UTgz-1" vertex="1">
          <mxGeometry x="650.5" y="230" width="120" height="60" as="geometry" />
        </mxCell>
        <mxCell id="Gkl310AEtmsw00P1UTgz-56" style="edgeStyle=none;rounded=0;orthogonalLoop=1;jettySize=auto;html=1;endArrow=none;endFill=0;elbow=vertical;" parent="Gkl310AEtmsw00P1UTgz-1" source="Gkl310AEtmsw00P1UTgz-9" target="Gkl310AEtmsw00P1UTgz-11" edge="1">
          <mxGeometry relative="1" as="geometry" />
        </mxCell>
        <mxCell id="Gkl310AEtmsw00P1UTgz-9" value="Reviews&lt;br&gt;(Aggregate)" style="rounded=1;whiteSpace=wrap;html=1;" parent="Gkl310AEtmsw00P1UTgz-1" vertex="1">
          <mxGeometry x="750" y="340" width="120" height="60" as="geometry" />
        </mxCell>
        <mxCell id="Gkl310AEtmsw00P1UTgz-11" value="Class&lt;br&gt;(Entity)" style="rounded=1;whiteSpace=wrap;html=1;" parent="Gkl310AEtmsw00P1UTgz-1" vertex="1">
          <mxGeometry x="651" y="430" width="120" height="60" as="geometry" />
        </mxCell>
        <mxCell id="Gkl310AEtmsw00P1UTgz-15" value="User&lt;br&gt;(Entity)" style="rounded=1;whiteSpace=wrap;html=1;" parent="Gkl310AEtmsw00P1UTgz-1" vertex="1">
          <mxGeometry x="530.5" y="340" width="120" height="60" as="geometry" />
        </mxCell>
        <mxCell id="Gkl310AEtmsw00P1UTgz-30" style="edgeStyle=none;rounded=0;orthogonalLoop=1;jettySize=auto;html=1;endArrow=none;endFill=0;" parent="Gkl310AEtmsw00P1UTgz-1" source="Gkl310AEtmsw00P1UTgz-16" target="Gkl310AEtmsw00P1UTgz-20" edge="1">
          <mxGeometry relative="1" as="geometry" />
        </mxCell>
        <mxCell id="Gkl310AEtmsw00P1UTgz-16" value="User&lt;br&gt;(Entity)" style="rounded=1;whiteSpace=wrap;html=1;" parent="Gkl310AEtmsw00P1UTgz-1" vertex="1">
          <mxGeometry x="220" y="550" width="120" height="60" as="geometry" />
        </mxCell>
        <mxCell id="Gkl310AEtmsw00P1UTgz-18" value="" style="endArrow=none;html=1;rounded=0;exitX=1;exitY=0;exitDx=0;exitDy=0;entryX=0;entryY=1;entryDx=0;entryDy=0;" parent="Gkl310AEtmsw00P1UTgz-1" source="Gkl310AEtmsw00P1UTgz-16" target="Gkl310AEtmsw00P1UTgz-15" edge="1">
          <mxGeometry width="50" height="50" relative="1" as="geometry">
            <mxPoint x="460" y="500" as="sourcePoint" />
            <mxPoint x="510" y="450" as="targetPoint" />
          </mxGeometry>
        </mxCell>
        <mxCell id="Gkl310AEtmsw00P1UTgz-31" style="rounded=0;orthogonalLoop=1;jettySize=auto;html=1;entryX=0.5;entryY=1;entryDx=0;entryDy=0;endArrow=none;endFill=0;elbow=vertical;" parent="Gkl310AEtmsw00P1UTgz-1" source="Gkl310AEtmsw00P1UTgz-19" target="Gkl310AEtmsw00P1UTgz-11" edge="1">
          <mxGeometry relative="1" as="geometry" />
        </mxCell>
        <mxCell id="Gkl310AEtmsw00P1UTgz-36" style="rounded=0;orthogonalLoop=1;jettySize=auto;html=1;entryX=0;entryY=0.5;entryDx=0;entryDy=0;endArrow=none;endFill=0;" parent="Gkl310AEtmsw00P1UTgz-1" source="Gkl310AEtmsw00P1UTgz-19" target="Gkl310AEtmsw00P1UTgz-33" edge="1">
          <mxGeometry relative="1" as="geometry" />
        </mxCell>
        <mxCell id="Gkl310AEtmsw00P1UTgz-19" value="Class&lt;br&gt;(Entity)" style="rounded=1;whiteSpace=wrap;html=1;" parent="Gkl310AEtmsw00P1UTgz-1" vertex="1">
          <mxGeometry x="650.5" y="790" width="120" height="60" as="geometry" />
        </mxCell>
        <mxCell id="Gkl310AEtmsw00P1UTgz-28" style="edgeStyle=none;rounded=0;orthogonalLoop=1;jettySize=auto;html=1;entryX=0;entryY=0.5;entryDx=0;entryDy=0;endArrow=none;endFill=0;" parent="Gkl310AEtmsw00P1UTgz-1" source="Gkl310AEtmsw00P1UTgz-20" target="Gkl310AEtmsw00P1UTgz-19" edge="1">
          <mxGeometry relative="1" as="geometry" />
        </mxCell>
        <mxCell id="Gkl310AEtmsw00P1UTgz-20" value="User - Trainer&lt;br&gt;(Entity)" style="rounded=1;whiteSpace=wrap;html=1;" parent="Gkl310AEtmsw00P1UTgz-1" vertex="1">
          <mxGeometry x="490" y="790" width="120" height="60" as="geometry" />
        </mxCell>
        <mxCell id="Gkl310AEtmsw00P1UTgz-29" style="edgeStyle=none;rounded=0;orthogonalLoop=1;jettySize=auto;html=1;entryX=1;entryY=1;entryDx=0;entryDy=0;endArrow=none;endFill=0;" parent="Gkl310AEtmsw00P1UTgz-1" source="Gkl310AEtmsw00P1UTgz-21" target="Gkl310AEtmsw00P1UTgz-19" edge="1">
          <mxGeometry relative="1" as="geometry" />
        </mxCell>
        <mxCell id="Gkl310AEtmsw00P1UTgz-21" value="DateTime&lt;br&gt;(Entity)" style="rounded=1;whiteSpace=wrap;html=1;" parent="Gkl310AEtmsw00P1UTgz-1" vertex="1">
          <mxGeometry x="780" y="870" width="120" height="60" as="geometry" />
        </mxCell>
        <mxCell id="Gkl310AEtmsw00P1UTgz-27" style="edgeStyle=none;rounded=0;orthogonalLoop=1;jettySize=auto;html=1;entryX=0.5;entryY=0;entryDx=0;entryDy=0;endArrow=none;endFill=0;" parent="Gkl310AEtmsw00P1UTgz-1" source="Gkl310AEtmsw00P1UTgz-22" target="Gkl310AEtmsw00P1UTgz-19" edge="1">
          <mxGeometry relative="1" as="geometry" />
        </mxCell>
        <mxCell id="Gkl310AEtmsw00P1UTgz-22" value="Duration&lt;br&gt;(Value Object)" style="rounded=1;whiteSpace=wrap;html=1;" parent="Gkl310AEtmsw00P1UTgz-1" vertex="1">
          <mxGeometry x="651" y="680" width="120" height="60" as="geometry" />
        </mxCell>
        <mxCell id="Gkl310AEtmsw00P1UTgz-37" style="rounded=0;orthogonalLoop=1;jettySize=auto;html=1;entryX=1;entryY=1;entryDx=0;entryDy=0;endArrow=none;endFill=0;" parent="Gkl310AEtmsw00P1UTgz-1" source="Gkl310AEtmsw00P1UTgz-32" target="Gkl310AEtmsw00P1UTgz-9" edge="1">
          <mxGeometry relative="1" as="geometry" />
        </mxCell>
        <mxCell id="Gkl310AEtmsw00P1UTgz-32" value="Review&lt;br&gt;(Entity)" style="rounded=1;whiteSpace=wrap;html=1;" parent="Gkl310AEtmsw00P1UTgz-1" vertex="1">
          <mxGeometry x="1128" y="450" width="120" height="60" as="geometry" />
        </mxCell>
        <mxCell id="Gkl310AEtmsw00P1UTgz-40" style="edgeStyle=none;rounded=0;orthogonalLoop=1;jettySize=auto;html=1;entryX=0.5;entryY=1;entryDx=0;entryDy=0;endArrow=none;endFill=0;" parent="Gkl310AEtmsw00P1UTgz-1" source="Gkl310AEtmsw00P1UTgz-33" target="Gkl310AEtmsw00P1UTgz-32" edge="1">
          <mxGeometry relative="1" as="geometry" />
        </mxCell>
        <mxCell id="Gkl310AEtmsw00P1UTgz-33" value="Class&lt;br&gt;(Entity)" style="rounded=1;whiteSpace=wrap;html=1;" parent="Gkl310AEtmsw00P1UTgz-1" vertex="1">
          <mxGeometry x="1128" y="620" width="120" height="60" as="geometry" />
        </mxCell>
        <mxCell id="Gkl310AEtmsw00P1UTgz-39" style="edgeStyle=none;rounded=0;orthogonalLoop=1;jettySize=auto;html=1;endArrow=none;endFill=0;" parent="Gkl310AEtmsw00P1UTgz-1" source="Gkl310AEtmsw00P1UTgz-34" target="Gkl310AEtmsw00P1UTgz-32" edge="1">
          <mxGeometry relative="1" as="geometry" />
        </mxCell>
        <mxCell id="Gkl310AEtmsw00P1UTgz-34" value="User&amp;nbsp;&lt;br&gt;(Entity)" style="rounded=1;whiteSpace=wrap;html=1;" parent="Gkl310AEtmsw00P1UTgz-1" vertex="1">
          <mxGeometry x="1248" y="550" width="120" height="60" as="geometry" />
        </mxCell>
        <mxCell id="Gkl310AEtmsw00P1UTgz-38" style="edgeStyle=none;rounded=0;orthogonalLoop=1;jettySize=auto;html=1;entryX=0.25;entryY=1;entryDx=0;entryDy=0;endArrow=none;endFill=0;" parent="Gkl310AEtmsw00P1UTgz-1" source="Gkl310AEtmsw00P1UTgz-35" target="Gkl310AEtmsw00P1UTgz-32" edge="1">
          <mxGeometry relative="1" as="geometry" />
        </mxCell>
        <mxCell id="Gkl310AEtmsw00P1UTgz-35" value="Rating&lt;br&gt;(Value Object)" style="rounded=1;whiteSpace=wrap;html=1;" parent="Gkl310AEtmsw00P1UTgz-1" vertex="1">
          <mxGeometry x="1008" y="550" width="120" height="60" as="geometry" />
        </mxCell>
        <mxCell id="Gkl310AEtmsw00P1UTgz-42" style="edgeStyle=none;rounded=0;orthogonalLoop=1;jettySize=auto;html=1;entryX=0.5;entryY=1;entryDx=0;entryDy=0;endArrow=none;endFill=0;" parent="Gkl310AEtmsw00P1UTgz-1" source="Gkl310AEtmsw00P1UTgz-41" target="Gkl310AEtmsw00P1UTgz-19" edge="1">
          <mxGeometry relative="1" as="geometry" />
        </mxCell>
        <mxCell id="Gkl310AEtmsw00P1UTgz-41" value="Location&lt;br&gt;(Entity)" style="rounded=1;whiteSpace=wrap;html=1;" parent="Gkl310AEtmsw00P1UTgz-1" vertex="1">
          <mxGeometry x="651" y="940" width="120" height="60" as="geometry" />
        </mxCell>
        <mxCell id="Gkl310AEtmsw00P1UTgz-44" style="edgeStyle=none;rounded=0;orthogonalLoop=1;jettySize=auto;html=1;endArrow=none;endFill=0;" parent="Gkl310AEtmsw00P1UTgz-1" source="Gkl310AEtmsw00P1UTgz-43" target="Gkl310AEtmsw00P1UTgz-41" edge="1">
          <mxGeometry relative="1" as="geometry" />
        </mxCell>
        <mxCell id="Gkl310AEtmsw00P1UTgz-53" style="edgeStyle=none;rounded=0;orthogonalLoop=1;jettySize=auto;html=1;endArrow=none;endFill=0;elbow=vertical;exitX=-0.008;exitY=0.367;exitDx=0;exitDy=0;exitPerimeter=0;" parent="Gkl310AEtmsw00P1UTgz-1" source="Gkl310AEtmsw00P1UTgz-43" target="Gkl310AEtmsw00P1UTgz-52" edge="1">
          <mxGeometry relative="1" as="geometry" />
        </mxCell>
        <mxCell id="Gkl310AEtmsw00P1UTgz-43" value="Location&lt;br&gt;(Entity)" style="rounded=1;whiteSpace=wrap;html=1;" parent="Gkl310AEtmsw00P1UTgz-1" vertex="1">
          <mxGeometry x="651" y="1190" width="120" height="60" as="geometry" />
        </mxCell>
        <mxCell id="Gkl310AEtmsw00P1UTgz-51" style="edgeStyle=none;rounded=0;orthogonalLoop=1;jettySize=auto;html=1;entryX=1;entryY=0.5;entryDx=0;entryDy=0;endArrow=none;endFill=0;elbow=vertical;" parent="Gkl310AEtmsw00P1UTgz-1" source="Gkl310AEtmsw00P1UTgz-50" target="Gkl310AEtmsw00P1UTgz-43" edge="1">
          <mxGeometry relative="1" as="geometry" />
        </mxCell>
        <mxCell id="Gkl310AEtmsw00P1UTgz-50" value="Max Occupancy&lt;br&gt;(Value Object)" style="rounded=1;whiteSpace=wrap;html=1;" parent="Gkl310AEtmsw00P1UTgz-1" vertex="1">
          <mxGeometry x="810" y="1210" width="120" height="60" as="geometry" />
        </mxCell>
        <mxCell id="Gkl310AEtmsw00P1UTgz-52" value="Occupancy Status&lt;br&gt;(Value Object)" style="rounded=1;whiteSpace=wrap;html=1;" parent="Gkl310AEtmsw00P1UTgz-1" vertex="1">
          <mxGeometry x="490" y="1200" width="120" height="60" as="geometry" />
        </mxCell>
      </root>
    </mxGraphModel>
  </diagram>
  <diagram id="zewyWrmgqFBuCkGzZ6Qq" name="Registration">
    <mxGraphModel dx="-3678" dy="762" grid="1" gridSize="10" guides="1" tooltips="1" connect="1" arrows="1" fold="1" page="1" pageScale="1" pageWidth="850" pageHeight="1100" math="0" shadow="0">
      <root>
        <mxCell id="Qrksj41E7fYdLU6Ro5uq-0" />
        <mxCell id="Qrksj41E7fYdLU6Ro5uq-1" parent="Qrksj41E7fYdLU6Ro5uq-0" />
        <mxCell id="M1AraQ5eExsoWofUMs8l-43" value="Registration" style="html=1;labelPosition=center;verticalLabelPosition=top;align=center;verticalAlign=bottom;" parent="Qrksj41E7fYdLU6Ro5uq-1" vertex="1">
          <mxGeometry x="5843.21" y="1550" width="233.77" height="397.05" as="geometry" />
        </mxCell>
        <mxCell id="M1AraQ5eExsoWofUMs8l-44" value="Member" style="shape=umlActor;verticalLabelPosition=bottom;verticalAlign=top;html=1;" parent="Qrksj41E7fYdLU6Ro5uq-1" vertex="1">
          <mxGeometry x="5693.21" y="1720.33" width="30.491803278688533" height="56.4" as="geometry" />
        </mxCell>
        <mxCell id="M1AraQ5eExsoWofUMs8l-45" value="Register" style="ellipse;whiteSpace=wrap;html=1;strokeWidth=2;" parent="Qrksj41E7fYdLU6Ro5uq-1" vertex="1">
          <mxGeometry x="5892.838524590164" y="1637.05" width="142.29508196721315" height="65.8" as="geometry" />
        </mxCell>
        <mxCell id="M1AraQ5eExsoWofUMs8l-46" style="edgeStyle=orthogonalEdgeStyle;rounded=0;orthogonalLoop=1;jettySize=auto;html=1;entryX=0;entryY=0.5;entryDx=0;entryDy=0;" parent="Qrksj41E7fYdLU6Ro5uq-1" source="M1AraQ5eExsoWofUMs8l-44" target="M1AraQ5eExsoWofUMs8l-45" edge="1">
          <mxGeometry relative="1" as="geometry" />
        </mxCell>
        <mxCell id="M1AraQ5eExsoWofUMs8l-51" value="View Open Classes&lt;br&gt;and Some Reviews" style="ellipse;whiteSpace=wrap;html=1;strokeWidth=2;" parent="Qrksj41E7fYdLU6Ro5uq-1" vertex="1">
          <mxGeometry x="5892.838524590164" y="1797.05" width="142.29508196721315" height="65.8" as="geometry" />
        </mxCell>
        <mxCell id="M1AraQ5eExsoWofUMs8l-52" style="edgeStyle=orthogonalEdgeStyle;rounded=0;orthogonalLoop=1;jettySize=auto;html=1;entryX=0;entryY=0.5;entryDx=0;entryDy=0;" parent="Qrksj41E7fYdLU6Ro5uq-1" source="M1AraQ5eExsoWofUMs8l-44" target="M1AraQ5eExsoWofUMs8l-51" edge="1">
          <mxGeometry relative="1" as="geometry" />
        </mxCell>
        <mxCell id="M1AraQ5eExsoWofUMs8l-57" style="edgeStyle=orthogonalEdgeStyle;rounded=0;orthogonalLoop=1;jettySize=auto;html=1;exitX=0.5;exitY=1;exitDx=0;exitDy=0;" parent="Qrksj41E7fYdLU6Ro5uq-1" source="M1AraQ5eExsoWofUMs8l-43" target="M1AraQ5eExsoWofUMs8l-43" edge="1">
          <mxGeometry relative="1" as="geometry" />
        </mxCell>
        <mxCell id="dkTFNoBBTc2AR1EmCtfC-0" value="Registration" style="shape=module;align=left;spacingLeft=20;align=center;verticalAlign=top;" parent="Qrksj41E7fYdLU6Ro5uq-1" vertex="1">
          <mxGeometry x="5920" y="692.11" width="960" height="647.89" as="geometry" />
        </mxCell>
        <mxCell id="dkTFNoBBTc2AR1EmCtfC-1" value="«Component»&lt;br&gt;&lt;b&gt;Registration&lt;/b&gt;" style="html=1;dropTarget=0;labelPosition=center;verticalLabelPosition=top;align=center;verticalAlign=bottom;container=0;" parent="Qrksj41E7fYdLU6Ro5uq-1" vertex="1">
          <mxGeometry x="5960" y="736.8888888888887" width="544.6874999999999" height="460.4444444444444" as="geometry" />
        </mxCell>
        <mxCell id="dkTFNoBBTc2AR1EmCtfC-2" value="&lt;p style=&quot;margin: 0px ; margin-top: 6px ; text-align: center&quot;&gt;&lt;b&gt;&amp;lt;&amp;lt;view&amp;gt;&amp;gt;&lt;/b&gt;&lt;/p&gt;&lt;hr&gt;&lt;p style=&quot;margin: 0px ; margin-left: 8px&quot;&gt;&lt;br&gt;&lt;br&gt;&lt;/p&gt;" style="align=left;overflow=fill;html=1;dropTarget=0;" parent="Qrksj41E7fYdLU6Ro5uq-1" vertex="1">
          <mxGeometry x="6236.666666666666" y="1024.6666666666665" width="242.08333333333331" height="106.88888888888889" as="geometry" />
        </mxCell>
        <mxCell id="dkTFNoBBTc2AR1EmCtfC-3" value="" style="shape=component;jettyWidth=8;jettyHeight=4;html=0;" parent="dkTFNoBBTc2AR1EmCtfC-2" vertex="1">
          <mxGeometry x="1" width="20" height="20" relative="1" as="geometry">
            <mxPoint x="-24" y="4" as="offset" />
          </mxGeometry>
        </mxCell>
        <mxCell id="dkTFNoBBTc2AR1EmCtfC-4" value="&lt;p style=&quot;margin: 0px ; margin-top: 6px ; text-align: center&quot;&gt;&lt;b&gt;&amp;lt;&amp;lt;controller&amp;gt;&amp;gt;&lt;/b&gt;&lt;/p&gt;&lt;hr&gt;&lt;p style=&quot;margin: 0px ; margin-left: 8px&quot;&gt;&lt;br&gt;&lt;br&gt;&lt;/p&gt;" style="align=left;overflow=fill;html=1;dropTarget=0;" parent="Qrksj41E7fYdLU6Ro5uq-1" vertex="1">
          <mxGeometry x="5985.9375" y="802.6666666666665" width="492.81249999999994" height="106.88888888888889" as="geometry" />
        </mxCell>
        <mxCell id="dkTFNoBBTc2AR1EmCtfC-5" value="" style="shape=component;jettyWidth=8;jettyHeight=4;html=0;" parent="dkTFNoBBTc2AR1EmCtfC-4" vertex="1">
          <mxGeometry x="1" width="20" height="20" relative="1" as="geometry">
            <mxPoint x="-24" y="4" as="offset" />
          </mxGeometry>
        </mxCell>
        <mxCell id="dkTFNoBBTc2AR1EmCtfC-6" value="&lt;p style=&quot;margin: 0px ; margin-top: 6px ; text-align: center&quot;&gt;&lt;b&gt;&amp;lt;&amp;lt;model&amp;gt;&amp;gt;&lt;/b&gt;&lt;/p&gt;&lt;hr&gt;&lt;p style=&quot;margin: 0px ; margin-left: 8px&quot;&gt;&lt;br&gt;&lt;br&gt;&lt;/p&gt;" style="align=left;overflow=fill;html=1;dropTarget=0;" parent="Qrksj41E7fYdLU6Ro5uq-1" vertex="1">
          <mxGeometry x="5985.9375" y="1024.6666666666665" width="242.08333333333331" height="106.88888888888889" as="geometry" />
        </mxCell>
        <mxCell id="dkTFNoBBTc2AR1EmCtfC-7" value="" style="shape=component;jettyWidth=8;jettyHeight=4;html=0;" parent="dkTFNoBBTc2AR1EmCtfC-6" vertex="1">
          <mxGeometry x="1" width="20" height="20" relative="1" as="geometry">
            <mxPoint x="-24" y="4" as="offset" />
          </mxGeometry>
        </mxCell>
        <mxCell id="dkTFNoBBTc2AR1EmCtfC-8" value="&lt;p style=&quot;margin: 0px ; margin-top: 6px ; text-align: center&quot;&gt;&lt;b&gt;RegistrationController&lt;/b&gt;&lt;/p&gt;" style="align=left;overflow=fill;html=1;dropTarget=0;" parent="Qrksj41E7fYdLU6Ro5uq-1" vertex="1">
          <mxGeometry x="6003.229166666666" y="843.7777777777778" width="216.14583333333334" height="49.33333333333333" as="geometry" />
        </mxCell>
        <mxCell id="dkTFNoBBTc2AR1EmCtfC-9" value="&lt;p style=&quot;margin: 0px ; margin-top: 6px ; text-align: center&quot;&gt;&lt;b&gt;RegistrationModel&lt;/b&gt;&lt;/p&gt;" style="align=left;overflow=fill;html=1;dropTarget=0;" parent="Qrksj41E7fYdLU6Ro5uq-1" vertex="1">
          <mxGeometry x="5998.90625" y="1065.7777777777776" width="216.14583333333334" height="49.33333333333333" as="geometry" />
        </mxCell>
        <mxCell id="dkTFNoBBTc2AR1EmCtfC-10" value="" style="rounded=0;orthogonalLoop=1;jettySize=auto;html=1;endArrow=none;endFill=0;sketch=0;sourcePerimeterSpacing=0;targetPerimeterSpacing=0;fontSize=24;exitX=0.5;exitY=0;exitDx=0;exitDy=0;" parent="Qrksj41E7fYdLU6Ro5uq-1" source="dkTFNoBBTc2AR1EmCtfC-8" target="dkTFNoBBTc2AR1EmCtfC-12" edge="1">
          <mxGeometry relative="1" as="geometry">
            <mxPoint x="6066.34375" y="687.5555555555555" as="sourcePoint" />
          </mxGeometry>
        </mxCell>
        <mxCell id="dkTFNoBBTc2AR1EmCtfC-11" value="&lt;font style=&quot;font-size: 12px&quot;&gt;getRegistrations()&lt;/font&gt;" style="edgeLabel;html=1;align=center;verticalAlign=middle;resizable=0;points=[];fontSize=24;" parent="dkTFNoBBTc2AR1EmCtfC-10" vertex="1" connectable="0">
          <mxGeometry x="0.64" y="1" relative="1" as="geometry">
            <mxPoint as="offset" />
          </mxGeometry>
        </mxCell>
        <mxCell id="dkTFNoBBTc2AR1EmCtfC-12" value="" style="ellipse;whiteSpace=wrap;html=1;align=center;aspect=fixed;resizable=0;points=[];outlineConnect=0;sketch=0;fontSize=24;strokeColor=default;strokeWidth=2;" parent="Qrksj41E7fYdLU6Ro5uq-1" vertex="1">
          <mxGeometry x="6106.979166666666" y="630" width="10" height="10" as="geometry" />
        </mxCell>
        <mxCell id="dkTFNoBBTc2AR1EmCtfC-13" value="" style="rounded=0;orthogonalLoop=1;jettySize=auto;html=1;endArrow=none;endFill=0;sketch=0;sourcePerimeterSpacing=0;targetPerimeterSpacing=0;fontSize=12;exitX=0.25;exitY=1;exitDx=0;exitDy=0;" parent="Qrksj41E7fYdLU6Ro5uq-1" source="dkTFNoBBTc2AR1EmCtfC-8" target="dkTFNoBBTc2AR1EmCtfC-16" edge="1">
          <mxGeometry relative="1" as="geometry">
            <mxPoint x="5834.635416666666" y="991.7777777777778" as="sourcePoint" />
          </mxGeometry>
        </mxCell>
        <mxCell id="dkTFNoBBTc2AR1EmCtfC-14" value="" style="rounded=0;orthogonalLoop=1;jettySize=auto;html=1;endArrow=halfCircle;endFill=0;endSize=6;strokeWidth=1;sketch=0;fontSize=12;exitX=0.25;exitY=0;exitDx=0;exitDy=0;" parent="Qrksj41E7fYdLU6Ro5uq-1" source="dkTFNoBBTc2AR1EmCtfC-9" target="dkTFNoBBTc2AR1EmCtfC-16" edge="1">
          <mxGeometry relative="1" as="geometry">
            <mxPoint x="6020.520833333333" y="1065.7777777777776" as="sourcePoint" />
          </mxGeometry>
        </mxCell>
        <mxCell id="dkTFNoBBTc2AR1EmCtfC-15" value="createRegistration()" style="edgeLabel;html=1;align=center;verticalAlign=middle;resizable=0;points=[];fontSize=12;" parent="dkTFNoBBTc2AR1EmCtfC-14" vertex="1" connectable="0">
          <mxGeometry x="0.5407" relative="1" as="geometry">
            <mxPoint x="-1" y="-1" as="offset" />
          </mxGeometry>
        </mxCell>
        <mxCell id="dkTFNoBBTc2AR1EmCtfC-16" value="" style="ellipse;whiteSpace=wrap;html=1;align=center;aspect=fixed;resizable=0;points=[];outlineConnect=0;sketch=0;fontSize=12;strokeColor=default;strokeWidth=2;" parent="Qrksj41E7fYdLU6Ro5uq-1" vertex="1">
          <mxGeometry x="6045.727916666667" y="942.4466666666667" width="10" height="10" as="geometry" />
        </mxCell>
        <mxCell id="dkTFNoBBTc2AR1EmCtfC-17" value="" style="rounded=0;orthogonalLoop=1;jettySize=auto;html=1;endArrow=none;endFill=0;sketch=0;sourcePerimeterSpacing=0;targetPerimeterSpacing=0;fontSize=12;exitX=0.876;exitY=1.017;exitDx=0;exitDy=0;exitPerimeter=0;" parent="Qrksj41E7fYdLU6Ro5uq-1" source="dkTFNoBBTc2AR1EmCtfC-8" target="dkTFNoBBTc2AR1EmCtfC-20" edge="1">
          <mxGeometry relative="1" as="geometry">
            <mxPoint x="5825.989583333333" y="1197.3333333333335" as="sourcePoint" />
          </mxGeometry>
        </mxCell>
        <mxCell id="dkTFNoBBTc2AR1EmCtfC-18" value="" style="rounded=0;orthogonalLoop=1;jettySize=auto;html=1;endArrow=halfCircle;endFill=0;entryX=0.5;entryY=0.5;endSize=6;strokeWidth=1;sketch=0;fontSize=12;exitX=0.892;exitY=-0.033;exitDx=0;exitDy=0;exitPerimeter=0;" parent="Qrksj41E7fYdLU6Ro5uq-1" source="dkTFNoBBTc2AR1EmCtfC-9" target="dkTFNoBBTc2AR1EmCtfC-20" edge="1">
          <mxGeometry relative="1" as="geometry">
            <mxPoint x="5825.989583333333" y="1312.4444444444443" as="sourcePoint" />
          </mxGeometry>
        </mxCell>
        <mxCell id="dkTFNoBBTc2AR1EmCtfC-19" value="getRegs()" style="edgeLabel;html=1;align=center;verticalAlign=middle;resizable=0;points=[];fontSize=12;" parent="dkTFNoBBTc2AR1EmCtfC-18" vertex="1" connectable="0">
          <mxGeometry x="0.1467" y="1" relative="1" as="geometry">
            <mxPoint x="-6" y="-19" as="offset" />
          </mxGeometry>
        </mxCell>
        <mxCell id="dkTFNoBBTc2AR1EmCtfC-20" value="" style="ellipse;whiteSpace=wrap;html=1;align=center;aspect=fixed;resizable=0;points=[];outlineConnect=0;sketch=0;fontSize=12;strokeColor=default;strokeWidth=2;" parent="Qrksj41E7fYdLU6Ro5uq-1" vertex="1">
          <mxGeometry x="6189.114583333333" y="942.4444444444443" width="10" height="10" as="geometry" />
        </mxCell>
        <mxCell id="dkTFNoBBTc2AR1EmCtfC-21" value="" style="rounded=0;orthogonalLoop=1;jettySize=auto;html=1;endArrow=none;endFill=0;sketch=0;sourcePerimeterSpacing=0;targetPerimeterSpacing=0;fontSize=12;exitX=0.5;exitY=0;exitDx=0;exitDy=0;" parent="Qrksj41E7fYdLU6Ro5uq-1" source="dkTFNoBBTc2AR1EmCtfC-24" target="dkTFNoBBTc2AR1EmCtfC-23" edge="1">
          <mxGeometry relative="1" as="geometry">
            <mxPoint x="5938.719166666666" y="1310.0011111111116" as="sourcePoint" />
          </mxGeometry>
        </mxCell>
        <mxCell id="dkTFNoBBTc2AR1EmCtfC-22" value="" style="rounded=0;orthogonalLoop=1;jettySize=auto;html=1;endArrow=halfCircle;endFill=0;entryX=0.5;entryY=0.5;endSize=6;strokeWidth=1;sketch=0;fontSize=12;exitX=0.5;exitY=1;exitDx=0;exitDy=0;" parent="Qrksj41E7fYdLU6Ro5uq-1" source="dkTFNoBBTc2AR1EmCtfC-9" target="dkTFNoBBTc2AR1EmCtfC-23" edge="1">
          <mxGeometry relative="1" as="geometry">
            <mxPoint x="5877.864583333333" y="1308.3333333333335" as="sourcePoint" />
          </mxGeometry>
        </mxCell>
        <mxCell id="dkTFNoBBTc2AR1EmCtfC-23" value="" style="ellipse;whiteSpace=wrap;html=1;align=center;aspect=fixed;resizable=0;points=[];outlineConnect=0;sketch=0;fontSize=12;strokeColor=default;strokeWidth=2;" parent="Qrksj41E7fYdLU6Ro5uq-1" vertex="1">
          <mxGeometry x="6102.65625" y="1213.7777777777778" width="10" height="10" as="geometry" />
        </mxCell>
        <mxCell id="dkTFNoBBTc2AR1EmCtfC-24" value="DB" style="shape=datastore;whiteSpace=wrap;html=1;" parent="Qrksj41E7fYdLU6Ro5uq-1" vertex="1">
          <mxGeometry x="6076.979166666666" y="1270" width="60" height="60" as="geometry" />
        </mxCell>
        <mxCell id="dkTFNoBBTc2AR1EmCtfC-26" value="" style="rounded=0;orthogonalLoop=1;jettySize=auto;html=1;endArrow=none;endFill=0;sketch=0;sourcePerimeterSpacing=0;targetPerimeterSpacing=0;exitX=-0.018;exitY=0.417;exitDx=0;exitDy=0;exitPerimeter=0;" parent="Qrksj41E7fYdLU6Ro5uq-1" source="dkTFNoBBTc2AR1EmCtfC-50" target="dkTFNoBBTc2AR1EmCtfC-29" edge="1">
          <mxGeometry relative="1" as="geometry">
            <mxPoint x="6440" y="969" as="sourcePoint" />
          </mxGeometry>
        </mxCell>
        <mxCell id="dkTFNoBBTc2AR1EmCtfC-27" value="getOpenClasses()" style="edgeLabel;html=1;align=center;verticalAlign=middle;resizable=0;points=[];" parent="dkTFNoBBTc2AR1EmCtfC-26" vertex="1" connectable="0">
          <mxGeometry x="-0.3038" y="-4" relative="1" as="geometry">
            <mxPoint x="-23" y="5" as="offset" />
          </mxGeometry>
        </mxCell>
        <mxCell id="dkTFNoBBTc2AR1EmCtfC-28" value="" style="rounded=0;orthogonalLoop=1;jettySize=auto;html=1;endArrow=halfCircle;endFill=0;entryX=0.5;entryY=0.5;endSize=6;strokeWidth=1;sketch=0;exitX=1;exitY=0.5;exitDx=0;exitDy=0;" parent="Qrksj41E7fYdLU6Ro5uq-1" source="dkTFNoBBTc2AR1EmCtfC-8" target="dkTFNoBBTc2AR1EmCtfC-29" edge="1">
          <mxGeometry relative="1" as="geometry">
            <mxPoint x="6411.748541666666" y="1065.78" as="sourcePoint" />
          </mxGeometry>
        </mxCell>
        <mxCell id="dkTFNoBBTc2AR1EmCtfC-29" value="" style="ellipse;whiteSpace=wrap;html=1;align=center;aspect=fixed;resizable=0;points=[];outlineConnect=0;sketch=0;" parent="Qrksj41E7fYdLU6Ro5uq-1" vertex="1">
          <mxGeometry x="6455" y="964" width="10" height="10" as="geometry" />
        </mxCell>
        <mxCell id="dkTFNoBBTc2AR1EmCtfC-30" value="RegistrationController" style="swimlane;fontStyle=0;childLayout=stackLayout;horizontal=1;startSize=30;horizontalStack=0;resizeParent=1;resizeParentMax=0;resizeLast=0;collapsible=1;marginBottom=0;fontSize=12;strokeColor=default;strokeWidth=2;" parent="Qrksj41E7fYdLU6Ro5uq-1" vertex="1">
          <mxGeometry x="6270" y="1558.53" width="260" height="90" as="geometry" />
        </mxCell>
        <mxCell id="dkTFNoBBTc2AR1EmCtfC-31" value="+getRegistrations(int uID): int" style="text;strokeColor=none;fillColor=none;align=left;verticalAlign=middle;spacingLeft=4;spacingRight=4;overflow=hidden;points=[[0,0.5],[1,0.5]];portConstraint=eastwest;rotatable=0;fontSize=12;" parent="dkTFNoBBTc2AR1EmCtfC-30" vertex="1">
          <mxGeometry y="30" width="260" height="30" as="geometry" />
        </mxCell>
        <mxCell id="dkTFNoBBTc2AR1EmCtfC-32" value="+createRegistration(int mID, int cID): boolean" style="text;strokeColor=none;fillColor=none;align=left;verticalAlign=middle;spacingLeft=4;spacingRight=4;overflow=hidden;points=[[0,0.5],[1,0.5]];portConstraint=eastwest;rotatable=0;fontSize=12;" parent="dkTFNoBBTc2AR1EmCtfC-30" vertex="1">
          <mxGeometry y="60" width="260" height="30" as="geometry" />
        </mxCell>
        <mxCell id="dkTFNoBBTc2AR1EmCtfC-33" value="" style="endArrow=none;html=1;rounded=0;fontSize=12;exitX=0;exitY=0;exitDx=0;exitDy=0;exitPerimeter=0;entryX=1.004;entryY=-0.033;entryDx=0;entryDy=0;entryPerimeter=0;" parent="dkTFNoBBTc2AR1EmCtfC-30" source="dkTFNoBBTc2AR1EmCtfC-31" target="dkTFNoBBTc2AR1EmCtfC-31" edge="1">
          <mxGeometry width="50" height="50" relative="1" as="geometry">
            <mxPoint x="160" y="130" as="sourcePoint" />
            <mxPoint x="210" y="80" as="targetPoint" />
          </mxGeometry>
        </mxCell>
        <mxCell id="dkTFNoBBTc2AR1EmCtfC-34" value="ListServiceController" style="swimlane;fontStyle=0;childLayout=stackLayout;horizontal=1;startSize=30;horizontalStack=0;resizeParent=1;resizeParentMax=0;resizeLast=0;collapsible=1;marginBottom=0;fontSize=12;strokeColor=default;strokeWidth=2;" parent="Qrksj41E7fYdLU6Ro5uq-1" vertex="1">
          <mxGeometry x="6550" y="1558.53" width="230" height="60" as="geometry" />
        </mxCell>
        <mxCell id="dkTFNoBBTc2AR1EmCtfC-35" value="+getOpenClasses(): ClassAndReview[]" style="text;strokeColor=none;fillColor=none;align=left;verticalAlign=middle;spacingLeft=4;spacingRight=4;overflow=hidden;points=[[0,0.5],[1,0.5]];portConstraint=eastwest;rotatable=0;fontSize=12;fontStyle=4" parent="dkTFNoBBTc2AR1EmCtfC-34" vertex="1">
          <mxGeometry y="30" width="230" height="30" as="geometry" />
        </mxCell>
        <mxCell id="dkTFNoBBTc2AR1EmCtfC-36" value="RegistrationModel" style="swimlane;fontStyle=0;childLayout=stackLayout;horizontal=1;startSize=30;horizontalStack=0;resizeParent=1;resizeParentMax=0;resizeLast=0;collapsible=1;marginBottom=0;fontSize=12;strokeColor=default;strokeWidth=2;" parent="Qrksj41E7fYdLU6Ro5uq-1" vertex="1">
          <mxGeometry x="6260" y="1728.53" width="260" height="210" as="geometry">
            <mxRectangle x="2790" y="1330" width="130" height="30" as="alternateBounds" />
          </mxGeometry>
        </mxCell>
        <mxCell id="dkTFNoBBTc2AR1EmCtfC-37" value="-mID: int" style="text;strokeColor=none;fillColor=none;align=left;verticalAlign=middle;spacingLeft=4;spacingRight=4;overflow=hidden;points=[[0,0.5],[1,0.5]];portConstraint=eastwest;rotatable=0;fontSize=12;" parent="dkTFNoBBTc2AR1EmCtfC-36" vertex="1">
          <mxGeometry y="30" width="260" height="30" as="geometry" />
        </mxCell>
        <mxCell id="dkTFNoBBTc2AR1EmCtfC-38" value="-cID: int" style="text;strokeColor=none;fillColor=none;align=left;verticalAlign=middle;spacingLeft=4;spacingRight=4;overflow=hidden;points=[[0,0.5],[1,0.5]];portConstraint=eastwest;rotatable=0;fontSize=12;" parent="dkTFNoBBTc2AR1EmCtfC-36" vertex="1">
          <mxGeometry y="60" width="260" height="30" as="geometry" />
        </mxCell>
        <mxCell id="dkTFNoBBTc2AR1EmCtfC-39" value="+save(): boolean" style="text;strokeColor=none;fillColor=none;align=left;verticalAlign=middle;spacingLeft=4;spacingRight=4;overflow=hidden;points=[[0,0.5],[1,0.5]];portConstraint=eastwest;rotatable=0;fontSize=12;" parent="dkTFNoBBTc2AR1EmCtfC-36" vertex="1">
          <mxGeometry y="90" width="260" height="30" as="geometry" />
        </mxCell>
        <mxCell id="dkTFNoBBTc2AR1EmCtfC-40" value="" style="endArrow=none;html=1;rounded=0;exitX=0.015;exitY=-0.133;exitDx=0;exitDy=0;exitPerimeter=0;entryX=1.008;entryY=-0.1;entryDx=0;entryDy=0;entryPerimeter=0;" parent="dkTFNoBBTc2AR1EmCtfC-36" source="dkTFNoBBTc2AR1EmCtfC-39" target="dkTFNoBBTc2AR1EmCtfC-39" edge="1">
          <mxGeometry relative="1" as="geometry">
            <mxPoint x="20" y="50" as="sourcePoint" />
            <mxPoint x="180" y="50" as="targetPoint" />
            <Array as="points">
              <mxPoint x="170" y="87" />
            </Array>
          </mxGeometry>
        </mxCell>
        <mxCell id="dkTFNoBBTc2AR1EmCtfC-41" value="&lt;span style=&quot;color: rgb(0 , 0 , 0) ; font-family: &amp;#34;helvetica&amp;#34; ; font-size: 12px ; font-style: normal ; font-weight: 400 ; letter-spacing: normal ; text-align: left ; text-indent: 0px ; text-transform: none ; word-spacing: 0px ; background-color: rgb(248 , 249 , 250) ; display: inline ; float: none&quot;&gt;+getCID(): int&lt;/span&gt;" style="text;whiteSpace=wrap;html=1;" parent="dkTFNoBBTc2AR1EmCtfC-36" vertex="1">
          <mxGeometry y="120" width="260" height="30" as="geometry" />
        </mxCell>
        <mxCell id="dkTFNoBBTc2AR1EmCtfC-42" value="&lt;font face=&quot;helvetica&quot;&gt;+getMID(): int&lt;/font&gt;" style="text;whiteSpace=wrap;html=1;" parent="dkTFNoBBTc2AR1EmCtfC-36" vertex="1">
          <mxGeometry y="150" width="260" height="30" as="geometry" />
        </mxCell>
        <mxCell id="dkTFNoBBTc2AR1EmCtfC-43" value="+getRegs(int uID): int" style="text;strokeColor=none;fillColor=none;align=left;verticalAlign=middle;spacingLeft=4;spacingRight=4;overflow=hidden;points=[[0,0.5],[1,0.5]];portConstraint=eastwest;rotatable=0;fontSize=12;fontStyle=4" parent="dkTFNoBBTc2AR1EmCtfC-36" vertex="1">
          <mxGeometry y="180" width="260" height="30" as="geometry" />
        </mxCell>
        <mxCell id="dkTFNoBBTc2AR1EmCtfC-44" style="edgeStyle=orthogonalEdgeStyle;rounded=0;orthogonalLoop=1;jettySize=auto;html=1;entryX=0;entryY=0.5;entryDx=0;entryDy=0;fontSize=12;strokeColor=none;endArrow=none;endFill=0;" parent="Qrksj41E7fYdLU6Ro5uq-1" source="dkTFNoBBTc2AR1EmCtfC-31" edge="1">
          <mxGeometry relative="1" as="geometry">
            <mxPoint x="6590" y="1633.53" as="targetPoint" />
          </mxGeometry>
        </mxCell>
        <mxCell id="dkTFNoBBTc2AR1EmCtfC-45" value="" style="endArrow=none;html=1;rounded=0;fontSize=12;exitX=0.5;exitY=0;exitDx=0;exitDy=0;entryX=0.423;entryY=1.096;entryDx=0;entryDy=0;entryPerimeter=0;" parent="Qrksj41E7fYdLU6Ro5uq-1" source="dkTFNoBBTc2AR1EmCtfC-36" target="dkTFNoBBTc2AR1EmCtfC-32" edge="1">
          <mxGeometry width="50" height="50" relative="1" as="geometry">
            <mxPoint x="5710" y="98.53" as="sourcePoint" />
            <mxPoint x="6400" y="1678.53" as="targetPoint" />
          </mxGeometry>
        </mxCell>
        <mxCell id="dkTFNoBBTc2AR1EmCtfC-46" value="List" style="swimlane;fontStyle=0;childLayout=stackLayout;horizontal=1;startSize=30;horizontalStack=0;resizeParent=1;resizeParentMax=0;resizeLast=0;collapsible=1;marginBottom=0;fontSize=12;strokeColor=default;strokeWidth=2;" parent="Qrksj41E7fYdLU6Ro5uq-1" vertex="1">
          <mxGeometry x="6615" y="1728.53" width="180" height="60" as="geometry" />
        </mxCell>
        <mxCell id="dkTFNoBBTc2AR1EmCtfC-47" value="+renderOpenClasses(): String" style="text;strokeColor=none;fillColor=none;align=left;verticalAlign=middle;spacingLeft=4;spacingRight=4;overflow=hidden;points=[[0,0.5],[1,0.5]];portConstraint=eastwest;rotatable=0;fontSize=12;fontStyle=4" parent="dkTFNoBBTc2AR1EmCtfC-46" vertex="1">
          <mxGeometry y="30" width="180" height="30" as="geometry" />
        </mxCell>
        <mxCell id="dkTFNoBBTc2AR1EmCtfC-48" value="" style="endArrow=none;html=1;rounded=0;entryX=0.5;entryY=0;entryDx=0;entryDy=0;exitX=0.528;exitY=1.033;exitDx=0;exitDy=0;exitPerimeter=0;" parent="Qrksj41E7fYdLU6Ro5uq-1" source="dkTFNoBBTc2AR1EmCtfC-35" target="dkTFNoBBTc2AR1EmCtfC-46" edge="1">
          <mxGeometry relative="1" as="geometry">
            <mxPoint x="6680" y="1648.53" as="sourcePoint" />
            <mxPoint x="6590" y="1718.53" as="targetPoint" />
          </mxGeometry>
        </mxCell>
        <mxCell id="dkTFNoBBTc2AR1EmCtfC-49" value="«Component»&lt;br&gt;&lt;b&gt;ListService&lt;/b&gt;" style="html=1;dropTarget=0;labelPosition=center;verticalLabelPosition=top;align=center;verticalAlign=bottom;container=0;" parent="Qrksj41E7fYdLU6Ro5uq-1" vertex="1">
          <mxGeometry x="6560" y="920" width="290" height="280" as="geometry" />
        </mxCell>
        <mxCell id="dkTFNoBBTc2AR1EmCtfC-50" value="&lt;p style=&quot;margin: 0px ; margin-top: 6px ; text-align: center&quot;&gt;&lt;b&gt;&amp;lt;&amp;lt;controller&amp;gt;&amp;gt;&lt;/b&gt;&lt;/p&gt;&lt;hr&gt;&lt;p style=&quot;margin: 0px ; margin-left: 8px&quot;&gt;&lt;br&gt;&lt;br&gt;&lt;/p&gt;" style="align=left;overflow=fill;html=1;dropTarget=0;" parent="Qrksj41E7fYdLU6Ro5uq-1" vertex="1">
          <mxGeometry x="6565" y="942.44" width="280" height="106.89" as="geometry" />
        </mxCell>
        <mxCell id="dkTFNoBBTc2AR1EmCtfC-51" value="" style="shape=component;jettyWidth=8;jettyHeight=4;html=0;" parent="dkTFNoBBTc2AR1EmCtfC-50" vertex="1">
          <mxGeometry x="1" width="20" height="20" relative="1" as="geometry">
            <mxPoint x="-24" y="4" as="offset" />
          </mxGeometry>
        </mxCell>
        <mxCell id="dkTFNoBBTc2AR1EmCtfC-52" value="&lt;p style=&quot;margin: 0px ; margin-top: 6px ; text-align: center&quot;&gt;&lt;b&gt;ListServiceController&lt;/b&gt;&lt;/p&gt;" style="align=left;overflow=fill;html=1;dropTarget=0;" parent="Qrksj41E7fYdLU6Ro5uq-1" vertex="1">
          <mxGeometry x="6597" y="980" width="216.14583333333334" height="49.33333333333333" as="geometry" />
        </mxCell>
        <mxCell id="dkTFNoBBTc2AR1EmCtfC-53" value="&lt;p style=&quot;margin: 0px ; margin-top: 6px ; text-align: center&quot;&gt;&lt;b&gt;&amp;lt;&amp;lt;Service&amp;gt;&amp;gt;&lt;/b&gt;&lt;/p&gt;&lt;hr&gt;&lt;p style=&quot;margin: 0px ; margin-left: 8px&quot;&gt;&lt;br&gt;&lt;br&gt;&lt;/p&gt;" style="align=left;overflow=fill;html=1;dropTarget=0;" parent="Qrksj41E7fYdLU6Ro5uq-1" vertex="1">
          <mxGeometry x="6565.07" y="1086.56" width="280" height="106.89" as="geometry" />
        </mxCell>
        <mxCell id="dkTFNoBBTc2AR1EmCtfC-54" value="" style="shape=component;jettyWidth=8;jettyHeight=4;html=0;" parent="dkTFNoBBTc2AR1EmCtfC-53" vertex="1">
          <mxGeometry x="1" width="20" height="20" relative="1" as="geometry">
            <mxPoint x="-24" y="4" as="offset" />
          </mxGeometry>
        </mxCell>
        <mxCell id="dkTFNoBBTc2AR1EmCtfC-55" value="&lt;p style=&quot;margin: 0px ; margin-top: 6px ; text-align: center&quot;&gt;&lt;b&gt;ListService&lt;/b&gt;&lt;/p&gt;" style="align=left;overflow=fill;html=1;dropTarget=0;" parent="Qrksj41E7fYdLU6Ro5uq-1" vertex="1">
          <mxGeometry x="6597" y="1130.01" width="216.14583333333334" height="49.33333333333333" as="geometry" />
        </mxCell>
        <mxCell id="dkTFNoBBTc2AR1EmCtfC-56" value="" style="rounded=0;orthogonalLoop=1;jettySize=auto;html=1;endArrow=halfCircle;endFill=0;endSize=6;strokeWidth=1;sketch=0;exitX=1;exitY=0.75;exitDx=0;exitDy=0;" parent="Qrksj41E7fYdLU6Ro5uq-1" source="dkTFNoBBTc2AR1EmCtfC-55" edge="1">
          <mxGeometry relative="1" as="geometry">
            <mxPoint x="6385.729166666666" y="665" as="sourcePoint" />
            <mxPoint x="6990" y="1167" as="targetPoint" />
          </mxGeometry>
        </mxCell>
        <mxCell id="dkTFNoBBTc2AR1EmCtfC-57" value="getClasses()" style="edgeLabel;html=1;align=center;verticalAlign=middle;resizable=0;points=[];" parent="dkTFNoBBTc2AR1EmCtfC-56" vertex="1" connectable="0">
          <mxGeometry x="0.5413" y="4" relative="1" as="geometry">
            <mxPoint x="-19" y="-3" as="offset" />
          </mxGeometry>
        </mxCell>
        <mxCell id="dkTFNoBBTc2AR1EmCtfC-58" value="" style="rounded=0;orthogonalLoop=1;jettySize=auto;html=1;endArrow=halfCircle;endFill=0;endSize=6;strokeWidth=1;sketch=0;fontSize=12;exitX=1;exitY=0.25;exitDx=0;exitDy=0;" parent="Qrksj41E7fYdLU6Ro5uq-1" source="dkTFNoBBTc2AR1EmCtfC-55" edge="1">
          <mxGeometry relative="1" as="geometry">
            <mxPoint x="6617.083333333333" y="864.3333333333333" as="sourcePoint" />
            <mxPoint x="6990" y="1140" as="targetPoint" />
          </mxGeometry>
        </mxCell>
        <mxCell id="dkTFNoBBTc2AR1EmCtfC-59" value="listReviews()" style="edgeLabel;html=1;align=center;verticalAlign=middle;resizable=0;points=[];fontSize=12;" parent="dkTFNoBBTc2AR1EmCtfC-58" vertex="1" connectable="0">
          <mxGeometry x="0.0741" y="1" relative="1" as="geometry">
            <mxPoint x="27" y="1" as="offset" />
          </mxGeometry>
        </mxCell>
        <mxCell id="dkTFNoBBTc2AR1EmCtfC-60" value="" style="rounded=0;orthogonalLoop=1;jettySize=auto;html=1;endArrow=none;endFill=0;sketch=0;sourcePerimeterSpacing=0;targetPerimeterSpacing=0;fontSize=12;exitX=0.171;exitY=0.02;exitDx=0;exitDy=0;exitPerimeter=0;" parent="Qrksj41E7fYdLU6Ro5uq-1" source="dkTFNoBBTc2AR1EmCtfC-55" target="dkTFNoBBTc2AR1EmCtfC-63" edge="1">
          <mxGeometry relative="1" as="geometry">
            <mxPoint x="6610" y="1095" as="sourcePoint" />
          </mxGeometry>
        </mxCell>
        <mxCell id="dkTFNoBBTc2AR1EmCtfC-61" value="" style="rounded=0;orthogonalLoop=1;jettySize=auto;html=1;endArrow=halfCircle;endFill=0;entryX=0.5;entryY=0.5;endSize=6;strokeWidth=1;sketch=0;fontSize=12;exitX=0.13;exitY=0.993;exitDx=0;exitDy=0;exitPerimeter=0;" parent="Qrksj41E7fYdLU6Ro5uq-1" source="dkTFNoBBTc2AR1EmCtfC-52" target="dkTFNoBBTc2AR1EmCtfC-63" edge="1">
          <mxGeometry relative="1" as="geometry">
            <mxPoint x="6650" y="1095" as="sourcePoint" />
          </mxGeometry>
        </mxCell>
        <mxCell id="dkTFNoBBTc2AR1EmCtfC-62" value="getListOpenClasses()" style="edgeLabel;html=1;align=center;verticalAlign=middle;resizable=0;points=[];fontSize=12;" parent="dkTFNoBBTc2AR1EmCtfC-61" vertex="1" connectable="0">
          <mxGeometry x="0.4878" y="1" relative="1" as="geometry">
            <mxPoint y="-8" as="offset" />
          </mxGeometry>
        </mxCell>
        <mxCell id="dkTFNoBBTc2AR1EmCtfC-63" value="" style="ellipse;whiteSpace=wrap;html=1;align=center;aspect=fixed;resizable=0;points=[];outlineConnect=0;sketch=0;fontSize=12;" parent="Qrksj41E7fYdLU6Ro5uq-1" vertex="1">
          <mxGeometry x="6625" y="1090" width="10" height="10" as="geometry" />
        </mxCell>
        <mxCell id="dkTFNoBBTc2AR1EmCtfC-68" value="" style="endArrow=none;html=1;rounded=0;fontSize=12;exitX=-0.031;exitY=0.067;exitDx=0;exitDy=0;exitPerimeter=0;entryX=1;entryY=0.5;entryDx=0;entryDy=0;" parent="Qrksj41E7fYdLU6Ro5uq-1" source="dkTFNoBBTc2AR1EmCtfC-47" target="dkTFNoBBTc2AR1EmCtfC-31" edge="1">
          <mxGeometry width="50" height="50" relative="1" as="geometry">
            <mxPoint x="6350" y="1658.53" as="sourcePoint" />
            <mxPoint x="6400" y="1608.53" as="targetPoint" />
          </mxGeometry>
        </mxCell>
        <mxCell id="dkTFNoBBTc2AR1EmCtfC-69" value="ListService" style="swimlane;fontStyle=0;childLayout=stackLayout;horizontal=1;startSize=30;horizontalStack=0;resizeParent=1;resizeParentMax=0;resizeLast=0;collapsible=1;marginBottom=0;fontSize=12;strokeColor=default;strokeWidth=2;" parent="Qrksj41E7fYdLU6Ro5uq-1" vertex="1">
          <mxGeometry x="6820" y="1558.53" width="260" height="60" as="geometry" />
        </mxCell>
        <mxCell id="dkTFNoBBTc2AR1EmCtfC-70" value="+getListOpenClasses(): ClassAndReview[]" style="text;strokeColor=none;fillColor=none;align=left;verticalAlign=middle;spacingLeft=4;spacingRight=4;overflow=hidden;points=[[0,0.5],[1,0.5]];portConstraint=eastwest;rotatable=0;fontSize=12;fontStyle=4" parent="dkTFNoBBTc2AR1EmCtfC-69" vertex="1">
          <mxGeometry y="30" width="260" height="30" as="geometry" />
        </mxCell>
        <mxCell id="dkTFNoBBTc2AR1EmCtfC-71" value="" style="endArrow=none;html=1;rounded=0;fontSize=12;exitX=0.994;exitY=0.067;exitDx=0;exitDy=0;exitPerimeter=0;entryX=0.028;entryY=0.033;entryDx=0;entryDy=0;entryPerimeter=0;" parent="Qrksj41E7fYdLU6Ro5uq-1" source="dkTFNoBBTc2AR1EmCtfC-35" target="dkTFNoBBTc2AR1EmCtfC-70" edge="1">
          <mxGeometry width="50" height="50" relative="1" as="geometry">
            <mxPoint x="6490" y="1498.53" as="sourcePoint" />
            <mxPoint x="6540" y="1448.53" as="targetPoint" />
          </mxGeometry>
        </mxCell>
        <mxCell id="wqI7SiT8Rtk6KVJXQ_VW-0" value="ClassAndReview" style="swimlane;fontStyle=0;childLayout=stackLayout;horizontal=1;startSize=30;horizontalStack=0;resizeParent=1;resizeParentMax=0;resizeLast=0;collapsible=1;marginBottom=0;fontSize=12;strokeColor=default;strokeWidth=2;" parent="Qrksj41E7fYdLU6Ro5uq-1" vertex="1">
          <mxGeometry x="6820" y="1698.53" width="260" height="180" as="geometry">
            <mxRectangle x="2790" y="1330" width="130" height="30" as="alternateBounds" />
          </mxGeometry>
        </mxCell>
        <mxCell id="wqI7SiT8Rtk6KVJXQ_VW-1" value="+name: String" style="text;strokeColor=none;fillColor=none;align=left;verticalAlign=middle;spacingLeft=4;spacingRight=4;overflow=hidden;points=[[0,0.5],[1,0.5]];portConstraint=eastwest;rotatable=0;fontSize=12;" parent="wqI7SiT8Rtk6KVJXQ_VW-0" vertex="1">
          <mxGeometry y="30" width="260" height="30" as="geometry" />
        </mxCell>
        <mxCell id="wqI7SiT8Rtk6KVJXQ_VW-2" value="+cID: int" style="text;strokeColor=none;fillColor=none;align=left;verticalAlign=middle;spacingLeft=4;spacingRight=4;overflow=hidden;points=[[0,0.5],[1,0.5]];portConstraint=eastwest;rotatable=0;fontSize=12;" parent="wqI7SiT8Rtk6KVJXQ_VW-0" vertex="1">
          <mxGeometry y="60" width="260" height="30" as="geometry" />
        </mxCell>
        <mxCell id="wqI7SiT8Rtk6KVJXQ_VW-3" value="+dateTime: DateTime" style="text;strokeColor=none;fillColor=none;align=left;verticalAlign=middle;spacingLeft=4;spacingRight=4;overflow=hidden;points=[[0,0.5],[1,0.5]];portConstraint=eastwest;rotatable=0;fontSize=12;" parent="wqI7SiT8Rtk6KVJXQ_VW-0" vertex="1">
          <mxGeometry y="90" width="260" height="30" as="geometry" />
        </mxCell>
        <mxCell id="wqI7SiT8Rtk6KVJXQ_VW-5" value="&lt;span style=&quot;color: rgb(0 , 0 , 0) ; font-family: &amp;#34;helvetica&amp;#34; ; font-size: 12px ; font-style: normal ; font-weight: 400 ; letter-spacing: normal ; text-align: left ; text-indent: 0px ; text-transform: none ; word-spacing: 0px ; background-color: rgb(248 , 249 , 250) ; display: inline ; float: none&quot;&gt;+location: String&lt;/span&gt;" style="text;whiteSpace=wrap;html=1;" parent="wqI7SiT8Rtk6KVJXQ_VW-0" vertex="1">
          <mxGeometry y="120" width="260" height="30" as="geometry" />
        </mxCell>
        <mxCell id="wqI7SiT8Rtk6KVJXQ_VW-6" value="&lt;font face=&quot;helvetica&quot;&gt;+reviewRating: int&amp;nbsp;&lt;/font&gt;" style="text;whiteSpace=wrap;html=1;" parent="wqI7SiT8Rtk6KVJXQ_VW-0" vertex="1">
          <mxGeometry y="150" width="260" height="30" as="geometry" />
        </mxCell>
        <mxCell id="VQopTiZX7uqN_XGZ91MK-0" value="" style="endArrow=none;html=1;rounded=0;fontSize=100;exitX=0.51;exitY=1.044;exitDx=0;exitDy=0;exitPerimeter=0;entryX=0.5;entryY=0;entryDx=0;entryDy=0;" parent="Qrksj41E7fYdLU6Ro5uq-1" source="dkTFNoBBTc2AR1EmCtfC-70" target="wqI7SiT8Rtk6KVJXQ_VW-0" edge="1">
          <mxGeometry width="50" height="50" relative="1" as="geometry">
            <mxPoint x="6820" y="1918.53" as="sourcePoint" />
            <mxPoint x="6870" y="1868.53" as="targetPoint" />
          </mxGeometry>
        </mxCell>
        <mxCell id="VQopTiZX7uqN_XGZ91MK-1" value="" style="endArrow=none;html=1;rounded=0;fontSize=100;exitX=0.864;exitY=1.061;exitDx=0;exitDy=0;exitPerimeter=0;entryX=0;entryY=0;entryDx=0;entryDy=0;" parent="Qrksj41E7fYdLU6Ro5uq-1" source="dkTFNoBBTc2AR1EmCtfC-47" target="wqI7SiT8Rtk6KVJXQ_VW-6" edge="1">
          <mxGeometry width="50" height="50" relative="1" as="geometry">
            <mxPoint x="6820" y="1918.53" as="sourcePoint" />
            <mxPoint x="6870" y="1868.53" as="targetPoint" />
          </mxGeometry>
        </mxCell>
        <mxCell id="VQopTiZX7uqN_XGZ91MK-2" value="" style="endArrow=none;html=1;rounded=0;fontSize=100;exitX=0.803;exitY=1.044;exitDx=0;exitDy=0;exitPerimeter=0;" parent="Qrksj41E7fYdLU6Ro5uq-1" source="dkTFNoBBTc2AR1EmCtfC-35" target="wqI7SiT8Rtk6KVJXQ_VW-0" edge="1">
          <mxGeometry width="50" height="50" relative="1" as="geometry">
            <mxPoint x="6820" y="1918.53" as="sourcePoint" />
            <mxPoint x="6870" y="1868.53" as="targetPoint" />
          </mxGeometry>
        </mxCell>
        <mxCell id="zMPMBc1fGept6kjPSyZu-0" value="Registration" style="shape=module;align=left;spacingLeft=20;align=center;verticalAlign=top;" parent="Qrksj41E7fYdLU6Ro5uq-1" vertex="1">
          <mxGeometry x="7380" y="864.7800000000002" width="960" height="647.89" as="geometry" />
        </mxCell>
        <mxCell id="zMPMBc1fGept6kjPSyZu-1" value="«Component»&lt;br&gt;&lt;b&gt;Registration&lt;/b&gt;" style="html=1;dropTarget=0;labelPosition=center;verticalLabelPosition=top;align=center;verticalAlign=bottom;container=0;" parent="Qrksj41E7fYdLU6Ro5uq-1" vertex="1">
          <mxGeometry x="7420" y="909.56" width="544.69" height="520.44" as="geometry" />
        </mxCell>
        <mxCell id="zMPMBc1fGept6kjPSyZu-2" value="&lt;p style=&quot;margin: 0px ; margin-top: 6px ; text-align: center&quot;&gt;&lt;b&gt;&amp;lt;&amp;lt;view&amp;gt;&amp;gt;&lt;/b&gt;&lt;/p&gt;&lt;hr&gt;&lt;p style=&quot;margin: 0px ; margin-left: 8px&quot;&gt;&lt;br&gt;&lt;br&gt;&lt;/p&gt;" style="align=left;overflow=fill;html=1;dropTarget=0;" parent="Qrksj41E7fYdLU6Ro5uq-1" vertex="1">
          <mxGeometry x="7696.666666666666" y="1197.3366666666666" width="242.08333333333331" height="106.88888888888889" as="geometry" />
        </mxCell>
        <mxCell id="zMPMBc1fGept6kjPSyZu-3" value="" style="shape=component;jettyWidth=8;jettyHeight=4;html=0;" parent="zMPMBc1fGept6kjPSyZu-2" vertex="1">
          <mxGeometry x="1" width="20" height="20" relative="1" as="geometry">
            <mxPoint x="-24" y="4" as="offset" />
          </mxGeometry>
        </mxCell>
        <mxCell id="zMPMBc1fGept6kjPSyZu-4" value="&lt;p style=&quot;margin: 0px ; margin-top: 6px ; text-align: center&quot;&gt;&lt;b&gt;&amp;lt;&amp;lt;controller&amp;gt;&amp;gt;&lt;/b&gt;&lt;/p&gt;&lt;hr&gt;&lt;p style=&quot;margin: 0px ; margin-left: 8px&quot;&gt;&lt;br&gt;&lt;br&gt;&lt;/p&gt;" style="align=left;overflow=fill;html=1;dropTarget=0;" parent="Qrksj41E7fYdLU6Ro5uq-1" vertex="1">
          <mxGeometry x="7445.9375" y="975.3366666666666" width="492.81249999999994" height="106.88888888888889" as="geometry" />
        </mxCell>
        <mxCell id="zMPMBc1fGept6kjPSyZu-5" value="" style="shape=component;jettyWidth=8;jettyHeight=4;html=0;" parent="zMPMBc1fGept6kjPSyZu-4" vertex="1">
          <mxGeometry x="1" width="20" height="20" relative="1" as="geometry">
            <mxPoint x="-24" y="4" as="offset" />
          </mxGeometry>
        </mxCell>
        <mxCell id="zMPMBc1fGept6kjPSyZu-6" value="&lt;p style=&quot;margin: 0px ; margin-top: 6px ; text-align: center&quot;&gt;&lt;b&gt;&amp;lt;&amp;lt;model&amp;gt;&amp;gt;&lt;/b&gt;&lt;/p&gt;&lt;hr&gt;&lt;p style=&quot;margin: 0px ; margin-left: 8px&quot;&gt;&lt;br&gt;&lt;br&gt;&lt;/p&gt;" style="align=left;overflow=fill;html=1;dropTarget=0;" parent="Qrksj41E7fYdLU6Ro5uq-1" vertex="1">
          <mxGeometry x="7445.94" y="1165.34" width="242.08" height="244.66" as="geometry" />
        </mxCell>
        <mxCell id="zMPMBc1fGept6kjPSyZu-7" value="" style="shape=component;jettyWidth=8;jettyHeight=4;html=0;" parent="zMPMBc1fGept6kjPSyZu-6" vertex="1">
          <mxGeometry x="1" width="20" height="20" relative="1" as="geometry">
            <mxPoint x="-24" y="4" as="offset" />
          </mxGeometry>
        </mxCell>
        <mxCell id="zMPMBc1fGept6kjPSyZu-8" value="&lt;p style=&quot;margin: 0px ; margin-top: 6px ; text-align: center&quot;&gt;&lt;b&gt;RegistrationController&lt;/b&gt;&lt;/p&gt;" style="align=left;overflow=fill;html=1;dropTarget=0;" parent="Qrksj41E7fYdLU6Ro5uq-1" vertex="1">
          <mxGeometry x="7698.23" y="1016.45" width="216.77" height="49.33" as="geometry" />
        </mxCell>
        <mxCell id="zMPMBc1fGept6kjPSyZu-9" value="&lt;p style=&quot;margin: 0px ; margin-top: 6px ; text-align: center&quot;&gt;&lt;b&gt;Registration&lt;/b&gt;&lt;/p&gt;" style="align=left;overflow=fill;html=1;dropTarget=0;" parent="Qrksj41E7fYdLU6Ro5uq-1" vertex="1">
          <mxGeometry x="7455.89" y="1259.23" width="84.11" height="49.33" as="geometry" />
        </mxCell>
        <mxCell id="zMPMBc1fGept6kjPSyZu-10" value="" style="rounded=0;orthogonalLoop=1;jettySize=auto;html=1;endArrow=none;endFill=0;sketch=0;sourcePerimeterSpacing=0;targetPerimeterSpacing=0;fontSize=24;exitX=0.5;exitY=0;exitDx=0;exitDy=0;" parent="Qrksj41E7fYdLU6Ro5uq-1" source="zMPMBc1fGept6kjPSyZu-50" target="zMPMBc1fGept6kjPSyZu-12" edge="1">
          <mxGeometry relative="1" as="geometry">
            <mxPoint x="7526.34375" y="860.2255555555557" as="sourcePoint" />
          </mxGeometry>
        </mxCell>
        <mxCell id="zMPMBc1fGept6kjPSyZu-11" value="&lt;font style=&quot;font-size: 12px&quot;&gt;getRegistrations()&lt;/font&gt;" style="edgeLabel;html=1;align=center;verticalAlign=middle;resizable=0;points=[];fontSize=24;" parent="zMPMBc1fGept6kjPSyZu-10" vertex="1" connectable="0">
          <mxGeometry x="0.64" y="1" relative="1" as="geometry">
            <mxPoint y="-20" as="offset" />
          </mxGeometry>
        </mxCell>
        <mxCell id="zMPMBc1fGept6kjPSyZu-12" value="" style="ellipse;whiteSpace=wrap;html=1;align=center;aspect=fixed;resizable=0;points=[];outlineConnect=0;sketch=0;fontSize=24;strokeColor=default;strokeWidth=2;" parent="Qrksj41E7fYdLU6Ro5uq-1" vertex="1">
          <mxGeometry x="7566.979166666666" y="802.6700000000001" width="10" height="10" as="geometry" />
        </mxCell>
        <mxCell id="zMPMBc1fGept6kjPSyZu-13" value="" style="rounded=0;orthogonalLoop=1;jettySize=auto;html=1;endArrow=none;endFill=0;sketch=0;sourcePerimeterSpacing=0;targetPerimeterSpacing=0;fontSize=12;exitX=0.697;exitY=-0.007;exitDx=0;exitDy=0;exitPerimeter=0;" parent="Qrksj41E7fYdLU6Ro5uq-1" source="zMPMBc1fGept6kjPSyZu-45" target="zMPMBc1fGept6kjPSyZu-16" edge="1">
          <mxGeometry relative="1" as="geometry">
            <mxPoint x="7294.635416666666" y="1164.447777777778" as="sourcePoint" />
          </mxGeometry>
        </mxCell>
        <mxCell id="zMPMBc1fGept6kjPSyZu-54" value="findAllByMemberID()" style="edgeLabel;html=1;align=center;verticalAlign=middle;resizable=0;points=[];" parent="zMPMBc1fGept6kjPSyZu-13" vertex="1" connectable="0">
          <mxGeometry x="0.296" y="-3" relative="1" as="geometry">
            <mxPoint as="offset" />
          </mxGeometry>
        </mxCell>
        <mxCell id="zMPMBc1fGept6kjPSyZu-14" value="" style="rounded=0;orthogonalLoop=1;jettySize=auto;html=1;endArrow=halfCircle;endFill=0;endSize=6;strokeWidth=1;sketch=0;fontSize=12;exitX=0.5;exitY=1;exitDx=0;exitDy=0;" parent="Qrksj41E7fYdLU6Ro5uq-1" source="zMPMBc1fGept6kjPSyZu-8" target="zMPMBc1fGept6kjPSyZu-16" edge="1">
          <mxGeometry relative="1" as="geometry">
            <mxPoint x="7480.520833333333" y="1238.4477777777777" as="sourcePoint" />
          </mxGeometry>
        </mxCell>
        <mxCell id="zMPMBc1fGept6kjPSyZu-15" value="findAllByMemberID()" style="edgeLabel;html=1;align=center;verticalAlign=middle;resizable=0;points=[];fontSize=12;" parent="zMPMBc1fGept6kjPSyZu-14" vertex="1" connectable="0">
          <mxGeometry x="0.5407" relative="1" as="geometry">
            <mxPoint x="-63" y="-50" as="offset" />
          </mxGeometry>
        </mxCell>
        <mxCell id="zMPMBc1fGept6kjPSyZu-16" value="" style="ellipse;whiteSpace=wrap;html=1;align=center;aspect=fixed;resizable=0;points=[];outlineConnect=0;sketch=0;fontSize=12;strokeColor=default;strokeWidth=2;" parent="Qrksj41E7fYdLU6Ro5uq-1" vertex="1">
          <mxGeometry x="7609.997916666667" y="1105.1066666666668" width="10" height="10" as="geometry" />
        </mxCell>
        <mxCell id="zMPMBc1fGept6kjPSyZu-17" value="" style="rounded=0;orthogonalLoop=1;jettySize=auto;html=1;endArrow=none;endFill=0;sketch=0;sourcePerimeterSpacing=0;targetPerimeterSpacing=0;fontSize=12;exitX=0.876;exitY=1.017;exitDx=0;exitDy=0;exitPerimeter=0;" parent="Qrksj41E7fYdLU6Ro5uq-1" source="zMPMBc1fGept6kjPSyZu-8" target="zMPMBc1fGept6kjPSyZu-20" edge="1">
          <mxGeometry relative="1" as="geometry">
            <mxPoint x="7285.989583333333" y="1370.0033333333336" as="sourcePoint" />
          </mxGeometry>
        </mxCell>
        <mxCell id="zMPMBc1fGept6kjPSyZu-18" value="" style="rounded=0;orthogonalLoop=1;jettySize=auto;html=1;endArrow=halfCircle;endFill=0;entryX=0.5;entryY=0.5;endSize=6;strokeWidth=1;sketch=0;fontSize=12;exitX=0.75;exitY=0;exitDx=0;exitDy=0;" parent="Qrksj41E7fYdLU6Ro5uq-1" source="zMPMBc1fGept6kjPSyZu-45" target="zMPMBc1fGept6kjPSyZu-20" edge="1">
          <mxGeometry relative="1" as="geometry">
            <mxPoint x="7285.989583333333" y="1485.1144444444444" as="sourcePoint" />
          </mxGeometry>
        </mxCell>
        <mxCell id="zMPMBc1fGept6kjPSyZu-52" value="save()" style="edgeLabel;html=1;align=center;verticalAlign=middle;resizable=0;points=[];" parent="zMPMBc1fGept6kjPSyZu-18" vertex="1" connectable="0">
          <mxGeometry x="0.3731" y="1" relative="1" as="geometry">
            <mxPoint as="offset" />
          </mxGeometry>
        </mxCell>
        <mxCell id="zMPMBc1fGept6kjPSyZu-20" value="" style="ellipse;whiteSpace=wrap;html=1;align=center;aspect=fixed;resizable=0;points=[];outlineConnect=0;sketch=0;fontSize=12;strokeColor=default;strokeWidth=2;" parent="Qrksj41E7fYdLU6Ro5uq-1" vertex="1">
          <mxGeometry x="7770.004583333333" y="1115.1144444444444" width="10" height="10" as="geometry" />
        </mxCell>
        <mxCell id="zMPMBc1fGept6kjPSyZu-21" value="" style="rounded=0;orthogonalLoop=1;jettySize=auto;html=1;endArrow=none;endFill=0;sketch=0;sourcePerimeterSpacing=0;targetPerimeterSpacing=0;fontSize=12;exitX=1;exitY=0.7;exitDx=0;exitDy=0;" parent="Qrksj41E7fYdLU6Ro5uq-1" source="zMPMBc1fGept6kjPSyZu-24" target="zMPMBc1fGept6kjPSyZu-23" edge="1">
          <mxGeometry relative="1" as="geometry">
            <mxPoint x="7398.719166666666" y="1482.6711111111117" as="sourcePoint" />
          </mxGeometry>
        </mxCell>
        <mxCell id="zMPMBc1fGept6kjPSyZu-22" value="" style="rounded=0;orthogonalLoop=1;jettySize=auto;html=1;endArrow=halfCircle;endFill=0;entryX=0.5;entryY=0.5;endSize=6;strokeWidth=1;sketch=0;fontSize=12;" parent="Qrksj41E7fYdLU6Ro5uq-1" target="zMPMBc1fGept6kjPSyZu-23" edge="1">
          <mxGeometry relative="1" as="geometry">
            <mxPoint x="7560" y="1250" as="sourcePoint" />
          </mxGeometry>
        </mxCell>
        <mxCell id="zMPMBc1fGept6kjPSyZu-23" value="" style="ellipse;whiteSpace=wrap;html=1;align=center;aspect=fixed;resizable=0;points=[];outlineConnect=0;sketch=0;fontSize=12;strokeColor=default;strokeWidth=2;" parent="Qrksj41E7fYdLU6Ro5uq-1" vertex="1">
          <mxGeometry x="7556.97625" y="1479.9977777777779" width="10" height="10" as="geometry" />
        </mxCell>
        <mxCell id="zMPMBc1fGept6kjPSyZu-24" value="H2 DB" style="shape=datastore;whiteSpace=wrap;html=1;" parent="Qrksj41E7fYdLU6Ro5uq-1" vertex="1">
          <mxGeometry x="7449.9991666666665" y="1442.67" width="60" height="60" as="geometry" />
        </mxCell>
        <mxCell id="zMPMBc1fGept6kjPSyZu-27" value="" style="rounded=0;orthogonalLoop=1;jettySize=auto;html=1;endArrow=halfCircle;endFill=0;entryX=0.5;entryY=0.5;endSize=6;strokeWidth=1;sketch=0;exitX=1;exitY=0.5;exitDx=0;exitDy=0;" parent="Qrksj41E7fYdLU6Ro5uq-1" source="zMPMBc1fGept6kjPSyZu-8" target="zMPMBc1fGept6kjPSyZu-28" edge="1">
          <mxGeometry relative="1" as="geometry">
            <mxPoint x="7871.748541666666" y="1238.45" as="sourcePoint" />
          </mxGeometry>
        </mxCell>
        <mxCell id="zMPMBc1fGept6kjPSyZu-28" value="" style="ellipse;whiteSpace=wrap;html=1;align=center;aspect=fixed;resizable=0;points=[];outlineConnect=0;sketch=0;" parent="Qrksj41E7fYdLU6Ro5uq-1" vertex="1">
          <mxGeometry x="8025.07" y="1036.1100000000001" width="10" height="10" as="geometry" />
        </mxCell>
        <mxCell id="zMPMBc1fGept6kjPSyZu-29" value="«Component»&lt;br&gt;&lt;b&gt;ListService&lt;/b&gt;" style="html=1;dropTarget=0;labelPosition=center;verticalLabelPosition=top;align=center;verticalAlign=bottom;container=0;" parent="Qrksj41E7fYdLU6Ro5uq-1" vertex="1">
          <mxGeometry x="8020" y="1092.67" width="290" height="397.33" as="geometry" />
        </mxCell>
        <mxCell id="zMPMBc1fGept6kjPSyZu-30" value="&lt;p style=&quot;margin: 0px ; margin-top: 6px ; text-align: center&quot;&gt;&lt;b&gt;&amp;lt;&amp;lt;controller&amp;gt;&amp;gt;&lt;/b&gt;&lt;/p&gt;&lt;hr&gt;&lt;p style=&quot;margin: 0px ; margin-left: 8px&quot;&gt;&lt;br&gt;&lt;br&gt;&lt;/p&gt;" style="align=left;overflow=fill;html=1;dropTarget=0;" parent="Qrksj41E7fYdLU6Ro5uq-1" vertex="1">
          <mxGeometry x="8025" y="1115.1100000000001" width="280" height="106.89" as="geometry" />
        </mxCell>
        <mxCell id="zMPMBc1fGept6kjPSyZu-31" value="" style="shape=component;jettyWidth=8;jettyHeight=4;html=0;" parent="zMPMBc1fGept6kjPSyZu-30" vertex="1">
          <mxGeometry x="1" width="20" height="20" relative="1" as="geometry">
            <mxPoint x="-24" y="4" as="offset" />
          </mxGeometry>
        </mxCell>
        <mxCell id="zMPMBc1fGept6kjPSyZu-32" value="&lt;p style=&quot;margin: 0px ; margin-top: 6px ; text-align: center&quot;&gt;&lt;b&gt;MicroserviceController&lt;/b&gt;&lt;/p&gt;" style="align=left;overflow=fill;html=1;dropTarget=0;" parent="Qrksj41E7fYdLU6Ro5uq-1" vertex="1">
          <mxGeometry x="8057" y="1152.67" width="216.14583333333334" height="49.33333333333333" as="geometry" />
        </mxCell>
        <mxCell id="zMPMBc1fGept6kjPSyZu-33" value="&lt;p style=&quot;margin: 0px ; margin-top: 6px ; text-align: center&quot;&gt;&lt;b&gt;&amp;lt;&amp;lt;Service&amp;gt;&amp;gt;&lt;/b&gt;&lt;/p&gt;&lt;hr&gt;&lt;p style=&quot;margin: 0px ; margin-left: 8px&quot;&gt;&lt;br&gt;&lt;br&gt;&lt;/p&gt;" style="align=left;overflow=fill;html=1;dropTarget=0;" parent="Qrksj41E7fYdLU6Ro5uq-1" vertex="1">
          <mxGeometry x="8025.07" y="1259.23" width="280" height="210.77" as="geometry" />
        </mxCell>
        <mxCell id="zMPMBc1fGept6kjPSyZu-34" value="" style="shape=component;jettyWidth=8;jettyHeight=4;html=0;" parent="zMPMBc1fGept6kjPSyZu-33" vertex="1">
          <mxGeometry x="1" width="20" height="20" relative="1" as="geometry">
            <mxPoint x="-24" y="4" as="offset" />
          </mxGeometry>
        </mxCell>
        <mxCell id="zMPMBc1fGept6kjPSyZu-35" value="&lt;p style=&quot;margin: 0px ; margin-top: 6px ; text-align: center&quot;&gt;&lt;b&gt;ListService&lt;/b&gt;&lt;/p&gt;" style="align=left;overflow=fill;html=1;dropTarget=0;" parent="Qrksj41E7fYdLU6Ro5uq-1" vertex="1">
          <mxGeometry x="8160" y="1302.68" width="113.15" height="49.33" as="geometry" />
        </mxCell>
        <mxCell id="zMPMBc1fGept6kjPSyZu-36" value="" style="rounded=0;orthogonalLoop=1;jettySize=auto;html=1;endArrow=halfCircle;endFill=0;endSize=6;strokeWidth=1;sketch=0;exitX=1;exitY=0.75;exitDx=0;exitDy=0;" parent="Qrksj41E7fYdLU6Ro5uq-1" source="zMPMBc1fGept6kjPSyZu-35" edge="1">
          <mxGeometry relative="1" as="geometry">
            <mxPoint x="7845.729166666666" y="837.6700000000001" as="sourcePoint" />
            <mxPoint x="8450" y="1339.67" as="targetPoint" />
          </mxGeometry>
        </mxCell>
        <mxCell id="zMPMBc1fGept6kjPSyZu-37" value="getClasses()" style="edgeLabel;html=1;align=center;verticalAlign=middle;resizable=0;points=[];" parent="zMPMBc1fGept6kjPSyZu-36" vertex="1" connectable="0">
          <mxGeometry x="0.5413" y="4" relative="1" as="geometry">
            <mxPoint x="-19" y="-3" as="offset" />
          </mxGeometry>
        </mxCell>
        <mxCell id="zMPMBc1fGept6kjPSyZu-38" value="" style="rounded=0;orthogonalLoop=1;jettySize=auto;html=1;endArrow=halfCircle;endFill=0;endSize=6;strokeWidth=1;sketch=0;fontSize=12;exitX=1;exitY=0.25;exitDx=0;exitDy=0;" parent="Qrksj41E7fYdLU6Ro5uq-1" source="zMPMBc1fGept6kjPSyZu-35" edge="1">
          <mxGeometry relative="1" as="geometry">
            <mxPoint x="8077.083333333332" y="1037.0033333333333" as="sourcePoint" />
            <mxPoint x="8450" y="1312.67" as="targetPoint" />
          </mxGeometry>
        </mxCell>
        <mxCell id="zMPMBc1fGept6kjPSyZu-39" value="listReviews()" style="edgeLabel;html=1;align=center;verticalAlign=middle;resizable=0;points=[];fontSize=12;" parent="zMPMBc1fGept6kjPSyZu-38" vertex="1" connectable="0">
          <mxGeometry x="0.0741" y="1" relative="1" as="geometry">
            <mxPoint x="27" y="1" as="offset" />
          </mxGeometry>
        </mxCell>
        <mxCell id="zMPMBc1fGept6kjPSyZu-40" value="" style="rounded=0;orthogonalLoop=1;jettySize=auto;html=1;endArrow=none;endFill=0;sketch=0;sourcePerimeterSpacing=0;targetPerimeterSpacing=0;fontSize=12;exitX=0.171;exitY=0.02;exitDx=0;exitDy=0;exitPerimeter=0;" parent="Qrksj41E7fYdLU6Ro5uq-1" source="zMPMBc1fGept6kjPSyZu-35" target="zMPMBc1fGept6kjPSyZu-43" edge="1">
          <mxGeometry relative="1" as="geometry">
            <mxPoint x="8070" y="1267.67" as="sourcePoint" />
          </mxGeometry>
        </mxCell>
        <mxCell id="zMPMBc1fGept6kjPSyZu-41" value="" style="rounded=0;orthogonalLoop=1;jettySize=auto;html=1;endArrow=halfCircle;endFill=0;entryX=0.5;entryY=0.5;endSize=6;strokeWidth=1;sketch=0;fontSize=12;exitX=0.13;exitY=0.993;exitDx=0;exitDy=0;exitPerimeter=0;" parent="Qrksj41E7fYdLU6Ro5uq-1" source="zMPMBc1fGept6kjPSyZu-32" target="zMPMBc1fGept6kjPSyZu-43" edge="1">
          <mxGeometry relative="1" as="geometry">
            <mxPoint x="8110" y="1267.67" as="sourcePoint" />
          </mxGeometry>
        </mxCell>
        <mxCell id="zMPMBc1fGept6kjPSyZu-42" value="getClassesAndReviews()" style="edgeLabel;html=1;align=center;verticalAlign=middle;resizable=0;points=[];fontSize=12;" parent="zMPMBc1fGept6kjPSyZu-41" vertex="1" connectable="0">
          <mxGeometry x="0.4878" y="1" relative="1" as="geometry">
            <mxPoint y="-8" as="offset" />
          </mxGeometry>
        </mxCell>
        <mxCell id="zMPMBc1fGept6kjPSyZu-43" value="" style="ellipse;whiteSpace=wrap;html=1;align=center;aspect=fixed;resizable=0;points=[];outlineConnect=0;sketch=0;fontSize=12;" parent="Qrksj41E7fYdLU6Ro5uq-1" vertex="1">
          <mxGeometry x="8085" y="1262.67" width="10" height="10" as="geometry" />
        </mxCell>
        <mxCell id="zMPMBc1fGept6kjPSyZu-44" value="&lt;b&gt;registration.html&lt;/b&gt;" style="rounded=0;whiteSpace=wrap;html=1;" parent="Qrksj41E7fYdLU6Ro5uq-1" vertex="1">
          <mxGeometry x="7750" y="1227.78" width="120" height="60" as="geometry" />
        </mxCell>
        <mxCell id="zMPMBc1fGept6kjPSyZu-45" value="&lt;p style=&quot;margin: 0px ; margin-top: 6px ; text-align: center&quot;&gt;&lt;b&gt;Registration&lt;/b&gt;&lt;b&gt;Repository&lt;/b&gt;&lt;/p&gt;" style="align=left;overflow=fill;html=1;dropTarget=0;" parent="Qrksj41E7fYdLU6Ro5uq-1" vertex="1">
          <mxGeometry x="7460" y="1197.34" width="219.37" height="49.33" as="geometry" />
        </mxCell>
        <mxCell id="zMPMBc1fGept6kjPSyZu-48" value="&lt;p style=&quot;margin: 0px ; margin-top: 6px ; text-align: center&quot;&gt;&lt;b&gt;ClassAndReview&lt;/b&gt;&lt;/p&gt;" style="align=left;overflow=fill;html=1;dropTarget=0;" parent="Qrksj41E7fYdLU6Ro5uq-1" vertex="1">
          <mxGeometry x="7572.66" y="1259.23" width="109.71" height="49.33" as="geometry" />
        </mxCell>
        <mxCell id="zMPMBc1fGept6kjPSyZu-50" value="&lt;p style=&quot;margin: 0px ; margin-top: 6px ; text-align: center&quot;&gt;&lt;b&gt;RegistrationAPIController&lt;/b&gt;&lt;/p&gt;" style="align=left;overflow=fill;html=1;dropTarget=0;" parent="Qrksj41E7fYdLU6Ro5uq-1" vertex="1">
          <mxGeometry x="7469.27" y="1016.45" width="216.77" height="49.33" as="geometry" />
        </mxCell>
        <mxCell id="zMPMBc1fGept6kjPSyZu-55" value="" style="rounded=0;orthogonalLoop=1;jettySize=auto;html=1;endArrow=halfCircle;endFill=0;endSize=6;strokeWidth=1;sketch=0;fontSize=12;exitX=0.645;exitY=1.065;exitDx=0;exitDy=0;exitPerimeter=0;" parent="Qrksj41E7fYdLU6Ro5uq-1" source="zMPMBc1fGept6kjPSyZu-50" target="zMPMBc1fGept6kjPSyZu-16" edge="1">
          <mxGeometry relative="1" as="geometry">
            <mxPoint x="7710" y="780" as="sourcePoint" />
            <mxPoint x="7523.255302230432" y="823.2042322959567" as="targetPoint" />
          </mxGeometry>
        </mxCell>
        <mxCell id="zMPMBc1fGept6kjPSyZu-25" value="" style="rounded=0;orthogonalLoop=1;jettySize=auto;html=1;endArrow=none;endFill=0;sketch=0;sourcePerimeterSpacing=0;targetPerimeterSpacing=0;exitX=0;exitY=0.5;exitDx=0;exitDy=0;" parent="Qrksj41E7fYdLU6Ro5uq-1" source="zMPMBc1fGept6kjPSyZu-32" target="zMPMBc1fGept6kjPSyZu-28" edge="1">
          <mxGeometry relative="1" as="geometry">
            <mxPoint x="7900" y="1141.67" as="sourcePoint" />
          </mxGeometry>
        </mxCell>
        <mxCell id="zMPMBc1fGept6kjPSyZu-26" value="getOpenClasses()" style="edgeLabel;html=1;align=center;verticalAlign=middle;resizable=0;points=[];" parent="zMPMBc1fGept6kjPSyZu-25" vertex="1" connectable="0">
          <mxGeometry x="-0.3038" y="-4" relative="1" as="geometry">
            <mxPoint x="-2" y="-54" as="offset" />
          </mxGeometry>
        </mxCell>
        <mxCell id="zMPMBc1fGept6kjPSyZu-57" value="&lt;p style=&quot;margin: 0px ; margin-top: 6px ; text-align: center&quot;&gt;&lt;b&gt;ClassAndReview&lt;/b&gt;&lt;/p&gt;" style="align=left;overflow=fill;html=1;dropTarget=0;" parent="Qrksj41E7fYdLU6Ro5uq-1" vertex="1">
          <mxGeometry x="8040" y="1302.68" width="109.71" height="49.33" as="geometry" />
        </mxCell>
        <mxCell id="zMPMBc1fGept6kjPSyZu-58" value="RegistrationController" style="swimlane;fontStyle=0;childLayout=stackLayout;horizontal=1;startSize=30;horizontalStack=0;resizeParent=1;resizeParentMax=0;resizeLast=0;collapsible=1;marginBottom=0;fontSize=12;strokeColor=default;strokeWidth=2;" parent="Qrksj41E7fYdLU6Ro5uq-1" vertex="1">
          <mxGeometry x="7560" y="1637.05" width="260" height="60" as="geometry" />
        </mxCell>
        <mxCell id="zMPMBc1fGept6kjPSyZu-61" value="" style="endArrow=none;html=1;rounded=0;fontSize=12;exitX=0;exitY=0;exitDx=0;exitDy=0;exitPerimeter=0;entryX=1.004;entryY=-0.033;entryDx=0;entryDy=0;entryPerimeter=0;" parent="zMPMBc1fGept6kjPSyZu-58" edge="1">
          <mxGeometry width="50" height="50" relative="1" as="geometry">
            <mxPoint y="30.000000000000227" as="sourcePoint" />
            <mxPoint x="261.03999999999996" y="29.010000000000446" as="targetPoint" />
          </mxGeometry>
        </mxCell>
        <mxCell id="zMPMBc1fGept6kjPSyZu-62" value="MicroserviceController" style="swimlane;fontStyle=0;childLayout=stackLayout;horizontal=1;startSize=30;horizontalStack=0;resizeParent=1;resizeParentMax=0;resizeLast=0;collapsible=1;marginBottom=0;fontSize=12;strokeColor=default;strokeWidth=2;" parent="Qrksj41E7fYdLU6Ro5uq-1" vertex="1">
          <mxGeometry x="7930" y="1710" width="230" height="60" as="geometry" />
        </mxCell>
        <mxCell id="zMPMBc1fGept6kjPSyZu-63" value="+getOpenClasses(): ClassAndReview[]" style="text;strokeColor=none;fillColor=none;align=left;verticalAlign=middle;spacingLeft=4;spacingRight=4;overflow=hidden;points=[[0,0.5],[1,0.5]];portConstraint=eastwest;rotatable=0;fontSize=12;fontStyle=4" parent="zMPMBc1fGept6kjPSyZu-62" vertex="1">
          <mxGeometry y="30" width="230" height="30" as="geometry" />
        </mxCell>
        <mxCell id="zMPMBc1fGept6kjPSyZu-64" value="Registration" style="swimlane;fontStyle=0;childLayout=stackLayout;horizontal=1;startSize=30;horizontalStack=0;resizeParent=1;resizeParentMax=0;resizeLast=0;collapsible=1;marginBottom=0;fontSize=12;strokeColor=default;strokeWidth=2;" parent="Qrksj41E7fYdLU6Ro5uq-1" vertex="1">
          <mxGeometry x="7645" y="1807.05" width="260" height="150" as="geometry">
            <mxRectangle x="2790" y="1330" width="130" height="30" as="alternateBounds" />
          </mxGeometry>
        </mxCell>
        <mxCell id="zMPMBc1fGept6kjPSyZu-65" value="-mID: int" style="text;strokeColor=none;fillColor=none;align=left;verticalAlign=middle;spacingLeft=4;spacingRight=4;overflow=hidden;points=[[0,0.5],[1,0.5]];portConstraint=eastwest;rotatable=0;fontSize=12;" parent="zMPMBc1fGept6kjPSyZu-64" vertex="1">
          <mxGeometry y="30" width="260" height="30" as="geometry" />
        </mxCell>
        <mxCell id="zMPMBc1fGept6kjPSyZu-66" value="-cID: int" style="text;strokeColor=none;fillColor=none;align=left;verticalAlign=middle;spacingLeft=4;spacingRight=4;overflow=hidden;points=[[0,0.5],[1,0.5]];portConstraint=eastwest;rotatable=0;fontSize=12;" parent="zMPMBc1fGept6kjPSyZu-64" vertex="1">
          <mxGeometry y="60" width="260" height="30" as="geometry" />
        </mxCell>
        <mxCell id="zMPMBc1fGept6kjPSyZu-68" value="" style="endArrow=none;html=1;rounded=0;exitX=0.015;exitY=-0.133;exitDx=0;exitDy=0;exitPerimeter=0;entryX=1.008;entryY=-0.1;entryDx=0;entryDy=0;entryPerimeter=0;" parent="zMPMBc1fGept6kjPSyZu-64" edge="1">
          <mxGeometry relative="1" as="geometry">
            <mxPoint x="3.899999999999636" y="86.01000000000045" as="sourcePoint" />
            <mxPoint x="262.0799999999999" y="87.00000000000023" as="targetPoint" />
            <Array as="points">
              <mxPoint x="170" y="87" />
            </Array>
          </mxGeometry>
        </mxCell>
        <mxCell id="zMPMBc1fGept6kjPSyZu-69" value="&lt;span style=&quot;color: rgb(0 , 0 , 0) ; font-family: &amp;#34;helvetica&amp;#34; ; font-size: 12px ; font-style: normal ; font-weight: 400 ; letter-spacing: normal ; text-align: left ; text-indent: 0px ; text-transform: none ; word-spacing: 0px ; background-color: rgb(248 , 249 , 250) ; display: inline ; float: none&quot;&gt;+getCID(): int&lt;/span&gt;" style="text;whiteSpace=wrap;html=1;" parent="zMPMBc1fGept6kjPSyZu-64" vertex="1">
          <mxGeometry y="90" width="260" height="30" as="geometry" />
        </mxCell>
        <mxCell id="zMPMBc1fGept6kjPSyZu-70" value="&lt;font face=&quot;helvetica&quot;&gt;+getMID(): int&lt;/font&gt;" style="text;whiteSpace=wrap;html=1;" parent="zMPMBc1fGept6kjPSyZu-64" vertex="1">
          <mxGeometry y="120" width="260" height="30" as="geometry" />
        </mxCell>
        <mxCell id="zMPMBc1fGept6kjPSyZu-72" style="edgeStyle=orthogonalEdgeStyle;rounded=0;orthogonalLoop=1;jettySize=auto;html=1;entryX=0;entryY=0.5;entryDx=0;entryDy=0;fontSize=12;strokeColor=none;endArrow=none;endFill=0;" parent="Qrksj41E7fYdLU6Ro5uq-1" edge="1">
          <mxGeometry relative="1" as="geometry">
            <mxPoint x="7880" y="1712.0499999999997" as="targetPoint" />
            <mxPoint x="7820" y="1682.1" as="sourcePoint" />
          </mxGeometry>
        </mxCell>
        <mxCell id="zMPMBc1fGept6kjPSyZu-73" value="" style="endArrow=none;html=1;rounded=0;fontSize=12;exitX=0.388;exitY=0.013;exitDx=0;exitDy=0;entryX=0.715;entryY=1.165;entryDx=0;entryDy=0;entryPerimeter=0;exitPerimeter=0;" parent="Qrksj41E7fYdLU6Ro5uq-1" source="zMPMBc1fGept6kjPSyZu-64" edge="1">
          <mxGeometry width="50" height="50" relative="1" as="geometry">
            <mxPoint x="7000" y="177.05" as="sourcePoint" />
            <mxPoint x="7745.9" y="1702" as="targetPoint" />
          </mxGeometry>
        </mxCell>
        <mxCell id="zMPMBc1fGept6kjPSyZu-78" value="ListService" style="swimlane;fontStyle=0;childLayout=stackLayout;horizontal=1;startSize=30;horizontalStack=0;resizeParent=1;resizeParentMax=0;resizeLast=0;collapsible=1;marginBottom=0;fontSize=12;strokeColor=default;strokeWidth=2;" parent="Qrksj41E7fYdLU6Ro5uq-1" vertex="1">
          <mxGeometry x="8035.07" y="1637.05" width="260" height="60" as="geometry" />
        </mxCell>
        <mxCell id="zMPMBc1fGept6kjPSyZu-79" value="+getClassesAndReviews(): ClassAndReview[]" style="text;strokeColor=none;fillColor=none;align=left;verticalAlign=middle;spacingLeft=4;spacingRight=4;overflow=hidden;points=[[0,0.5],[1,0.5]];portConstraint=eastwest;rotatable=0;fontSize=12;fontStyle=4" parent="zMPMBc1fGept6kjPSyZu-78" vertex="1">
          <mxGeometry y="30" width="260" height="30" as="geometry" />
        </mxCell>
        <mxCell id="zMPMBc1fGept6kjPSyZu-81" value="ClassAndReview" style="swimlane;fontStyle=0;childLayout=stackLayout;horizontal=1;startSize=30;horizontalStack=0;resizeParent=1;resizeParentMax=0;resizeLast=0;collapsible=1;marginBottom=0;fontSize=12;strokeColor=default;strokeWidth=2;" parent="Qrksj41E7fYdLU6Ro5uq-1" vertex="1">
          <mxGeometry x="7938.75" y="1807.05" width="260" height="180" as="geometry">
            <mxRectangle x="2790" y="1330" width="130" height="30" as="alternateBounds" />
          </mxGeometry>
        </mxCell>
        <mxCell id="zMPMBc1fGept6kjPSyZu-82" value="+name: String" style="text;strokeColor=none;fillColor=none;align=left;verticalAlign=middle;spacingLeft=4;spacingRight=4;overflow=hidden;points=[[0,0.5],[1,0.5]];portConstraint=eastwest;rotatable=0;fontSize=12;" parent="zMPMBc1fGept6kjPSyZu-81" vertex="1">
          <mxGeometry y="30" width="260" height="30" as="geometry" />
        </mxCell>
        <mxCell id="zMPMBc1fGept6kjPSyZu-83" value="+cID: int" style="text;strokeColor=none;fillColor=none;align=left;verticalAlign=middle;spacingLeft=4;spacingRight=4;overflow=hidden;points=[[0,0.5],[1,0.5]];portConstraint=eastwest;rotatable=0;fontSize=12;" parent="zMPMBc1fGept6kjPSyZu-81" vertex="1">
          <mxGeometry y="60" width="260" height="30" as="geometry" />
        </mxCell>
        <mxCell id="zMPMBc1fGept6kjPSyZu-84" value="+dateTime: DateTime" style="text;strokeColor=none;fillColor=none;align=left;verticalAlign=middle;spacingLeft=4;spacingRight=4;overflow=hidden;points=[[0,0.5],[1,0.5]];portConstraint=eastwest;rotatable=0;fontSize=12;" parent="zMPMBc1fGept6kjPSyZu-81" vertex="1">
          <mxGeometry y="90" width="260" height="30" as="geometry" />
        </mxCell>
        <mxCell id="zMPMBc1fGept6kjPSyZu-85" value="&lt;span style=&quot;color: rgb(0 , 0 , 0) ; font-family: &amp;#34;helvetica&amp;#34; ; font-size: 12px ; font-style: normal ; font-weight: 400 ; letter-spacing: normal ; text-align: left ; text-indent: 0px ; text-transform: none ; word-spacing: 0px ; background-color: rgb(248 , 249 , 250) ; display: inline ; float: none&quot;&gt;+location: String&lt;/span&gt;" style="text;whiteSpace=wrap;html=1;" parent="zMPMBc1fGept6kjPSyZu-81" vertex="1">
          <mxGeometry y="120" width="260" height="30" as="geometry" />
        </mxCell>
        <mxCell id="zMPMBc1fGept6kjPSyZu-86" value="&lt;font face=&quot;helvetica&quot;&gt;+reviewRating: int&amp;nbsp;&lt;/font&gt;" style="text;whiteSpace=wrap;html=1;" parent="zMPMBc1fGept6kjPSyZu-81" vertex="1">
          <mxGeometry y="150" width="260" height="30" as="geometry" />
        </mxCell>
        <mxCell id="zMPMBc1fGept6kjPSyZu-89" value="" style="endArrow=none;html=1;rounded=0;fontSize=100;exitX=0.617;exitY=1;exitDx=0;exitDy=0;exitPerimeter=0;" parent="Qrksj41E7fYdLU6Ro5uq-1" source="zMPMBc1fGept6kjPSyZu-63" target="zMPMBc1fGept6kjPSyZu-81" edge="1">
          <mxGeometry width="50" height="50" relative="1" as="geometry">
            <mxPoint x="8110" y="1997.05" as="sourcePoint" />
            <mxPoint x="8160" y="1947.05" as="targetPoint" />
          </mxGeometry>
        </mxCell>
        <mxCell id="zMPMBc1fGept6kjPSyZu-90" value="RegistrationRepository" style="swimlane;fontStyle=0;childLayout=stackLayout;horizontal=1;startSize=30;horizontalStack=0;resizeParent=1;resizeParentMax=0;resizeLast=0;collapsible=1;marginBottom=0;fontSize=12;strokeColor=default;strokeWidth=2;" parent="Qrksj41E7fYdLU6Ro5uq-1" vertex="1">
          <mxGeometry x="7340" y="1807.05" width="280" height="90" as="geometry">
            <mxRectangle x="2790" y="1330" width="130" height="30" as="alternateBounds" />
          </mxGeometry>
        </mxCell>
        <mxCell id="zMPMBc1fGept6kjPSyZu-92" value="+save(Registration reg): void" style="text;strokeColor=none;fillColor=none;align=left;verticalAlign=middle;spacingLeft=4;spacingRight=4;overflow=hidden;points=[[0,0.5],[1,0.5]];portConstraint=eastwest;rotatable=0;fontSize=12;" parent="zMPMBc1fGept6kjPSyZu-90" vertex="1">
          <mxGeometry y="30" width="280" height="30" as="geometry" />
        </mxCell>
        <mxCell id="zMPMBc1fGept6kjPSyZu-93" value="" style="endArrow=none;html=1;rounded=0;exitX=0.015;exitY=-0.133;exitDx=0;exitDy=0;exitPerimeter=0;entryX=1.008;entryY=-0.1;entryDx=0;entryDy=0;entryPerimeter=0;" parent="zMPMBc1fGept6kjPSyZu-90" edge="1">
          <mxGeometry relative="1" as="geometry">
            <mxPoint x="3.899999999999636" y="86.01000000000045" as="sourcePoint" />
            <mxPoint x="262.0799999999999" y="87.00000000000023" as="targetPoint" />
            <Array as="points">
              <mxPoint x="170" y="87" />
            </Array>
          </mxGeometry>
        </mxCell>
        <mxCell id="zMPMBc1fGept6kjPSyZu-95" value="&lt;font face=&quot;helvetica&quot;&gt;+findAllByMemberID(int memberID): Registration[]&lt;/font&gt;" style="text;whiteSpace=wrap;html=1;" parent="zMPMBc1fGept6kjPSyZu-90" vertex="1">
          <mxGeometry y="60" width="280" height="30" as="geometry" />
        </mxCell>
        <mxCell id="zMPMBc1fGept6kjPSyZu-96" value="" style="endArrow=none;html=1;rounded=0;fontSize=12;entryX=0.893;entryY=-0.023;entryDx=0;entryDy=0;entryPerimeter=0;" parent="Qrksj41E7fYdLU6Ro5uq-1" target="zMPMBc1fGept6kjPSyZu-90" edge="1">
          <mxGeometry width="50" height="50" relative="1" as="geometry">
            <mxPoint x="7590" y="1701" as="sourcePoint" />
            <mxPoint x="7590" y="1800" as="targetPoint" />
          </mxGeometry>
        </mxCell>
        <mxCell id="zMPMBc1fGept6kjPSyZu-97" value="" style="endArrow=none;html=1;rounded=0;entryX=0.904;entryY=1.098;entryDx=0;entryDy=0;entryPerimeter=0;exitX=0.25;exitY=0;exitDx=0;exitDy=0;" parent="Qrksj41E7fYdLU6Ro5uq-1" source="zMPMBc1fGept6kjPSyZu-81" edge="1">
          <mxGeometry width="50" height="50" relative="1" as="geometry">
            <mxPoint x="8000" y="1800" as="sourcePoint" />
            <mxPoint x="7795.04" y="1699.9900000000002" as="targetPoint" />
            <Array as="points">
              <mxPoint x="8004" y="1780" />
              <mxPoint x="7800" y="1780" />
            </Array>
          </mxGeometry>
        </mxCell>
        <mxCell id="zMPMBc1fGept6kjPSyZu-98" value="RegistrationController" style="swimlane;fontStyle=0;childLayout=stackLayout;horizontal=1;startSize=30;horizontalStack=0;resizeParent=1;resizeParentMax=0;resizeLast=0;collapsible=1;marginBottom=0;fontSize=12;strokeColor=default;strokeWidth=2;" parent="Qrksj41E7fYdLU6Ro5uq-1" vertex="1">
          <mxGeometry x="7280" y="1637.05" width="260" height="60" as="geometry" />
        </mxCell>
        <mxCell id="zMPMBc1fGept6kjPSyZu-99" value="+getRegistrations(int memberID): int" style="text;strokeColor=none;fillColor=none;align=left;verticalAlign=middle;spacingLeft=4;spacingRight=4;overflow=hidden;points=[[0,0.5],[1,0.5]];portConstraint=eastwest;rotatable=0;fontSize=12;" parent="zMPMBc1fGept6kjPSyZu-98" vertex="1">
          <mxGeometry y="30" width="260" height="30" as="geometry" />
        </mxCell>
        <mxCell id="zMPMBc1fGept6kjPSyZu-101" value="" style="endArrow=none;html=1;rounded=0;fontSize=12;exitX=0;exitY=0;exitDx=0;exitDy=0;exitPerimeter=0;entryX=1.004;entryY=-0.033;entryDx=0;entryDy=0;entryPerimeter=0;" parent="zMPMBc1fGept6kjPSyZu-98" source="zMPMBc1fGept6kjPSyZu-99" target="zMPMBc1fGept6kjPSyZu-99" edge="1">
          <mxGeometry width="50" height="50" relative="1" as="geometry">
            <mxPoint x="160" y="130" as="sourcePoint" />
            <mxPoint x="210" y="80" as="targetPoint" />
          </mxGeometry>
        </mxCell>
        <mxCell id="zMPMBc1fGept6kjPSyZu-102" value="" style="endArrow=none;html=1;rounded=0;fontSize=12;exitX=0.577;exitY=1.098;exitDx=0;exitDy=0;exitPerimeter=0;entryX=0.327;entryY=-0.023;entryDx=0;entryDy=0;entryPerimeter=0;" parent="Qrksj41E7fYdLU6Ro5uq-1" source="zMPMBc1fGept6kjPSyZu-99" target="zMPMBc1fGept6kjPSyZu-90" edge="1">
          <mxGeometry width="50" height="50" relative="1" as="geometry">
            <mxPoint x="7390" y="1730" as="sourcePoint" />
            <mxPoint x="7460" y="1800" as="targetPoint" />
          </mxGeometry>
        </mxCell>
        <mxCell id="zMPMBc1fGept6kjPSyZu-103" value="" style="endArrow=none;html=1;rounded=0;fontSize=100;exitX=0.592;exitY=1.098;exitDx=0;exitDy=0;exitPerimeter=0;entryX=0.966;entryY=0;entryDx=0;entryDy=0;entryPerimeter=0;" parent="Qrksj41E7fYdLU6Ro5uq-1" source="zMPMBc1fGept6kjPSyZu-79" target="zMPMBc1fGept6kjPSyZu-81" edge="1">
          <mxGeometry width="50" height="50" relative="1" as="geometry">
            <mxPoint x="8300" y="1770" as="sourcePoint" />
            <mxPoint x="8187" y="1800" as="targetPoint" />
          </mxGeometry>
        </mxCell>
        <mxCell id="zMPMBc1fGept6kjPSyZu-104" value="" style="endArrow=none;html=1;rounded=0;entryX=0.109;entryY=-0.017;entryDx=0;entryDy=0;entryPerimeter=0;" parent="Qrksj41E7fYdLU6Ro5uq-1" target="zMPMBc1fGept6kjPSyZu-62" edge="1">
          <mxGeometry width="50" height="50" relative="1" as="geometry">
            <mxPoint x="7820" y="1660" as="sourcePoint" />
            <mxPoint x="7870" y="1610" as="targetPoint" />
            <Array as="points">
              <mxPoint x="7955" y="1660" />
            </Array>
          </mxGeometry>
        </mxCell>
        <mxCell id="zMPMBc1fGept6kjPSyZu-106" value="" style="endArrow=none;html=1;rounded=0;exitX=0.283;exitY=-0.067;exitDx=0;exitDy=0;exitPerimeter=0;entryX=0;entryY=0.25;entryDx=0;entryDy=0;" parent="Qrksj41E7fYdLU6Ro5uq-1" source="zMPMBc1fGept6kjPSyZu-62" target="zMPMBc1fGept6kjPSyZu-78" edge="1">
          <mxGeometry width="50" height="50" relative="1" as="geometry">
            <mxPoint x="8000" y="1618.53" as="sourcePoint" />
            <mxPoint x="8050" y="1568.53" as="targetPoint" />
            <Array as="points">
              <mxPoint x="7995" y="1652" />
            </Array>
          </mxGeometry>
        </mxCell>
        <mxCell id="zMPMBc1fGept6kjPSyZu-107" value="&lt;p style=&quot;margin: 0px ; margin-top: 6px ; text-align: center&quot;&gt;&lt;b&gt;ClassManagement&lt;/b&gt;&lt;/p&gt;" style="align=left;overflow=fill;html=1;dropTarget=0;" parent="Qrksj41E7fYdLU6Ro5uq-1" vertex="1">
          <mxGeometry x="7569.37" y="1340" width="110" height="49.33" as="geometry" />
        </mxCell>
        <mxCell id="zMPMBc1fGept6kjPSyZu-108" value="&lt;p style=&quot;margin: 0px ; margin-top: 6px ; text-align: center&quot;&gt;&lt;b&gt;Review&lt;/b&gt;&lt;/p&gt;" style="align=left;overflow=fill;html=1;dropTarget=0;" parent="Qrksj41E7fYdLU6Ro5uq-1" vertex="1">
          <mxGeometry x="7460" y="1340" width="84.11" height="49.33" as="geometry" />
        </mxCell>
        <mxCell id="zMPMBc1fGept6kjPSyZu-109" value="&lt;p style=&quot;margin: 0px ; margin-top: 6px ; text-align: center&quot;&gt;&lt;b&gt;Review&lt;/b&gt;&lt;/p&gt;" style="align=left;overflow=fill;html=1;dropTarget=0;" parent="Qrksj41E7fYdLU6Ro5uq-1" vertex="1">
          <mxGeometry x="8174.5199999999995" y="1380.67" width="84.11" height="49.33" as="geometry" />
        </mxCell>
        <mxCell id="zMPMBc1fGept6kjPSyZu-110" value="&lt;p style=&quot;margin: 0px ; margin-top: 6px ; text-align: center&quot;&gt;&lt;b&gt;ClassManagement&lt;/b&gt;&lt;/p&gt;" style="align=left;overflow=fill;html=1;dropTarget=0;" parent="Qrksj41E7fYdLU6Ro5uq-1" vertex="1">
          <mxGeometry x="8040" y="1380.67" width="110" height="49.33" as="geometry" />
        </mxCell>
      </root>
    </mxGraphModel>
  </diagram>
  <diagram id="yE_SDpJlIo4Vk58qPEpH" name="Class M.">
    <mxGraphModel dx="2272" dy="762" grid="1" gridSize="10" guides="1" tooltips="1" connect="1" arrows="1" fold="1" page="1" pageScale="1" pageWidth="850" pageHeight="1100" math="0" shadow="0">
      <root>
        <mxCell id="LvOzg5FjJoghdi6FQML1-0" />
        <mxCell id="LvOzg5FjJoghdi6FQML1-1" parent="LvOzg5FjJoghdi6FQML1-0" />
        <mxCell id="rIsYeW7LoNB-ckGz3sTS-0" value="Class Management" style="html=1;labelPosition=center;verticalLabelPosition=top;align=center;verticalAlign=bottom;" parent="LvOzg5FjJoghdi6FQML1-1" vertex="1">
          <mxGeometry x="1790" y="200" width="230" height="390" as="geometry" />
        </mxCell>
        <mxCell id="rIsYeW7LoNB-ckGz3sTS-1" style="edgeStyle=orthogonalEdgeStyle;rounded=0;orthogonalLoop=1;jettySize=auto;html=1;entryX=0.007;entryY=0.6;entryDx=0;entryDy=0;entryPerimeter=0;" parent="LvOzg5FjJoghdi6FQML1-1" source="rIsYeW7LoNB-ckGz3sTS-4" target="rIsYeW7LoNB-ckGz3sTS-5" edge="1">
          <mxGeometry relative="1" as="geometry" />
        </mxCell>
        <mxCell id="rIsYeW7LoNB-ckGz3sTS-2" style="edgeStyle=orthogonalEdgeStyle;rounded=0;orthogonalLoop=1;jettySize=auto;html=1;entryX=0;entryY=0.5;entryDx=0;entryDy=0;" parent="LvOzg5FjJoghdi6FQML1-1" source="rIsYeW7LoNB-ckGz3sTS-4" target="rIsYeW7LoNB-ckGz3sTS-7" edge="1">
          <mxGeometry relative="1" as="geometry" />
        </mxCell>
        <mxCell id="rIsYeW7LoNB-ckGz3sTS-4" value="Trainer" style="shape=umlActor;verticalLabelPosition=bottom;verticalAlign=top;html=1;" parent="LvOzg5FjJoghdi6FQML1-1" vertex="1">
          <mxGeometry x="1610" y="380" width="30" height="60" as="geometry" />
        </mxCell>
        <mxCell id="rIsYeW7LoNB-ckGz3sTS-5" value="Create Class" style="ellipse;whiteSpace=wrap;html=1;" parent="LvOzg5FjJoghdi6FQML1-1" vertex="1">
          <mxGeometry x="1835" y="250" width="140" height="70" as="geometry" />
        </mxCell>
        <mxCell id="rIsYeW7LoNB-ckGz3sTS-7" value="View Classes" style="ellipse;whiteSpace=wrap;html=1;" parent="LvOzg5FjJoghdi6FQML1-1" vertex="1">
          <mxGeometry x="1835" y="470" width="140" height="70" as="geometry" />
        </mxCell>
        <mxCell id="8VSIVmYYoZUy52MoKhtW-0" value="«Component»&lt;br&gt;&lt;b&gt;Class Management&lt;/b&gt;" style="html=1;dropTarget=0;labelPosition=center;verticalLabelPosition=top;align=center;verticalAlign=bottom;" parent="LvOzg5FjJoghdi6FQML1-1" vertex="1">
          <mxGeometry x="-30" y="180" width="630" height="380" as="geometry" />
        </mxCell>
        <mxCell id="8VSIVmYYoZUy52MoKhtW-1" value="" style="shape=module;jettyWidth=8;jettyHeight=4;html=0;" parent="8VSIVmYYoZUy52MoKhtW-0" vertex="1">
          <mxGeometry x="1" width="20" height="20" relative="1" as="geometry">
            <mxPoint x="-27" y="7" as="offset" />
          </mxGeometry>
        </mxCell>
        <mxCell id="8VSIVmYYoZUy52MoKhtW-2" value="&lt;p style=&quot;margin: 0px ; margin-top: 6px ; text-align: center&quot;&gt;&lt;b&gt;&amp;lt;&amp;lt;view&amp;gt;&amp;gt;&lt;/b&gt;&lt;/p&gt;&lt;hr&gt;&lt;p style=&quot;margin: 0px ; margin-left: 8px&quot;&gt;&lt;br&gt;&lt;br&gt;&lt;/p&gt;" style="align=left;overflow=fill;html=1;dropTarget=0;" parent="LvOzg5FjJoghdi6FQML1-1" vertex="1">
          <mxGeometry x="205.00012701892217" y="200" width="210" height="130" as="geometry" />
        </mxCell>
        <mxCell id="8VSIVmYYoZUy52MoKhtW-3" value="" style="shape=component;jettyWidth=8;jettyHeight=4;html=0;" parent="8VSIVmYYoZUy52MoKhtW-2" vertex="1">
          <mxGeometry x="1" width="20" height="20" relative="1" as="geometry">
            <mxPoint x="-24" y="4" as="offset" />
          </mxGeometry>
        </mxCell>
        <mxCell id="8VSIVmYYoZUy52MoKhtW-4" value="&lt;p style=&quot;margin: 0px ; margin-top: 6px ; text-align: center&quot;&gt;&lt;b&gt;&amp;lt;&amp;lt;controller&amp;gt;&amp;gt;&lt;/b&gt;&lt;/p&gt;&lt;hr&gt;&lt;p style=&quot;margin: 0px ; margin-left: 8px&quot;&gt;&lt;br&gt;&lt;br&gt;&lt;/p&gt;" style="align=left;overflow=fill;html=1;dropTarget=0;" parent="LvOzg5FjJoghdi6FQML1-1" vertex="1">
          <mxGeometry x="-19.99987298107783" y="395" width="210" height="130" as="geometry" />
        </mxCell>
        <mxCell id="8VSIVmYYoZUy52MoKhtW-5" value="" style="shape=component;jettyWidth=8;jettyHeight=4;html=0;" parent="8VSIVmYYoZUy52MoKhtW-4" vertex="1">
          <mxGeometry x="1" width="20" height="20" relative="1" as="geometry">
            <mxPoint x="-24" y="4" as="offset" />
          </mxGeometry>
        </mxCell>
        <mxCell id="8VSIVmYYoZUy52MoKhtW-6" style="rounded=0;orthogonalLoop=1;jettySize=auto;html=1;strokeColor=default;endArrow=none;endFill=0;" parent="LvOzg5FjJoghdi6FQML1-1" source="8VSIVmYYoZUy52MoKhtW-7" target="8VSIVmYYoZUy52MoKhtW-9" edge="1">
          <mxGeometry relative="1" as="geometry" />
        </mxCell>
        <mxCell id="8VSIVmYYoZUy52MoKhtW-7" value="&lt;p style=&quot;margin: 0px ; margin-top: 6px ; text-align: center&quot;&gt;&lt;b&gt;&amp;lt;&amp;lt;model&amp;gt;&amp;gt;&lt;/b&gt;&lt;/p&gt;&lt;hr&gt;&lt;p style=&quot;margin: 0px ; margin-left: 8px&quot;&gt;&lt;br&gt;&lt;br&gt;&lt;/p&gt;" style="align=left;overflow=fill;html=1;dropTarget=0;" parent="LvOzg5FjJoghdi6FQML1-1" vertex="1">
          <mxGeometry x="350.00012701892217" y="379.5" width="210" height="130" as="geometry" />
        </mxCell>
        <mxCell id="8VSIVmYYoZUy52MoKhtW-8" value="" style="shape=component;jettyWidth=8;jettyHeight=4;html=0;" parent="8VSIVmYYoZUy52MoKhtW-7" vertex="1">
          <mxGeometry x="1" width="20" height="20" relative="1" as="geometry">
            <mxPoint x="-24" y="4" as="offset" />
          </mxGeometry>
        </mxCell>
        <mxCell id="8VSIVmYYoZUy52MoKhtW-9" value="&lt;p style=&quot;margin: 0px ; margin-top: 6px ; text-align: center&quot;&gt;&lt;b&gt;&amp;lt;&amp;lt;database&amp;gt;&amp;gt;&lt;/b&gt;&lt;/p&gt;&lt;hr&gt;&lt;p style=&quot;margin: 0px ; margin-left: 8px&quot;&gt;&lt;br&gt;&lt;br&gt;&lt;/p&gt;" style="align=left;overflow=fill;html=1;dropTarget=0;" parent="LvOzg5FjJoghdi6FQML1-1" vertex="1">
          <mxGeometry x="350.00012701892217" y="630" width="210" height="130" as="geometry" />
        </mxCell>
        <mxCell id="8VSIVmYYoZUy52MoKhtW-10" value="" style="shape=component;jettyWidth=8;jettyHeight=4;html=0;" parent="8VSIVmYYoZUy52MoKhtW-9" vertex="1">
          <mxGeometry x="1" width="20" height="20" relative="1" as="geometry">
            <mxPoint x="-24" y="4" as="offset" />
          </mxGeometry>
        </mxCell>
        <mxCell id="8VSIVmYYoZUy52MoKhtW-11" value="&lt;p style=&quot;margin: 0px ; margin-top: 6px ; text-align: center&quot;&gt;&lt;b&gt;Class Management&lt;br&gt;Controller&lt;/b&gt;&lt;/p&gt;" style="align=left;overflow=fill;html=1;dropTarget=0;" parent="LvOzg5FjJoghdi6FQML1-1" vertex="1">
          <mxGeometry x="10" y="420" width="160" height="60" as="geometry" />
        </mxCell>
        <mxCell id="8VSIVmYYoZUy52MoKhtW-12" value="" style="shape=component;jettyWidth=8;jettyHeight=4;html=0;" parent="8VSIVmYYoZUy52MoKhtW-11" vertex="1">
          <mxGeometry x="1" width="20" height="20" relative="1" as="geometry">
            <mxPoint x="-24" y="4" as="offset" />
          </mxGeometry>
        </mxCell>
        <mxCell id="8VSIVmYYoZUy52MoKhtW-13" value="&lt;p style=&quot;margin: 0px ; margin-top: 6px ; text-align: center&quot;&gt;&lt;b&gt;Class Management &lt;br&gt;Model&lt;/b&gt;&lt;/p&gt;" style="align=left;overflow=fill;html=1;dropTarget=0;" parent="LvOzg5FjJoghdi6FQML1-1" vertex="1">
          <mxGeometry x="380" y="419.5" width="160" height="60" as="geometry" />
        </mxCell>
        <mxCell id="8VSIVmYYoZUy52MoKhtW-14" value="" style="shape=component;jettyWidth=8;jettyHeight=4;html=0;" parent="8VSIVmYYoZUy52MoKhtW-13" vertex="1">
          <mxGeometry x="1" width="20" height="20" relative="1" as="geometry">
            <mxPoint x="-24" y="4" as="offset" />
          </mxGeometry>
        </mxCell>
        <mxCell id="8VSIVmYYoZUy52MoKhtW-15" value="&lt;p style=&quot;margin: 0px ; margin-top: 6px ; text-align: center&quot;&gt;&lt;b&gt;ClassList&lt;/b&gt;&lt;/p&gt;&lt;p style=&quot;margin: 0px ; margin-left: 8px&quot;&gt;&lt;br&gt;&lt;/p&gt;" style="align=left;overflow=fill;html=1;dropTarget=0;" parent="LvOzg5FjJoghdi6FQML1-1" vertex="1">
          <mxGeometry x="235.00012701892217" y="235" width="150" height="60" as="geometry" />
        </mxCell>
        <mxCell id="8VSIVmYYoZUy52MoKhtW-16" value="" style="shape=component;jettyWidth=8;jettyHeight=4;html=0;" parent="8VSIVmYYoZUy52MoKhtW-15" vertex="1">
          <mxGeometry x="1" width="20" height="20" relative="1" as="geometry">
            <mxPoint x="-24" y="4" as="offset" />
          </mxGeometry>
        </mxCell>
        <mxCell id="8VSIVmYYoZUy52MoKhtW-17" value="&lt;p style=&quot;margin: 0px ; margin-top: 6px ; text-align: center&quot;&gt;&lt;b&gt;Classes&lt;/b&gt;&lt;/p&gt;" style="align=left;overflow=fill;html=1;dropTarget=0;" parent="LvOzg5FjJoghdi6FQML1-1" vertex="1">
          <mxGeometry x="380.00012701892217" y="665" width="150" height="60" as="geometry" />
        </mxCell>
        <mxCell id="8VSIVmYYoZUy52MoKhtW-18" value="" style="shape=component;jettyWidth=8;jettyHeight=4;html=0;" parent="8VSIVmYYoZUy52MoKhtW-17" vertex="1">
          <mxGeometry x="1" width="20" height="20" relative="1" as="geometry">
            <mxPoint x="-24" y="4" as="offset" />
          </mxGeometry>
        </mxCell>
        <mxCell id="8VSIVmYYoZUy52MoKhtW-19" value="&lt;p style=&quot;margin: 0px ; margin-top: 6px ; text-align: center&quot;&gt;&lt;b&gt;ClassListService&lt;/b&gt;&lt;/p&gt;" style="align=left;overflow=fill;html=1;dropTarget=0;" parent="LvOzg5FjJoghdi6FQML1-1" vertex="1">
          <mxGeometry x="800.0001270189222" y="414.5" width="150" height="60" as="geometry" />
        </mxCell>
        <mxCell id="8VSIVmYYoZUy52MoKhtW-20" value="" style="shape=component;jettyWidth=8;jettyHeight=4;html=0;" parent="8VSIVmYYoZUy52MoKhtW-19" vertex="1">
          <mxGeometry x="1" width="20" height="20" relative="1" as="geometry">
            <mxPoint x="-24" y="4" as="offset" />
          </mxGeometry>
        </mxCell>
        <mxCell id="8VSIVmYYoZUy52MoKhtW-21" value="GetClassList()" style="rounded=0;orthogonalLoop=1;jettySize=auto;html=1;endArrow=none;endFill=0;sketch=0;sourcePerimeterSpacing=0;targetPerimeterSpacing=0;exitX=1;exitY=0.75;exitDx=0;exitDy=0;" parent="LvOzg5FjJoghdi6FQML1-1" source="8VSIVmYYoZUy52MoKhtW-7" target="8VSIVmYYoZUy52MoKhtW-23" edge="1">
          <mxGeometry relative="1" as="geometry">
            <mxPoint x="410.00012701892217" y="495" as="sourcePoint" />
          </mxGeometry>
        </mxCell>
        <mxCell id="8VSIVmYYoZUy52MoKhtW-22" value="" style="rounded=0;orthogonalLoop=1;jettySize=auto;html=1;endArrow=halfCircle;endFill=0;entryX=0.5;entryY=0.5;endSize=6;strokeWidth=1;sketch=0;exitX=0;exitY=1;exitDx=0;exitDy=0;" parent="LvOzg5FjJoghdi6FQML1-1" source="8VSIVmYYoZUy52MoKhtW-19" target="8VSIVmYYoZUy52MoKhtW-23" edge="1">
          <mxGeometry relative="1" as="geometry">
            <mxPoint x="450.00012701892217" y="495" as="sourcePoint" />
          </mxGeometry>
        </mxCell>
        <object label="" id="8VSIVmYYoZUy52MoKhtW-23">
          <mxCell style="ellipse;whiteSpace=wrap;html=1;align=center;aspect=fixed;resizable=0;points=[];outlineConnect=0;sketch=0;" parent="LvOzg5FjJoghdi6FQML1-1" vertex="1">
            <mxGeometry x="740.0001270189222" y="470" width="10" height="10" as="geometry" />
          </mxCell>
        </object>
        <mxCell id="8VSIVmYYoZUy52MoKhtW-24" value="PrepareClassList()" style="rounded=0;orthogonalLoop=1;jettySize=auto;html=1;endArrow=none;endFill=0;sketch=0;sourcePerimeterSpacing=0;targetPerimeterSpacing=0;exitX=0.75;exitY=0;exitDx=0;exitDy=0;" parent="LvOzg5FjJoghdi6FQML1-1" source="8VSIVmYYoZUy52MoKhtW-19" target="8VSIVmYYoZUy52MoKhtW-26" edge="1">
          <mxGeometry relative="1" as="geometry">
            <mxPoint x="430.00012701892217" y="355" as="sourcePoint" />
          </mxGeometry>
        </mxCell>
        <mxCell id="8VSIVmYYoZUy52MoKhtW-25" value="" style="rounded=0;orthogonalLoop=1;jettySize=auto;html=1;endArrow=halfCircle;endFill=0;entryX=0.5;entryY=0.5;endSize=6;strokeWidth=1;sketch=0;exitX=1;exitY=0.5;exitDx=0;exitDy=0;" parent="LvOzg5FjJoghdi6FQML1-1" source="8VSIVmYYoZUy52MoKhtW-2" target="8VSIVmYYoZUy52MoKhtW-26" edge="1">
          <mxGeometry relative="1" as="geometry">
            <mxPoint x="470.00012701892217" y="355" as="sourcePoint" />
          </mxGeometry>
        </mxCell>
        <mxCell id="8VSIVmYYoZUy52MoKhtW-26" value="" style="ellipse;whiteSpace=wrap;html=1;align=center;aspect=fixed;resizable=0;points=[];outlineConnect=0;sketch=0;rotation=35;" parent="LvOzg5FjJoghdi6FQML1-1" vertex="1">
          <mxGeometry x="910.0001270189222" y="260" width="10" height="10" as="geometry" />
        </mxCell>
        <mxCell id="8VSIVmYYoZUy52MoKhtW-27" value="DisplayClasses()" style="rounded=0;orthogonalLoop=1;jettySize=auto;html=1;endArrow=none;endFill=0;sketch=0;sourcePerimeterSpacing=0;targetPerimeterSpacing=0;exitX=0;exitY=0.5;exitDx=0;exitDy=0;" parent="LvOzg5FjJoghdi6FQML1-1" source="8VSIVmYYoZUy52MoKhtW-2" target="8VSIVmYYoZUy52MoKhtW-29" edge="1">
          <mxGeometry relative="1" as="geometry">
            <mxPoint x="280.00012701892217" y="365" as="sourcePoint" />
          </mxGeometry>
        </mxCell>
        <mxCell id="8VSIVmYYoZUy52MoKhtW-28" value="" style="rounded=0;orthogonalLoop=1;jettySize=auto;html=1;endArrow=halfCircle;endFill=0;entryX=0.5;entryY=0.5;endSize=6;strokeWidth=1;sketch=0;exitX=0.5;exitY=0;exitDx=0;exitDy=0;" parent="LvOzg5FjJoghdi6FQML1-1" source="8VSIVmYYoZUy52MoKhtW-4" target="8VSIVmYYoZUy52MoKhtW-29" edge="1">
          <mxGeometry relative="1" as="geometry">
            <mxPoint x="320.00012701892217" y="365" as="sourcePoint" />
          </mxGeometry>
        </mxCell>
        <mxCell id="8VSIVmYYoZUy52MoKhtW-29" value="" style="ellipse;whiteSpace=wrap;html=1;align=center;aspect=fixed;resizable=0;points=[];outlineConnect=0;sketch=0;" parent="LvOzg5FjJoghdi6FQML1-1" vertex="1">
          <mxGeometry x="90.00012701892217" y="330" width="10" height="10" as="geometry" />
        </mxCell>
        <mxCell id="8VSIVmYYoZUy52MoKhtW-31" value="GetUser()" style="rounded=0;orthogonalLoop=1;jettySize=auto;html=1;endArrow=halfCircle;endFill=0;endSize=6;strokeWidth=1;sketch=0;exitX=1;exitY=0.5;exitDx=0;exitDy=0;" parent="LvOzg5FjJoghdi6FQML1-1" source="8VSIVmYYoZUy52MoKhtW-19" edge="1">
          <mxGeometry relative="1" as="geometry">
            <mxPoint x="960.0001270189222" y="424.5" as="sourcePoint" />
            <mxPoint x="1125.0001270189223" y="444.5" as="targetPoint" />
            <Array as="points" />
          </mxGeometry>
        </mxCell>
        <mxCell id="8VSIVmYYoZUy52MoKhtW-32" value="GetLocation()" style="rounded=0;orthogonalLoop=1;jettySize=auto;html=1;endArrow=halfCircle;endFill=0;endSize=6;strokeWidth=1;sketch=0;exitX=1;exitY=1;exitDx=0;exitDy=0;" parent="LvOzg5FjJoghdi6FQML1-1" source="8VSIVmYYoZUy52MoKhtW-19" edge="1">
          <mxGeometry relative="1" as="geometry">
            <mxPoint x="970.0001270189222" y="434.5" as="sourcePoint" />
            <mxPoint x="1125.0001270189223" y="474.5" as="targetPoint" />
            <Array as="points" />
          </mxGeometry>
        </mxCell>
        <mxCell id="8VSIVmYYoZUy52MoKhtW-39" value="CreateClass()" style="rounded=0;orthogonalLoop=1;jettySize=auto;html=1;endArrow=none;endFill=0;sketch=0;sourcePerimeterSpacing=0;targetPerimeterSpacing=0;strokeColor=default;exitX=0;exitY=0.323;exitDx=0;exitDy=0;exitPerimeter=0;" parent="LvOzg5FjJoghdi6FQML1-1" source="8VSIVmYYoZUy52MoKhtW-7" target="8VSIVmYYoZUy52MoKhtW-41" edge="1">
          <mxGeometry relative="1" as="geometry">
            <mxPoint x="120.00012701892217" y="575" as="sourcePoint" />
          </mxGeometry>
        </mxCell>
        <mxCell id="8VSIVmYYoZUy52MoKhtW-40" value="" style="rounded=0;orthogonalLoop=1;jettySize=auto;html=1;endArrow=halfCircle;endFill=0;entryX=0.5;entryY=0.5;endSize=6;strokeWidth=1;sketch=0;exitX=1;exitY=0.25;exitDx=0;exitDy=0;" parent="LvOzg5FjJoghdi6FQML1-1" source="8VSIVmYYoZUy52MoKhtW-4" target="8VSIVmYYoZUy52MoKhtW-41" edge="1">
          <mxGeometry relative="1" as="geometry">
            <mxPoint x="160.00012701892217" y="575" as="sourcePoint" />
          </mxGeometry>
        </mxCell>
        <mxCell id="8VSIVmYYoZUy52MoKhtW-41" value="" style="ellipse;whiteSpace=wrap;html=1;align=center;aspect=fixed;resizable=0;points=[];outlineConnect=0;sketch=0;" parent="LvOzg5FjJoghdi6FQML1-1" vertex="1">
          <mxGeometry x="235.00012701892217" y="419.5" width="10" height="10" as="geometry" />
        </mxCell>
        <mxCell id="8VSIVmYYoZUy52MoKhtW-42" value="GetNumberOfClasses()" style="edgeStyle=none;rounded=0;orthogonalLoop=1;jettySize=auto;html=1;entryX=0;entryY=0.25;entryDx=0;entryDy=0;endArrow=none;endFill=0;strokeColor=default;" parent="LvOzg5FjJoghdi6FQML1-1" source="8VSIVmYYoZUy52MoKhtW-43" target="8VSIVmYYoZUy52MoKhtW-4" edge="1">
          <mxGeometry relative="1" as="geometry" />
        </mxCell>
        <mxCell id="8VSIVmYYoZUy52MoKhtW-43" value="" style="ellipse;whiteSpace=wrap;html=1;align=center;aspect=fixed;resizable=0;points=[];outlineConnect=0;sketch=0;rotation=-150;" parent="LvOzg5FjJoghdi6FQML1-1" vertex="1">
          <mxGeometry x="-209.99987298107783" y="420" width="10" height="10" as="geometry" />
        </mxCell>
        <mxCell id="8VSIVmYYoZUy52MoKhtW-44" value="GetClasses()" style="rounded=0;orthogonalLoop=1;jettySize=auto;html=1;endArrow=none;endFill=0;sketch=0;sourcePerimeterSpacing=0;targetPerimeterSpacing=0;strokeColor=default;exitX=0;exitY=0.5;exitDx=0;exitDy=0;" parent="LvOzg5FjJoghdi6FQML1-1" source="8VSIVmYYoZUy52MoKhtW-4" target="8VSIVmYYoZUy52MoKhtW-45" edge="1">
          <mxGeometry relative="1" as="geometry">
            <mxPoint x="-99.99987298107783" y="465" as="sourcePoint" />
          </mxGeometry>
        </mxCell>
        <mxCell id="8VSIVmYYoZUy52MoKhtW-45" value="" style="ellipse;whiteSpace=wrap;html=1;align=center;aspect=fixed;resizable=0;points=[];outlineConnect=0;sketch=0;" parent="LvOzg5FjJoghdi6FQML1-1" vertex="1">
          <mxGeometry x="-209.99987298107783" y="455" width="10" height="10" as="geometry" />
        </mxCell>
        <mxCell id="dRir6lEZ_C8JTmkdntRT-0" value="ClassController" style="swimlane;fontStyle=0;childLayout=stackLayout;horizontal=1;startSize=30;horizontalStack=0;resizeParent=1;resizeParentMax=0;resizeLast=0;collapsible=1;marginBottom=0;fontSize=12;strokeColor=default;strokeWidth=2;" parent="LvOzg5FjJoghdi6FQML1-1" vertex="1">
          <mxGeometry x="40" y="1310" width="240" height="90" as="geometry">
            <mxRectangle x="40" y="1310" width="110" height="30" as="alternateBounds" />
          </mxGeometry>
        </mxCell>
        <mxCell id="dRir6lEZ_C8JTmkdntRT-2" value="+GetClasses()" style="text;strokeColor=none;fillColor=none;align=left;verticalAlign=middle;spacingLeft=4;spacingRight=4;overflow=hidden;points=[[0,0.5],[1,0.5]];portConstraint=eastwest;rotatable=0;fontSize=12;" parent="dRir6lEZ_C8JTmkdntRT-0" vertex="1">
          <mxGeometry y="30" width="240" height="30" as="geometry" />
        </mxCell>
        <mxCell id="dRir6lEZ_C8JTmkdntRT-3" value="+GetNumberOfClasses()" style="text;strokeColor=none;fillColor=none;align=left;verticalAlign=middle;spacingLeft=4;spacingRight=4;overflow=hidden;points=[[0,0.5],[1,0.5]];portConstraint=eastwest;rotatable=0;fontSize=12;" parent="dRir6lEZ_C8JTmkdntRT-0" vertex="1">
          <mxGeometry y="60" width="240" height="30" as="geometry" />
        </mxCell>
        <mxCell id="dRir6lEZ_C8JTmkdntRT-4" value="" style="endArrow=none;html=1;rounded=0;fontSize=12;exitX=0;exitY=0;exitDx=0;exitDy=0;exitPerimeter=0;entryX=1.004;entryY=-0.033;entryDx=0;entryDy=0;entryPerimeter=0;" parent="dRir6lEZ_C8JTmkdntRT-0" source="dRir6lEZ_C8JTmkdntRT-2" target="dRir6lEZ_C8JTmkdntRT-2" edge="1">
          <mxGeometry width="50" height="50" relative="1" as="geometry">
            <mxPoint x="160" y="130" as="sourcePoint" />
            <mxPoint x="210" y="80" as="targetPoint" />
            <Array as="points">
              <mxPoint x="120" y="29" />
            </Array>
          </mxGeometry>
        </mxCell>
        <mxCell id="dRir6lEZ_C8JTmkdntRT-7" value="ClassList" style="swimlane;fontStyle=0;childLayout=stackLayout;horizontal=1;startSize=30;horizontalStack=0;resizeParent=1;resizeParentMax=0;resizeLast=0;collapsible=1;marginBottom=0;fontSize=12;strokeColor=default;strokeWidth=2;" parent="LvOzg5FjJoghdi6FQML1-1" vertex="1">
          <mxGeometry x="305" y="1150" width="240" height="60" as="geometry">
            <mxRectangle x="40" y="1310" width="110" height="30" as="alternateBounds" />
          </mxGeometry>
        </mxCell>
        <mxCell id="dRir6lEZ_C8JTmkdntRT-8" value="+DisplayClassList() String" style="text;strokeColor=none;fillColor=none;align=left;verticalAlign=middle;spacingLeft=4;spacingRight=4;overflow=hidden;points=[[0,0.5],[1,0.5]];portConstraint=eastwest;rotatable=0;fontSize=12;" parent="dRir6lEZ_C8JTmkdntRT-7" vertex="1">
          <mxGeometry y="30" width="240" height="30" as="geometry" />
        </mxCell>
        <mxCell id="dRir6lEZ_C8JTmkdntRT-10" value="" style="endArrow=none;html=1;rounded=0;fontSize=12;exitX=0;exitY=0;exitDx=0;exitDy=0;exitPerimeter=0;entryX=1.004;entryY=-0.033;entryDx=0;entryDy=0;entryPerimeter=0;" parent="dRir6lEZ_C8JTmkdntRT-7" source="dRir6lEZ_C8JTmkdntRT-8" target="dRir6lEZ_C8JTmkdntRT-8" edge="1">
          <mxGeometry width="50" height="50" relative="1" as="geometry">
            <mxPoint x="160" y="130" as="sourcePoint" />
            <mxPoint x="210" y="80" as="targetPoint" />
            <Array as="points">
              <mxPoint x="120" y="29" />
            </Array>
          </mxGeometry>
        </mxCell>
        <mxCell id="dRir6lEZ_C8JTmkdntRT-11" value="ClassModel" style="swimlane;fontStyle=0;childLayout=stackLayout;horizontal=1;startSize=30;horizontalStack=0;resizeParent=1;resizeParentMax=0;resizeLast=0;collapsible=1;marginBottom=0;fontSize=12;strokeColor=default;strokeWidth=2;" parent="LvOzg5FjJoghdi6FQML1-1" vertex="1">
          <mxGeometry x="235" y="1470" width="445" height="278" as="geometry">
            <mxRectangle x="40" y="1310" width="110" height="30" as="alternateBounds" />
          </mxGeometry>
        </mxCell>
        <mxCell id="dRir6lEZ_C8JTmkdntRT-12" value="-ClassID: int" style="text;strokeColor=none;fillColor=none;align=left;verticalAlign=middle;spacingLeft=4;spacingRight=4;overflow=hidden;points=[[0,0.5],[1,0.5]];portConstraint=eastwest;rotatable=0;fontSize=12;" parent="dRir6lEZ_C8JTmkdntRT-11" vertex="1">
          <mxGeometry y="30" width="445" height="30" as="geometry" />
        </mxCell>
        <mxCell id="dRir6lEZ_C8JTmkdntRT-32" value="+ClassName: String" style="text;strokeColor=none;fillColor=none;align=left;verticalAlign=middle;spacingLeft=4;spacingRight=4;overflow=hidden;points=[[0,0.5],[1,0.5]];portConstraint=eastwest;rotatable=0;fontSize=12;" parent="dRir6lEZ_C8JTmkdntRT-11" vertex="1">
          <mxGeometry y="60" width="445" height="30" as="geometry" />
        </mxCell>
        <mxCell id="dRir6lEZ_C8JTmkdntRT-33" value="+DateTime: DateTime" style="text;strokeColor=none;fillColor=none;align=left;verticalAlign=middle;spacingLeft=4;spacingRight=4;overflow=hidden;points=[[0,0.5],[1,0.5]];portConstraint=eastwest;rotatable=0;fontSize=12;" parent="dRir6lEZ_C8JTmkdntRT-11" vertex="1">
          <mxGeometry y="90" width="445" height="30" as="geometry" />
        </mxCell>
        <mxCell id="dRir6lEZ_C8JTmkdntRT-34" value="+Location: String" style="text;strokeColor=none;fillColor=none;align=left;verticalAlign=middle;spacingLeft=4;spacingRight=4;overflow=hidden;points=[[0,0.5],[1,0.5]];portConstraint=eastwest;rotatable=0;fontSize=12;" parent="dRir6lEZ_C8JTmkdntRT-11" vertex="1">
          <mxGeometry y="120" width="445" height="30" as="geometry" />
        </mxCell>
        <mxCell id="dRir6lEZ_C8JTmkdntRT-29" value="" style="line;strokeWidth=1;fillColor=none;align=left;verticalAlign=middle;spacingTop=-1;spacingLeft=3;spacingRight=3;rotatable=0;labelPosition=right;points=[];portConstraint=eastwest;" parent="dRir6lEZ_C8JTmkdntRT-11" vertex="1">
          <mxGeometry y="150" width="445" height="8" as="geometry" />
        </mxCell>
        <mxCell id="dRir6lEZ_C8JTmkdntRT-30" value="+CreateClass(String cName, String loc, DateTime dateTime): boolean" style="text;strokeColor=none;fillColor=none;align=left;verticalAlign=middle;spacingLeft=4;spacingRight=4;overflow=hidden;points=[[0,0.5],[1,0.5]];portConstraint=eastwest;rotatable=0;fontSize=12;" parent="dRir6lEZ_C8JTmkdntRT-11" vertex="1">
          <mxGeometry y="158" width="445" height="30" as="geometry" />
        </mxCell>
        <mxCell id="dRir6lEZ_C8JTmkdntRT-13" value="+DeleteClass(int cID): boolean" style="text;strokeColor=none;fillColor=none;align=left;verticalAlign=middle;spacingLeft=4;spacingRight=4;overflow=hidden;points=[[0,0.5],[1,0.5]];portConstraint=eastwest;rotatable=0;fontSize=12;" parent="dRir6lEZ_C8JTmkdntRT-11" vertex="1">
          <mxGeometry y="188" width="445" height="30" as="geometry" />
        </mxCell>
        <mxCell id="dRir6lEZ_C8JTmkdntRT-31" value="+UpdateClass(int cID,String cName, String loc, DateTime dateTime): boolean" style="text;strokeColor=none;fillColor=none;align=left;verticalAlign=middle;spacingLeft=4;spacingRight=4;overflow=hidden;points=[[0,0.5],[1,0.5]];portConstraint=eastwest;rotatable=0;fontSize=12;" parent="dRir6lEZ_C8JTmkdntRT-11" vertex="1">
          <mxGeometry y="218" width="445" height="30" as="geometry" />
        </mxCell>
        <mxCell id="9Nyim4b--JrRIZXB6HG5-0" value="-GetClassList(): ArrayList" style="text;strokeColor=none;fillColor=none;align=left;verticalAlign=middle;spacingLeft=4;spacingRight=4;overflow=hidden;points=[[0,0.5],[1,0.5]];portConstraint=eastwest;rotatable=0;fontSize=12;" parent="dRir6lEZ_C8JTmkdntRT-11" vertex="1">
          <mxGeometry y="248" width="445" height="30" as="geometry" />
        </mxCell>
        <mxCell id="dRir6lEZ_C8JTmkdntRT-14" value="" style="endArrow=none;html=1;rounded=0;fontSize=12;exitX=0;exitY=0;exitDx=0;exitDy=0;exitPerimeter=0;entryX=1.004;entryY=-0.033;entryDx=0;entryDy=0;entryPerimeter=0;" parent="dRir6lEZ_C8JTmkdntRT-11" source="dRir6lEZ_C8JTmkdntRT-12" target="dRir6lEZ_C8JTmkdntRT-12" edge="1">
          <mxGeometry width="50" height="50" relative="1" as="geometry">
            <mxPoint x="160" y="130" as="sourcePoint" />
            <mxPoint x="210" y="80" as="targetPoint" />
            <Array as="points">
              <mxPoint x="120" y="29" />
            </Array>
          </mxGeometry>
        </mxCell>
        <mxCell id="dRir6lEZ_C8JTmkdntRT-15" value="ClassListService" style="swimlane;fontStyle=0;childLayout=stackLayout;horizontal=1;startSize=30;horizontalStack=0;resizeParent=1;resizeParentMax=0;resizeLast=0;collapsible=1;marginBottom=0;fontSize=12;strokeColor=default;strokeWidth=2;" parent="LvOzg5FjJoghdi6FQML1-1" vertex="1">
          <mxGeometry x="545" y="1310" width="240" height="80" as="geometry">
            <mxRectangle x="40" y="1310" width="110" height="30" as="alternateBounds" />
          </mxGeometry>
        </mxCell>
        <mxCell id="dRir6lEZ_C8JTmkdntRT-16" value="+PrepareClassList(): ArrayList&#xa;+GetUser(): Object&#xa;+GetLocation(): Object" style="text;strokeColor=none;fillColor=none;align=left;verticalAlign=middle;spacingLeft=4;spacingRight=4;overflow=hidden;points=[[0,0.5],[1,0.5]];portConstraint=eastwest;rotatable=0;fontSize=12;" parent="dRir6lEZ_C8JTmkdntRT-15" vertex="1">
          <mxGeometry y="30" width="240" height="50" as="geometry" />
        </mxCell>
        <mxCell id="dRir6lEZ_C8JTmkdntRT-18" value="" style="endArrow=none;html=1;rounded=0;fontSize=12;exitX=0;exitY=0;exitDx=0;exitDy=0;exitPerimeter=0;entryX=1.004;entryY=-0.033;entryDx=0;entryDy=0;entryPerimeter=0;" parent="dRir6lEZ_C8JTmkdntRT-15" source="dRir6lEZ_C8JTmkdntRT-16" target="dRir6lEZ_C8JTmkdntRT-16" edge="1">
          <mxGeometry width="50" height="50" relative="1" as="geometry">
            <mxPoint x="160" y="130" as="sourcePoint" />
            <mxPoint x="210" y="80" as="targetPoint" />
            <Array as="points">
              <mxPoint x="120" y="29" />
            </Array>
          </mxGeometry>
        </mxCell>
        <mxCell id="9Nyim4b--JrRIZXB6HG5-3" value="" style="html=1;verticalAlign=bottom;endArrow=block;rounded=0;exitX=1;exitY=0.5;exitDx=0;exitDy=0;entryX=0.5;entryY=0;entryDx=0;entryDy=0;" parent="LvOzg5FjJoghdi6FQML1-1" source="dRir6lEZ_C8JTmkdntRT-8" target="dRir6lEZ_C8JTmkdntRT-15" edge="1">
          <mxGeometry width="80" relative="1" as="geometry">
            <mxPoint x="580" y="1260" as="sourcePoint" />
            <mxPoint x="660" y="1260" as="targetPoint" />
            <Array as="points">
              <mxPoint x="665" y="1195" />
            </Array>
          </mxGeometry>
        </mxCell>
        <mxCell id="9Nyim4b--JrRIZXB6HG5-4" value="" style="html=1;verticalAlign=bottom;endArrow=block;rounded=0;entryX=0.233;entryY=1.033;entryDx=0;entryDy=0;entryPerimeter=0;" parent="LvOzg5FjJoghdi6FQML1-1" target="dRir6lEZ_C8JTmkdntRT-8" edge="1">
          <mxGeometry width="80" relative="1" as="geometry">
            <mxPoint x="280" y="1354.5" as="sourcePoint" />
            <mxPoint x="360" y="1354.5" as="targetPoint" />
            <Array as="points">
              <mxPoint x="361" y="1355" />
            </Array>
          </mxGeometry>
        </mxCell>
        <mxCell id="9Nyim4b--JrRIZXB6HG5-5" value="" style="html=1;verticalAlign=bottom;endArrow=block;rounded=0;exitX=0.471;exitY=1.033;exitDx=0;exitDy=0;exitPerimeter=0;entryX=0.951;entryY=-0.007;entryDx=0;entryDy=0;entryPerimeter=0;" parent="LvOzg5FjJoghdi6FQML1-1" source="dRir6lEZ_C8JTmkdntRT-16" target="dRir6lEZ_C8JTmkdntRT-11" edge="1">
          <mxGeometry width="80" relative="1" as="geometry">
            <mxPoint x="620" y="1410" as="sourcePoint" />
            <mxPoint x="700" y="1410" as="targetPoint" />
            <Array as="points" />
          </mxGeometry>
        </mxCell>
        <mxCell id="gExMRjvPNOd96kW5-H8--1" value="" style="html=1;verticalAlign=bottom;endArrow=block;rounded=0;entryX=-0.004;entryY=0.133;entryDx=0;entryDy=0;entryPerimeter=0;exitX=0.35;exitY=0.967;exitDx=0;exitDy=0;exitPerimeter=0;" parent="LvOzg5FjJoghdi6FQML1-1" source="dRir6lEZ_C8JTmkdntRT-3" target="dRir6lEZ_C8JTmkdntRT-34" edge="1">
          <mxGeometry width="80" relative="1" as="geometry">
            <mxPoint x="40" y="1593.51" as="sourcePoint" />
            <mxPoint x="120.92000000000007" y="1450" as="targetPoint" />
            <Array as="points">
              <mxPoint x="121" y="1594.01" />
            </Array>
          </mxGeometry>
        </mxCell>
        <mxCell id="Nli4yGA1Zbq327OmglPg-3" value="" style="rounded=0;orthogonalLoop=1;jettySize=auto;html=1;endArrow=none;endFill=0;sketch=0;sourcePerimeterSpacing=0;targetPerimeterSpacing=0;exitX=0;exitY=0;exitDx=0;exitDy=0;" parent="LvOzg5FjJoghdi6FQML1-1" source="8VSIVmYYoZUy52MoKhtW-19" target="Nli4yGA1Zbq327OmglPg-5" edge="1">
          <mxGeometry relative="1" as="geometry">
            <mxPoint x="305" y="495" as="sourcePoint" />
          </mxGeometry>
        </mxCell>
        <mxCell id="Nli4yGA1Zbq327OmglPg-4" value="GetUser()" style="rounded=0;orthogonalLoop=1;jettySize=auto;html=1;endArrow=halfCircle;endFill=0;entryX=0.5;entryY=0.5;endSize=6;strokeWidth=1;sketch=0;" parent="LvOzg5FjJoghdi6FQML1-1" target="Nli4yGA1Zbq327OmglPg-5" edge="1">
          <mxGeometry relative="1" as="geometry">
            <mxPoint x="560" y="415" as="sourcePoint" />
          </mxGeometry>
        </mxCell>
        <mxCell id="Nli4yGA1Zbq327OmglPg-5" value="" style="ellipse;whiteSpace=wrap;html=1;align=center;aspect=fixed;resizable=0;points=[];outlineConnect=0;sketch=0;" parent="LvOzg5FjJoghdi6FQML1-1" vertex="1">
          <mxGeometry x="740" y="410" width="10" height="10" as="geometry" />
        </mxCell>
        <mxCell id="Nli4yGA1Zbq327OmglPg-9" value="" style="rounded=0;orthogonalLoop=1;jettySize=auto;html=1;endArrow=none;endFill=0;sketch=0;sourcePerimeterSpacing=0;targetPerimeterSpacing=0;exitX=0;exitY=0.5;exitDx=0;exitDy=0;" parent="LvOzg5FjJoghdi6FQML1-1" source="8VSIVmYYoZUy52MoKhtW-19" target="Nli4yGA1Zbq327OmglPg-11" edge="1">
          <mxGeometry relative="1" as="geometry">
            <mxPoint x="310" y="505" as="sourcePoint" />
          </mxGeometry>
        </mxCell>
        <mxCell id="Nli4yGA1Zbq327OmglPg-10" value="GetLocation()" style="rounded=0;orthogonalLoop=1;jettySize=auto;html=1;endArrow=halfCircle;endFill=0;entryX=0.5;entryY=0.5;endSize=6;strokeWidth=1;sketch=0;" parent="LvOzg5FjJoghdi6FQML1-1" source="8VSIVmYYoZUy52MoKhtW-7" target="Nli4yGA1Zbq327OmglPg-11" edge="1">
          <mxGeometry relative="1" as="geometry">
            <mxPoint x="300" y="550" as="sourcePoint" />
          </mxGeometry>
        </mxCell>
        <mxCell id="Nli4yGA1Zbq327OmglPg-11" value="" style="ellipse;whiteSpace=wrap;html=1;align=center;aspect=fixed;resizable=0;points=[];outlineConnect=0;sketch=0;" parent="LvOzg5FjJoghdi6FQML1-1" vertex="1">
          <mxGeometry x="740" y="440" width="10" height="10" as="geometry" />
        </mxCell>
      </root>
    </mxGraphModel>
  </diagram>
  <diagram id="GFafzbHgIy8qoDyU0btw" name="Location">
    <mxGraphModel dx="1422" dy="762" grid="1" gridSize="10" guides="1" tooltips="1" connect="1" arrows="1" fold="1" page="1" pageScale="1" pageWidth="850" pageHeight="1100" math="0" shadow="0">
      <root>
        <mxCell id="HaFLOBHNOgD2sQwAvvjJ-0" />
        <mxCell id="HaFLOBHNOgD2sQwAvvjJ-1" parent="HaFLOBHNOgD2sQwAvvjJ-0" />
      </root>
    </mxGraphModel>
  </diagram>
  <diagram id="4E3q-x-4-lJ3NATTeMOU" name="Review">
    <mxGraphModel dx="1422" dy="762" grid="1" gridSize="10" guides="1" tooltips="1" connect="1" arrows="1" fold="1" page="1" pageScale="1" pageWidth="850" pageHeight="1100" math="0" shadow="0">
      <root>
        <mxCell id="4J_oO2BO7HFIe01Q8odX-0" />
        <mxCell id="4J_oO2BO7HFIe01Q8odX-1" parent="4J_oO2BO7HFIe01Q8odX-0" />
      </root>
    </mxGraphModel>
  </diagram>
  <diagram id="nbkFBcqH5k6WyEAMC00e" name="User M.">
    <mxGraphModel dx="1422" dy="762" grid="1" gridSize="10" guides="1" tooltips="1" connect="1" arrows="1" fold="1" page="1" pageScale="1" pageWidth="850" pageHeight="1100" math="0" shadow="0">
      <root>
        <mxCell id="k88I91kJmkQsioqwBwxt-0" />
        <mxCell id="k88I91kJmkQsioqwBwxt-1" parent="k88I91kJmkQsioqwBwxt-0" />
      </root>
    </mxGraphModel>
  </diagram>
</mxfile>
